M48
; DRILL file KiCad 10.0.1 date 2026-06-06T15:03:36
; FORMAT={-:-/ absolute / metric / decimal}
; #@! TF.CreationDate,2026-06-06T15:03:36-04:00
; #@! TF.GenerationSoftware,Kicad,Pcbnew,10.0.1
; #@! TF.FileFunction,Plated,1,2,PTH
FMAT,2
METRIC
; #@! TA.AperFunction,Plated,PTH,ViaDrill
T1C0.300
; #@! TA.AperFunction,Plated,PTH,ComponentDrill
T2C0.600
; #@! TA.AperFunction,Plated,PTH,ComponentDrill
T3C0.700
; #@! TA.AperFunction,Plated,PTH,ComponentDrill
T4C0.800
; #@! TA.AperFunction,Plated,PTH,ComponentDrill
T5C0.900
; #@! TA.AperFunction,Plated,PTH,ComponentDrill
T6C1.000
; #@! TA.AperFunction,Plated,PTH,ComponentDrill
T7C1.100
; #@! TA.AperFunction,Plated,PTH,ComponentDrill
T8C1.200
; #@! TA.AperFunction,Plated,PTH,ComponentDrill
T9C1.600
%
G90
G05
T1
X143.5Y-94.5
X145.75Y-95.25
X149.5Y-93.25
X149.75Y-101.75
X152.75Y-95.5
X159.25Y-88.5
X164.75Y-92.0
T2
X144.0Y-127.0
X146.0Y-127.0
X196.5Y-108.0
X196.5Y-118.0
X198.5Y-108.0
X198.5Y-118.0
T3
X135.92Y-90.0
X138.46Y-90.0
X141.0Y-90.0
T4
X133.2Y-126.0
X137.0Y-126.0
X148.0Y-116.0
X150.5Y-116.0
X158.84Y-75.0
X160.19Y-117.0
X160.38Y-109.0
X167.81Y-117.0
X168.0Y-109.0
X169.0Y-75.0
X174.38Y-83.19
X174.38Y-90.81
X174.38Y-99.0
X174.38Y-106.62
X175.19Y-75.0
X176.92Y-83.19
X176.92Y-90.81
X176.92Y-99.0
X176.92Y-106.62
X176.92Y-118.0
X177.0Y-113.0
X179.46Y-83.19
X179.46Y-90.81
X179.46Y-99.0
X179.46Y-106.62
X182.0Y-83.19
X182.0Y-90.81
X182.0Y-99.0
X182.0Y-106.62
X182.81Y-75.0
X184.54Y-83.19
X184.54Y-90.81
X184.54Y-99.0
X184.54Y-106.62
X186.19Y-75.0
X186.5Y-95.0
X187.08Y-83.19
X187.08Y-90.81
X187.08Y-99.0
X187.08Y-106.62
X187.08Y-118.0
X187.16Y-113.0
X189.0Y-95.0
X189.62Y-83.19
X189.62Y-90.81
X189.62Y-99.0
X189.62Y-106.62
X193.81Y-75.0
X196.765Y-101.475
X198.84Y-72.0
X198.92Y-79.0
X198.92Y-86.0
X206.925Y-101.475
X209.0Y-72.0
X209.08Y-79.0
X209.08Y-86.0
T5
X162.46Y-86.0
X165.0Y-86.0
X205.0Y-94.0
X205.0Y-96.54
T6
X137.0Y-100.0
X137.0Y-102.54
X137.0Y-105.08
T7
X146.92Y-90.0
X149.46Y-90.0
X152.0Y-90.0
X158.92Y-98.0
X169.08Y-98.0
T8
X156.0Y-59.05
X156.0Y-131.0
X161.0Y-59.05
X161.0Y-131.0
X166.0Y-59.05
X166.0Y-131.0
X185.0Y-59.05
X185.0Y-131.0
X190.0Y-59.05
X190.0Y-131.0
X195.0Y-59.05
X195.0Y-131.0
T9
X208.0Y-108.7
X208.0Y-117.0
X208.0Y-120.1
T6
G00X124.0Y-93.0
M15
G01X124.0Y-95.0
M16
G05
G00X124.0Y-112.042
M15
G01X124.0Y-114.042
M16
G05
G00X126.0Y-98.7
M15
G01X128.0Y-98.7
M16
G05
G00X126.0Y-117.742
M15
G01X128.0Y-117.742
M16
G05
G00X130.0Y-93.0
M15
G01X130.0Y-95.0
M16
G05
G00X130.0Y-112.042
M15
G01X130.0Y-114.042
M16
G05
M30
