%TF.GenerationSoftware,KiCad,Pcbnew,10.0.1*%
%TF.CreationDate,2026-06-06T15:03:34-04:00*%
%TF.ProjectId,g-04-osc-01-rev-a,672d3034-2d6f-4736-932d-30312d726576,rev?*%
%TF.SameCoordinates,Original*%
%TF.FileFunction,Copper,L2,Bot*%
%TF.FilePolarity,Positive*%
%FSLAX46Y46*%
G04 Gerber Fmt 4.6, Leading zero omitted, Abs format (unit mm)*
G04 Created by KiCad (PCBNEW 10.0.1) date 2026-06-06 15:03:34*
%MOMM*%
%LPD*%
G01*
G04 APERTURE LIST*
G04 Aperture macros list*
%AMRoundRect*
0 Rectangle with rounded corners*
0 $1 Rounding radius*
0 $2 $3 $4 $5 $6 $7 $8 $9 X,Y pos of 4 corners*
0 Add a 4 corners polygon primitive as box body*
4,1,4,$2,$3,$4,$5,$6,$7,$8,$9,$2,$3,0*
0 Add four circle primitives for the rounded corners*
1,1,$1+$1,$2,$3*
1,1,$1+$1,$4,$5*
1,1,$1+$1,$6,$7*
1,1,$1+$1,$8,$9*
0 Add four rect primitives between the rounded corners*
20,1,$1+$1,$2,$3,$4,$5,0*
20,1,$1+$1,$4,$5,$6,$7,0*
20,1,$1+$1,$6,$7,$8,$9,0*
20,1,$1+$1,$8,$9,$2,$3,0*%
G04 Aperture macros list end*
%TA.AperFunction,ComponentPad*%
%ADD10C,1.800000*%
%TD*%
%TA.AperFunction,ComponentPad*%
%ADD11C,1.600000*%
%TD*%
%TA.AperFunction,ComponentPad*%
%ADD12RoundRect,0.250000X-0.350000X-0.350000X0.350000X-0.350000X0.350000X0.350000X-0.350000X0.350000X0*%
%TD*%
%TA.AperFunction,ComponentPad*%
%ADD13C,1.200000*%
%TD*%
%TA.AperFunction,ComponentPad*%
%ADD14R,1.700000X1.700000*%
%TD*%
%TA.AperFunction,ComponentPad*%
%ADD15C,1.700000*%
%TD*%
%TA.AperFunction,ComponentPad*%
%ADD16RoundRect,0.249999X0.850001X0.850001X-0.850001X0.850001X-0.850001X-0.850001X0.850001X-0.850001X0*%
%TD*%
%TA.AperFunction,ComponentPad*%
%ADD17C,2.200000*%
%TD*%
%TA.AperFunction,ComponentPad*%
%ADD18R,3.500000X3.500000*%
%TD*%
%TA.AperFunction,ComponentPad*%
%ADD19RoundRect,0.750000X-0.750000X-1.000000X0.750000X-1.000000X0.750000X1.000000X-0.750000X1.000000X0*%
%TD*%
%TA.AperFunction,ComponentPad*%
%ADD20RoundRect,0.875000X-0.875000X-0.875000X0.875000X-0.875000X0.875000X0.875000X-0.875000X0.875000X0*%
%TD*%
%TA.AperFunction,ComponentPad*%
%ADD21RoundRect,0.250000X0.550000X-0.550000X0.550000X0.550000X-0.550000X0.550000X-0.550000X-0.550000X0*%
%TD*%
%TA.AperFunction,ComponentPad*%
%ADD22RoundRect,0.250000X0.550000X0.550000X-0.550000X0.550000X-0.550000X-0.550000X0.550000X-0.550000X0*%
%TD*%
%TA.AperFunction,ComponentPad*%
%ADD23RoundRect,0.250000X-0.550000X-0.550000X0.550000X-0.550000X0.550000X0.550000X-0.550000X0.550000X0*%
%TD*%
%TA.AperFunction,ComponentPad*%
%ADD24R,3.000000X3.000000*%
%TD*%
%TA.AperFunction,ComponentPad*%
%ADD25C,3.000000*%
%TD*%
%TA.AperFunction,ComponentPad*%
%ADD26R,1.800000X1.800000*%
%TD*%
%TA.AperFunction,ComponentPad*%
%ADD27R,1.905000X2.000000*%
%TD*%
%TA.AperFunction,ComponentPad*%
%ADD28O,1.905000X2.000000*%
%TD*%
%TA.AperFunction,ComponentPad*%
%ADD29R,1.500000X1.500000*%
%TD*%
%TA.AperFunction,ViaPad*%
%ADD30C,0.600000*%
%TD*%
%TA.AperFunction,Conductor*%
%ADD31C,0.800000*%
%TD*%
%TA.AperFunction,Conductor*%
%ADD32C,0.400000*%
%TD*%
G04 APERTURE END LIST*
D10*
%TO.P,J4,1*%
%TO.N,GND*%
X208000000Y-120100000D03*
%TO.P,J4,2*%
%TO.N,unconnected-(J4-Pad2)*%
X208000000Y-117000000D03*
%TO.P,J4,3*%
%TO.N,OUTPUT*%
X208000000Y-108700000D03*
%TD*%
D11*
%TO.P,R8,1*%
%TO.N,OUTPUT*%
X206925000Y-101475000D03*
%TO.P,R8,2*%
%TO.N,Net-(U3A--)*%
X196765000Y-101475000D03*
%TD*%
D12*
%TO.P,C10,1*%
%TO.N,+5V*%
X144000000Y-127000000D03*
D13*
%TO.P,C10,2*%
%TO.N,GND*%
X146000000Y-127000000D03*
%TD*%
D11*
%TO.P,R5,1*%
%TO.N,Net-(D5-K)*%
X177000000Y-113000000D03*
%TO.P,R5,2*%
%TO.N,Net-(R5-Pad2)*%
X187160000Y-113000000D03*
%TD*%
D14*
%TO.P,J5,1,Pin_1_1*%
%TO.N,GND*%
X137000000Y-105080000D03*
D15*
%TO.P,J5,2,Pin_2_2*%
%TO.N,+5V*%
X137000000Y-102540000D03*
%TO.P,J5,3,Pin_3_3*%
%TO.N,+12V*%
X137000000Y-100000000D03*
%TD*%
D16*
%TO.P,D1,1,K_1*%
%TO.N,+12V*%
X169080000Y-98000000D03*
D17*
%TO.P,D1,2,A_2*%
%TO.N,Net-(D1-A)*%
X158920000Y-98000000D03*
%TD*%
D18*
%TO.P,J1,1*%
%TO.N,Net-(SW3-A)*%
X130000000Y-94000000D03*
D19*
%TO.P,J1,2*%
%TO.N,GND*%
X124000000Y-94000000D03*
D20*
%TO.P,J1,3*%
%TO.N,unconnected-(J1-Pad3)*%
X127000000Y-98700000D03*
%TD*%
D21*
%TO.P,U1,1*%
%TO.N,Net-(D3-K)*%
X174380000Y-106620000D03*
D11*
%TO.P,U1,2*%
%TO.N,Net-(D5-K)*%
X176920000Y-106620000D03*
%TO.P,U1,3*%
%TO.N,N/C*%
X179460000Y-106620000D03*
%TO.P,U1,4*%
X182000000Y-106620000D03*
%TO.P,U1,5*%
X184540000Y-106620000D03*
%TO.P,U1,6*%
X187080000Y-106620000D03*
%TO.P,U1,7,VSS_7*%
%TO.N,GND*%
X189620000Y-106620000D03*
%TO.P,U1,8*%
%TO.N,N/C*%
X189620000Y-99000000D03*
%TO.P,U1,9*%
X187080000Y-99000000D03*
%TO.P,U1,10*%
X184540000Y-99000000D03*
%TO.P,U1,11*%
X182000000Y-99000000D03*
%TO.P,U1,12*%
X179460000Y-99000000D03*
%TO.P,U1,13*%
X176920000Y-99000000D03*
%TO.P,U1,14,VDD_14*%
%TO.N,+5V*%
X174380000Y-99000000D03*
%TD*%
D22*
%TO.P,D4,1,K_1*%
%TO.N,Net-(D4-K)*%
X168000000Y-109000000D03*
D11*
%TO.P,D4,2,A_2*%
%TO.N,Net-(D3-K)*%
X160380000Y-109000000D03*
%TD*%
D23*
%TO.P,D5,1,K_1*%
%TO.N,Net-(D5-K)*%
X186190000Y-75000000D03*
D11*
%TO.P,D5,2,A_2*%
%TO.N,Net-(D5-A)*%
X193810000Y-75000000D03*
%TD*%
D12*
%TO.P,C2,1*%
%TO.N,Net-(D3-K)*%
X196500000Y-108000000D03*
D13*
%TO.P,C2,2*%
%TO.N,GND*%
X198500000Y-108000000D03*
%TD*%
D11*
%TO.P,C11,1*%
%TO.N,+5V*%
X148000000Y-116000000D03*
%TO.P,C11,2*%
%TO.N,GND*%
X150500000Y-116000000D03*
%TD*%
%TO.P,R4,1*%
%TO.N,Net-(U3A-+)*%
X198840000Y-72000000D03*
%TO.P,R4,2*%
%TO.N,Net-(R4-Pad2)*%
X209000000Y-72000000D03*
%TD*%
D23*
%TO.P,C9,1*%
%TO.N,+12V*%
X133200000Y-126000000D03*
D11*
%TO.P,C9,2*%
%TO.N,GND*%
X137000000Y-126000000D03*
%TD*%
%TO.P,R7,1*%
%TO.N,GND*%
X169000000Y-75000000D03*
%TO.P,R7,2*%
%TO.N,Net-(D8-K)*%
X158840000Y-75000000D03*
%TD*%
%TO.P,C4,1*%
%TO.N,+5V*%
X189000000Y-95000000D03*
%TO.P,C4,2*%
%TO.N,GND*%
X186500000Y-95000000D03*
%TD*%
D24*
%TO.P,RV1,1,1_1*%
%TO.N,Net-(D3-A)*%
X156000000Y-131000000D03*
D25*
%TO.P,RV1,2,2_2*%
%TO.N,Net-(R6-Pad2)*%
X161000000Y-131000000D03*
%TO.P,RV1,3,3_3*%
%TO.N,unconnected-(RV1-Pad3)*%
X166000000Y-131000000D03*
%TD*%
D26*
%TO.P,D8,1,K_1*%
%TO.N,Net-(D8-K)*%
X162460000Y-86000000D03*
D10*
%TO.P,D8,2,A_2*%
%TO.N,+5V*%
X165000000Y-86000000D03*
%TD*%
D12*
%TO.P,C3,1*%
%TO.N,Net-(U3A-+)*%
X196500000Y-118000000D03*
D13*
%TO.P,C3,2*%
%TO.N,GND*%
X198500000Y-118000000D03*
%TD*%
D24*
%TO.P,RV2,1,1_1*%
%TO.N,Net-(D4-K)*%
X185000000Y-131000000D03*
D25*
%TO.P,RV2,2,2_2*%
%TO.N,Net-(R5-Pad2)*%
X190000000Y-131000000D03*
%TO.P,RV2,3,3_3*%
%TO.N,unconnected-(RV2-Pad3)*%
X195000000Y-131000000D03*
%TD*%
D11*
%TO.P,R3,1*%
%TO.N,Net-(U3A-+)*%
X209080000Y-79000000D03*
%TO.P,R3,2*%
%TO.N,Net-(R3-Pad2)*%
X198920000Y-79000000D03*
%TD*%
D27*
%TO.P,U2,1,IN_1*%
%TO.N,+12V*%
X152000000Y-90000000D03*
D28*
%TO.P,U2,2,GND_2*%
%TO.N,GND*%
X149460000Y-90000000D03*
%TO.P,U2,3,OUT_3*%
%TO.N,+5V*%
X146920000Y-90000000D03*
%TD*%
D21*
%TO.P,U3,1*%
%TO.N,Net-(U3A--)*%
X174380000Y-90810000D03*
D11*
%TO.P,U3,2,-_2*%
X176920000Y-90810000D03*
%TO.P,U3,3,+_3*%
%TO.N,Net-(U3A-+)*%
X179460000Y-90810000D03*
%TO.P,U3,4,V+_4*%
%TO.N,+5V*%
X182000000Y-90810000D03*
%TO.P,U3,5*%
%TO.N,N/C*%
X184540000Y-90810000D03*
%TO.P,U3,6*%
X187080000Y-90810000D03*
%TO.P,U3,7*%
X189620000Y-90810000D03*
%TO.P,U3,8*%
X189620000Y-83190000D03*
%TO.P,U3,9*%
X187080000Y-83190000D03*
%TO.P,U3,10*%
X184540000Y-83190000D03*
%TO.P,U3,11,V-_11*%
%TO.N,GND*%
X182000000Y-83190000D03*
%TO.P,U3,12*%
%TO.N,N/C*%
X179460000Y-83190000D03*
%TO.P,U3,13*%
X176920000Y-83190000D03*
%TO.P,U3,14*%
X174380000Y-83190000D03*
%TD*%
%TO.P,R6,1*%
%TO.N,Net-(D5-K)*%
X176920000Y-118000000D03*
%TO.P,R6,2*%
%TO.N,Net-(R6-Pad2)*%
X187080000Y-118000000D03*
%TD*%
%TO.P,R2,1*%
%TO.N,Net-(D5-K)*%
X198920000Y-86000000D03*
%TO.P,R2,2*%
%TO.N,Net-(D2-A)*%
X209080000Y-86000000D03*
%TD*%
D24*
%TO.P,RV4,1,1_1*%
%TO.N,Net-(D5-A)*%
X195000000Y-59050000D03*
D25*
%TO.P,RV4,2,2_2*%
%TO.N,Net-(R4-Pad2)*%
X190000000Y-59050000D03*
%TO.P,RV4,3,3_3*%
%TO.N,unconnected-(RV4-Pad3)*%
X185000000Y-59050000D03*
%TD*%
D23*
%TO.P,D3,1,K_1*%
%TO.N,Net-(D3-K)*%
X160190000Y-117000000D03*
D11*
%TO.P,D3,2,A_2*%
%TO.N,Net-(D3-A)*%
X167810000Y-117000000D03*
%TD*%
D23*
%TO.P,D6,1,K_1*%
%TO.N,Net-(D6-K)*%
X175190000Y-75000000D03*
D11*
%TO.P,D6,2,A_2*%
%TO.N,Net-(D5-K)*%
X182810000Y-75000000D03*
%TD*%
D26*
%TO.P,D2,1,K_1*%
%TO.N,GND*%
X205000000Y-96540000D03*
D10*
%TO.P,D2,2,A_2*%
%TO.N,Net-(D2-A)*%
X205000000Y-94000000D03*
%TD*%
D24*
%TO.P,RV3,1,1_1*%
%TO.N,Net-(D6-K)*%
X166000000Y-59050000D03*
D25*
%TO.P,RV3,2,2_2*%
%TO.N,Net-(R3-Pad2)*%
X161000000Y-59050000D03*
%TO.P,RV3,3,3_3*%
%TO.N,unconnected-(RV3-Pad3)*%
X156000000Y-59050000D03*
%TD*%
D29*
%TO.P,SW3,1,A_1*%
%TO.N,Net-(SW3-A)*%
X141000000Y-90000000D03*
%TO.P,SW3,2,B_2*%
%TO.N,Net-(D1-A)*%
X138460000Y-90000000D03*
%TO.P,SW3,3,C_3*%
%TO.N,unconnected-(SW3-C-Pad3)*%
X135920000Y-90000000D03*
%TD*%
D18*
%TO.P,J3,1*%
%TO.N,Net-(SW3-A)*%
X130000000Y-113042500D03*
D19*
%TO.P,J3,2*%
%TO.N,GND*%
X124000000Y-113042500D03*
D20*
%TO.P,J3,3*%
%TO.N,unconnected-(J3-Pad3)*%
X127000000Y-117742500D03*
%TD*%
D30*
%TO.N,GND*%
X149750000Y-101750000D03*
X149500000Y-93250000D03*
%TO.N,Net-(D1-A)*%
X159250000Y-88500000D03*
%TO.N,+12V*%
X152750000Y-95500000D03*
X143500000Y-94500000D03*
X145750000Y-95250000D03*
%TO.N,+5V*%
X164750000Y-92000000D03*
%TD*%
%TO.N,GND*%
D31*
X149500000Y-93250000D02*
X149500000Y-101500000D01*
X149500000Y-101500000D02*
X149750000Y-101750000D01*
%TO.N,Net-(D1-A)*%
D32*
X159250000Y-88500000D02*
X158920000Y-88830000D01*
X158920000Y-88830000D02*
X158920000Y-98000000D01*
%TO.N,+12V*%
X152000000Y-94000000D02*
X152000000Y-90000000D01*
X143500000Y-94500000D02*
X145000000Y-94500000D01*
X145000000Y-94500000D02*
X145750000Y-95250000D01*
X152750000Y-95500000D02*
X152750000Y-94750000D01*
X152750000Y-94750000D02*
X152000000Y-94000000D01*
%TO.N,+5V*%
X165000000Y-86000000D02*
X165000000Y-91750000D01*
X165000000Y-91750000D02*
X164750000Y-92000000D01*
X182000000Y-91000000D02*
X182000000Y-90810000D01*
X174380000Y-99000000D02*
X175580000Y-97800000D01*
X146920000Y-114920000D02*
X146920000Y-90000000D01*
X148000000Y-116000000D02*
X146920000Y-114920000D01*
X186200000Y-97800000D02*
X189000000Y-95000000D01*
X175580000Y-97800000D02*
X186200000Y-97800000D01*
%TO.N,Net-(D5-K)*%
X176920000Y-106620000D02*
X172980000Y-102680000D01*
X178320000Y-105220000D02*
X185379899Y-105220000D01*
D31*
X182810000Y-75000000D02*
X186190000Y-75000000D01*
D32*
X198920000Y-91679899D02*
X198920000Y-86000000D01*
X172980000Y-82610101D02*
X180590101Y-75000000D01*
X185379899Y-105220000D02*
X198920000Y-91679899D01*
D31*
X180590101Y-75000000D02*
X182810000Y-75000000D01*
D32*
X176920000Y-106620000D02*
X178320000Y-105220000D01*
X172980000Y-102680000D02*
X172980000Y-82610101D01*
%TO.N,Net-(R5-Pad2)*%
X190000000Y-131000000D02*
X190000000Y-115840000D01*
X190000000Y-115840000D02*
X187160000Y-113000000D01*
%TO.N,Net-(SW3-A)*%
X137000000Y-94000000D02*
X141000000Y-90000000D01*
X141000000Y-104192500D02*
X141000000Y-90000000D01*
X130000000Y-94000000D02*
X137000000Y-94000000D01*
X130000000Y-113042500D02*
X132150000Y-113042500D01*
X132150000Y-113042500D02*
X141000000Y-104192500D01*
%TO.N,Net-(D3-K)*%
X196480000Y-108020000D02*
X175780000Y-108020000D01*
X162760000Y-106620000D02*
X160380000Y-109000000D01*
X174380000Y-106620000D02*
X162760000Y-106620000D01*
X160380000Y-109000000D02*
X160380000Y-116810000D01*
X175780000Y-108020000D02*
X174380000Y-106620000D01*
D31*
X160190000Y-117000000D02*
X160190000Y-117190000D01*
X196500000Y-108000000D02*
X196480000Y-108020000D01*
X160380000Y-116810000D02*
X160190000Y-117000000D01*
%TO.N,Net-(D4-K)*%
X168020000Y-109020000D02*
X168000000Y-109000000D01*
D32*
X185000000Y-131000000D02*
X188480000Y-127520000D01*
X188480000Y-127520000D02*
X188480000Y-117420101D01*
X180079899Y-109020000D02*
X168020000Y-109020000D01*
X188480000Y-117420101D02*
X180079899Y-109020000D01*
%TO.N,Net-(D5-A)*%
X193810000Y-75000000D02*
X193810000Y-60240000D01*
D31*
X193810000Y-60240000D02*
X195000000Y-59050000D01*
%TO.N,Net-(U3A-+)*%
D32*
X185670000Y-84600000D02*
X203480000Y-84600000D01*
X179460000Y-90810000D02*
X185670000Y-84600000D01*
X209080000Y-79000000D02*
X205840000Y-79000000D01*
X199920000Y-114580000D02*
X199920000Y-88160000D01*
X198840000Y-72000000D02*
X205840000Y-79000000D01*
X199920000Y-88160000D02*
X209080000Y-79000000D01*
X196500000Y-118000000D02*
X199920000Y-114580000D01*
%TO.N,Net-(R4-Pad2)*%
X192100000Y-56950000D02*
X190000000Y-59050000D01*
X209000000Y-72000000D02*
X209000000Y-68850000D01*
X209000000Y-68850000D02*
X197100000Y-56950000D01*
X197100000Y-56950000D02*
X192100000Y-56950000D01*
%TO.N,Net-(D8-K)*%
X162460000Y-78620000D02*
X158840000Y-75000000D01*
X162460000Y-86000000D02*
X162460000Y-78620000D01*
%TO.N,Net-(D3-A)*%
X156000000Y-131000000D02*
X167810000Y-119190000D01*
D31*
X156000000Y-131000000D02*
X156000000Y-130000000D01*
D32*
X167810000Y-119190000D02*
X167810000Y-117000000D01*
D31*
X156000000Y-131000000D02*
X156030151Y-131000000D01*
%TO.N,Net-(R6-Pad2)*%
D32*
X185680000Y-119400000D02*
X187080000Y-118000000D01*
X172600000Y-119400000D02*
X185680000Y-119400000D01*
X161000000Y-131000000D02*
X172600000Y-119400000D01*
%TO.N,unconnected-(RV2-Pad3)*%
D31*
X195000000Y-131000000D02*
X194000000Y-131000000D01*
%TO.N,Net-(R3-Pad2)*%
D32*
X161000000Y-59050000D02*
X163100000Y-56950000D01*
X195830101Y-79000000D02*
X198920000Y-79000000D01*
X163100000Y-56950000D02*
X173780101Y-56950000D01*
X173780101Y-56950000D02*
X195830101Y-79000000D01*
%TO.N,Net-(D2-A)*%
X209080000Y-89920000D02*
X205000000Y-94000000D01*
X209080000Y-86000000D02*
X209080000Y-89920000D01*
%TO.N,Net-(D6-K)*%
X166000000Y-65000000D02*
X166000000Y-59050000D01*
X175190000Y-74190000D02*
X166000000Y-65000000D01*
D31*
X175190000Y-75000000D02*
X175190000Y-74190000D01*
%TD*%
%TA.AperFunction,Conductor*%
%TO.N,GND*%
G36*
X197681517Y-85320185D02*
G01*
X197727272Y-85372989D01*
X197737216Y-85442147D01*
X197724963Y-85480794D01*
X197714782Y-85500773D01*
X197651522Y-85695465D01*
X197619500Y-85897648D01*
X197619500Y-86102351D01*
X197651522Y-86304534D01*
X197714781Y-86499223D01*
X197807715Y-86681613D01*
X197928028Y-86847213D01*
X198072784Y-86991969D01*
X198168385Y-87061426D01*
X198211051Y-87116755D01*
X198219500Y-87161744D01*
X198219500Y-91338380D01*
X198199815Y-91405419D01*
X198183181Y-91426061D01*
X191037763Y-98571478D01*
X190976440Y-98604963D01*
X190906748Y-98599979D01*
X190850815Y-98558107D01*
X190832153Y-98522119D01*
X190825220Y-98500781D01*
X190732287Y-98318390D01*
X190724556Y-98307749D01*
X190611971Y-98152786D01*
X190467213Y-98008028D01*
X190301613Y-97887715D01*
X190301612Y-97887714D01*
X190301610Y-97887713D01*
X190244653Y-97858691D01*
X190119223Y-97794781D01*
X189924534Y-97731522D01*
X189749995Y-97703878D01*
X189722352Y-97699500D01*
X189517648Y-97699500D01*
X189493329Y-97703351D01*
X189315465Y-97731522D01*
X189120776Y-97794781D01*
X188938386Y-97887715D01*
X188772786Y-98008028D01*
X188628028Y-98152786D01*
X188507715Y-98318386D01*
X188460485Y-98411080D01*
X188412510Y-98461876D01*
X188344689Y-98478671D01*
X188278554Y-98456134D01*
X188239515Y-98411080D01*
X188238883Y-98409840D01*
X188192287Y-98318390D01*
X188184556Y-98307749D01*
X188071971Y-98152786D01*
X187927213Y-98008028D01*
X187761613Y-97887715D01*
X187761612Y-97887714D01*
X187761610Y-97887713D01*
X187704653Y-97858691D01*
X187579223Y-97794781D01*
X187482330Y-97763299D01*
X187424655Y-97723861D01*
X187397457Y-97659502D01*
X187409372Y-97590656D01*
X187432965Y-97557690D01*
X188673852Y-96316803D01*
X188735173Y-96283320D01*
X188780929Y-96282013D01*
X188831356Y-96290000D01*
X188897648Y-96300500D01*
X188897649Y-96300500D01*
X189102351Y-96300500D01*
X189102352Y-96300500D01*
X189304534Y-96268477D01*
X189499219Y-96205220D01*
X189681610Y-96112287D01*
X189808994Y-96019738D01*
X189847213Y-95991971D01*
X189847215Y-95991968D01*
X189847219Y-95991966D01*
X189991966Y-95847219D01*
X189991968Y-95847215D01*
X189991971Y-95847213D01*
X190055124Y-95760289D01*
X190112287Y-95681610D01*
X190205220Y-95499219D01*
X190268477Y-95304534D01*
X190300500Y-95102352D01*
X190300500Y-94897648D01*
X190278296Y-94757461D01*
X190268477Y-94695465D01*
X190230585Y-94578846D01*
X190205220Y-94500781D01*
X190205218Y-94500778D01*
X190205218Y-94500776D01*
X190150017Y-94392439D01*
X190112287Y-94318390D01*
X190080092Y-94274077D01*
X189991971Y-94152786D01*
X189847213Y-94008028D01*
X189681613Y-93887715D01*
X189681612Y-93887714D01*
X189681610Y-93887713D01*
X189624653Y-93858691D01*
X189499223Y-93794781D01*
X189304534Y-93731522D01*
X189129995Y-93703878D01*
X189102352Y-93699500D01*
X188897648Y-93699500D01*
X188873329Y-93703351D01*
X188695465Y-93731522D01*
X188500776Y-93794781D01*
X188318386Y-93887715D01*
X188152786Y-94008028D01*
X188008028Y-94152786D01*
X187887714Y-94318386D01*
X187860203Y-94372379D01*
X187812227Y-94423174D01*
X187744406Y-94439968D01*
X187678272Y-94417429D01*
X187639234Y-94372376D01*
X187611861Y-94318652D01*
X187579474Y-94274077D01*
X187579474Y-94274076D01*
X186900000Y-94953553D01*
X186900000Y-94947339D01*
X186872741Y-94845606D01*
X186820080Y-94754394D01*
X186745606Y-94679920D01*
X186654394Y-94627259D01*
X186552661Y-94600000D01*
X186546446Y-94600000D01*
X187225922Y-93920524D01*
X187225921Y-93920523D01*
X187181359Y-93888147D01*
X187181350Y-93888141D01*
X186999031Y-93795244D01*
X186804417Y-93732009D01*
X186602317Y-93700000D01*
X186397683Y-93700000D01*
X186195582Y-93732009D01*
X186000968Y-93795244D01*
X185818644Y-93888143D01*
X185774077Y-93920523D01*
X185774077Y-93920524D01*
X186453554Y-94600000D01*
X186447339Y-94600000D01*
X186345606Y-94627259D01*
X186254394Y-94679920D01*
X186179920Y-94754394D01*
X186127259Y-94845606D01*
X186100000Y-94947339D01*
X186100000Y-94953553D01*
X185420524Y-94274077D01*
X185420523Y-94274077D01*
X185388143Y-94318644D01*
X185295244Y-94500968D01*
X185232009Y-94695582D01*
X185200000Y-94897682D01*
X185200000Y-95102317D01*
X185232009Y-95304417D01*
X185295244Y-95499031D01*
X185388141Y-95681350D01*
X185388147Y-95681359D01*
X185420523Y-95725921D01*
X185420524Y-95725922D01*
X186100000Y-95046446D01*
X186100000Y-95052661D01*
X186127259Y-95154394D01*
X186179920Y-95245606D01*
X186254394Y-95320080D01*
X186345606Y-95372741D01*
X186447339Y-95400000D01*
X186453553Y-95400000D01*
X185774076Y-96079474D01*
X185818650Y-96111859D01*
X186000968Y-96204755D01*
X186195582Y-96267990D01*
X186397683Y-96300000D01*
X186409980Y-96300000D01*
X186477019Y-96319685D01*
X186522774Y-96372489D01*
X186532718Y-96441647D01*
X186503693Y-96505203D01*
X186497661Y-96511681D01*
X185946162Y-97063181D01*
X185884839Y-97096666D01*
X185858481Y-97099500D01*
X175511003Y-97099500D01*
X175402590Y-97121065D01*
X175402589Y-97121065D01*
X175375671Y-97126420D01*
X175248190Y-97179224D01*
X175133454Y-97255887D01*
X174706147Y-97683194D01*
X174644824Y-97716679D01*
X174599068Y-97717986D01*
X174549969Y-97710209D01*
X174482352Y-97699500D01*
X174277648Y-97699500D01*
X174253329Y-97703351D01*
X174075465Y-97731522D01*
X173880773Y-97794782D01*
X173860794Y-97804963D01*
X173792125Y-97817859D01*
X173727384Y-97791582D01*
X173687128Y-97734475D01*
X173680500Y-97694478D01*
X173680500Y-92234499D01*
X173700185Y-92167460D01*
X173752989Y-92121705D01*
X173804495Y-92110499D01*
X174980008Y-92110499D01*
X175082797Y-92099999D01*
X175249334Y-92044814D01*
X175398656Y-91952712D01*
X175522712Y-91828656D01*
X175614814Y-91679334D01*
X175641955Y-91597427D01*
X175681726Y-91539984D01*
X175746242Y-91513161D01*
X175815018Y-91525476D01*
X175859977Y-91563547D01*
X175901590Y-91620821D01*
X175928034Y-91657219D01*
X176072786Y-91801971D01*
X176219319Y-91908431D01*
X176238390Y-91922287D01*
X176354607Y-91981503D01*
X176420776Y-92015218D01*
X176420778Y-92015218D01*
X176420781Y-92015220D01*
X176511856Y-92044812D01*
X176615465Y-92078477D01*
X176716557Y-92094488D01*
X176817648Y-92110500D01*
X176817649Y-92110500D01*
X177022351Y-92110500D01*
X177022352Y-92110500D01*
X177224534Y-92078477D01*
X177419219Y-92015220D01*
X177601610Y-91922287D01*
X177730482Y-91828657D01*
X177767213Y-91801971D01*
X177767215Y-91801968D01*
X177767219Y-91801966D01*
X177911966Y-91657219D01*
X177911968Y-91657215D01*
X177911971Y-91657213D01*
X178025829Y-91500499D01*
X178032287Y-91491610D01*
X178079516Y-91398917D01*
X178127489Y-91348123D01*
X178195310Y-91331328D01*
X178261445Y-91353865D01*
X178300483Y-91398917D01*
X178314314Y-91426061D01*
X178347715Y-91491614D01*
X178468028Y-91657213D01*
X178612786Y-91801971D01*
X178759319Y-91908431D01*
X178778390Y-91922287D01*
X178894607Y-91981503D01*
X178960776Y-92015218D01*
X178960778Y-92015218D01*
X178960781Y-92015220D01*
X179051856Y-92044812D01*
X179155465Y-92078477D01*
X179256557Y-92094488D01*
X179357648Y-92110500D01*
X179357649Y-92110500D01*
X179562351Y-92110500D01*
X179562352Y-92110500D01*
X179764534Y-92078477D01*
X179959219Y-92015220D01*
X180141610Y-91922287D01*
X180270482Y-91828657D01*
X180307213Y-91801971D01*
X180307215Y-91801968D01*
X180307219Y-91801966D01*
X180451966Y-91657219D01*
X180451968Y-91657215D01*
X180451971Y-91657213D01*
X180565829Y-91500499D01*
X180572287Y-91491610D01*
X180619516Y-91398917D01*
X180667489Y-91348123D01*
X180735310Y-91331328D01*
X180801445Y-91353865D01*
X180840483Y-91398917D01*
X180854314Y-91426061D01*
X180887715Y-91491614D01*
X181008028Y-91657213D01*
X181152786Y-91801971D01*
X181299319Y-91908431D01*
X181318390Y-91922287D01*
X181434607Y-91981503D01*
X181500776Y-92015218D01*
X181500778Y-92015218D01*
X181500781Y-92015220D01*
X181591856Y-92044812D01*
X181695465Y-92078477D01*
X181796557Y-92094488D01*
X181897648Y-92110500D01*
X181897649Y-92110500D01*
X182102351Y-92110500D01*
X182102352Y-92110500D01*
X182304534Y-92078477D01*
X182499219Y-92015220D01*
X182681610Y-91922287D01*
X182810482Y-91828657D01*
X182847213Y-91801971D01*
X182847215Y-91801968D01*
X182847219Y-91801966D01*
X182991966Y-91657219D01*
X182991968Y-91657215D01*
X182991971Y-91657213D01*
X183105829Y-91500499D01*
X183112287Y-91491610D01*
X183159516Y-91398917D01*
X183207489Y-91348123D01*
X183275310Y-91331328D01*
X183341445Y-91353865D01*
X183380483Y-91398917D01*
X183394314Y-91426061D01*
X183427715Y-91491614D01*
X183548028Y-91657213D01*
X183692786Y-91801971D01*
X183839319Y-91908431D01*
X183858390Y-91922287D01*
X183974607Y-91981503D01*
X184040776Y-92015218D01*
X184040778Y-92015218D01*
X184040781Y-92015220D01*
X184131856Y-92044812D01*
X184235465Y-92078477D01*
X184336557Y-92094488D01*
X184437648Y-92110500D01*
X184437649Y-92110500D01*
X184642351Y-92110500D01*
X184642352Y-92110500D01*
X184844534Y-92078477D01*
X185039219Y-92015220D01*
X185221610Y-91922287D01*
X185350482Y-91828657D01*
X185387213Y-91801971D01*
X185387215Y-91801968D01*
X185387219Y-91801966D01*
X185531966Y-91657219D01*
X185531968Y-91657215D01*
X185531971Y-91657213D01*
X185645829Y-91500499D01*
X185652287Y-91491610D01*
X185699516Y-91398917D01*
X185747489Y-91348123D01*
X185815310Y-91331328D01*
X185881445Y-91353865D01*
X185920483Y-91398917D01*
X185934314Y-91426061D01*
X185967715Y-91491614D01*
X186088028Y-91657213D01*
X186232786Y-91801971D01*
X186379319Y-91908431D01*
X186398390Y-91922287D01*
X186514607Y-91981503D01*
X186580776Y-92015218D01*
X186580778Y-92015218D01*
X186580781Y-92015220D01*
X186671856Y-92044812D01*
X186775465Y-92078477D01*
X186876557Y-92094488D01*
X186977648Y-92110500D01*
X186977649Y-92110500D01*
X187182351Y-92110500D01*
X187182352Y-92110500D01*
X187384534Y-92078477D01*
X187579219Y-92015220D01*
X187761610Y-91922287D01*
X187890482Y-91828657D01*
X187927213Y-91801971D01*
X187927215Y-91801968D01*
X187927219Y-91801966D01*
X188071966Y-91657219D01*
X188071968Y-91657215D01*
X188071971Y-91657213D01*
X188185829Y-91500499D01*
X188192287Y-91491610D01*
X188239516Y-91398917D01*
X188287489Y-91348123D01*
X188355310Y-91331328D01*
X188421445Y-91353865D01*
X188460483Y-91398917D01*
X188474314Y-91426061D01*
X188507715Y-91491614D01*
X188628028Y-91657213D01*
X188772786Y-91801971D01*
X188919319Y-91908431D01*
X188938390Y-91922287D01*
X189054607Y-91981503D01*
X189120776Y-92015218D01*
X189120778Y-92015218D01*
X189120781Y-92015220D01*
X189211856Y-92044812D01*
X189315465Y-92078477D01*
X189416557Y-92094488D01*
X189517648Y-92110500D01*
X189517649Y-92110500D01*
X189722351Y-92110500D01*
X189722352Y-92110500D01*
X189924534Y-92078477D01*
X190119219Y-92015220D01*
X190301610Y-91922287D01*
X190430482Y-91828657D01*
X190467213Y-91801971D01*
X190467215Y-91801968D01*
X190467219Y-91801966D01*
X190611966Y-91657219D01*
X190611968Y-91657215D01*
X190611971Y-91657213D01*
X190680021Y-91563548D01*
X190732287Y-91491610D01*
X190825220Y-91309219D01*
X190888477Y-91114534D01*
X190920500Y-90912352D01*
X190920500Y-90707648D01*
X190888477Y-90505466D01*
X190825220Y-90310781D01*
X190825218Y-90310778D01*
X190825218Y-90310776D01*
X190773865Y-90209992D01*
X190732287Y-90128390D01*
X190680021Y-90056451D01*
X190611971Y-89962786D01*
X190467213Y-89818028D01*
X190301613Y-89697715D01*
X190301612Y-89697714D01*
X190301610Y-89697713D01*
X190239686Y-89666161D01*
X190119223Y-89604781D01*
X189924534Y-89541522D01*
X189749995Y-89513878D01*
X189722352Y-89509500D01*
X189517648Y-89509500D01*
X189493329Y-89513351D01*
X189315465Y-89541522D01*
X189120776Y-89604781D01*
X188938386Y-89697715D01*
X188772786Y-89818028D01*
X188628028Y-89962786D01*
X188507715Y-90128386D01*
X188460485Y-90221080D01*
X188412510Y-90271876D01*
X188344689Y-90288671D01*
X188278554Y-90266134D01*
X188239515Y-90221080D01*
X188233865Y-90209992D01*
X188192287Y-90128390D01*
X188140021Y-90056451D01*
X188071971Y-89962786D01*
X187927213Y-89818028D01*
X187761613Y-89697715D01*
X187761612Y-89697714D01*
X187761610Y-89697713D01*
X187699686Y-89666161D01*
X187579223Y-89604781D01*
X187384534Y-89541522D01*
X187209995Y-89513878D01*
X187182352Y-89509500D01*
X186977648Y-89509500D01*
X186953329Y-89513351D01*
X186775465Y-89541522D01*
X186580776Y-89604781D01*
X186398386Y-89697715D01*
X186232786Y-89818028D01*
X186088028Y-89962786D01*
X185967715Y-90128386D01*
X185920485Y-90221080D01*
X185872510Y-90271876D01*
X185804689Y-90288671D01*
X185738554Y-90266134D01*
X185699515Y-90221080D01*
X185693865Y-90209992D01*
X185652287Y-90128390D01*
X185600021Y-90056451D01*
X185531971Y-89962786D01*
X185387213Y-89818028D01*
X185221613Y-89697715D01*
X185221612Y-89697714D01*
X185221610Y-89697713D01*
X185159686Y-89666161D01*
X185039223Y-89604781D01*
X184844534Y-89541522D01*
X184669995Y-89513878D01*
X184642352Y-89509500D01*
X184437648Y-89509500D01*
X184413329Y-89513351D01*
X184235465Y-89541522D01*
X184040776Y-89604781D01*
X183858386Y-89697715D01*
X183692786Y-89818028D01*
X183548028Y-89962786D01*
X183427715Y-90128386D01*
X183380485Y-90221080D01*
X183332510Y-90271876D01*
X183264689Y-90288671D01*
X183198554Y-90266134D01*
X183159515Y-90221080D01*
X183153865Y-90209992D01*
X183112287Y-90128390D01*
X183060021Y-90056451D01*
X182991971Y-89962786D01*
X182847213Y-89818028D01*
X182681613Y-89697715D01*
X182681612Y-89697714D01*
X182681610Y-89697713D01*
X182619686Y-89666161D01*
X182499223Y-89604781D01*
X182304534Y-89541522D01*
X182129995Y-89513878D01*
X182102352Y-89509500D01*
X182050518Y-89509500D01*
X181983479Y-89489815D01*
X181937724Y-89437011D01*
X181927780Y-89367853D01*
X181956805Y-89304297D01*
X181962837Y-89297819D01*
X183860157Y-87400500D01*
X185923838Y-85336819D01*
X185985161Y-85303334D01*
X186011519Y-85300500D01*
X197614478Y-85300500D01*
X197681517Y-85320185D01*
G37*
%TD.AperFunction*%
%TA.AperFunction,Conductor*%
G36*
X181600000Y-83242661D02*
G01*
X181627259Y-83344394D01*
X181679920Y-83435606D01*
X181754394Y-83510080D01*
X181845606Y-83562741D01*
X181947339Y-83590000D01*
X181953553Y-83590000D01*
X181274076Y-84269474D01*
X181318650Y-84301859D01*
X181500968Y-84394755D01*
X181695582Y-84457990D01*
X181897683Y-84490000D01*
X182102317Y-84490000D01*
X182304417Y-84457990D01*
X182499031Y-84394755D01*
X182681349Y-84301859D01*
X182725921Y-84269474D01*
X182046447Y-83590000D01*
X182052661Y-83590000D01*
X182154394Y-83562741D01*
X182245606Y-83510080D01*
X182320080Y-83435606D01*
X182372741Y-83344394D01*
X182400000Y-83242661D01*
X182400000Y-83236447D01*
X183079474Y-83915921D01*
X183111861Y-83871347D01*
X183111861Y-83871346D01*
X183159234Y-83778371D01*
X183207208Y-83727575D01*
X183275028Y-83710779D01*
X183341164Y-83733316D01*
X183380203Y-83778369D01*
X183427713Y-83871611D01*
X183548028Y-84037213D01*
X183692786Y-84181971D01*
X183813226Y-84269474D01*
X183858390Y-84302287D01*
X183974607Y-84361503D01*
X184040776Y-84395218D01*
X184040778Y-84395218D01*
X184040781Y-84395220D01*
X184143151Y-84428482D01*
X184235465Y-84458477D01*
X184336557Y-84474488D01*
X184437648Y-84490500D01*
X184437649Y-84490500D01*
X184489480Y-84490500D01*
X184556519Y-84510185D01*
X184602274Y-84562989D01*
X184612218Y-84632147D01*
X184583193Y-84695703D01*
X184577161Y-84702181D01*
X179786147Y-89493194D01*
X179724824Y-89526679D01*
X179679068Y-89527986D01*
X179626525Y-89519664D01*
X179562352Y-89509500D01*
X179357648Y-89509500D01*
X179333329Y-89513351D01*
X179155465Y-89541522D01*
X178960776Y-89604781D01*
X178778386Y-89697715D01*
X178612786Y-89818028D01*
X178468028Y-89962786D01*
X178347715Y-90128386D01*
X178300485Y-90221080D01*
X178252510Y-90271876D01*
X178184689Y-90288671D01*
X178118554Y-90266134D01*
X178079515Y-90221080D01*
X178073865Y-90209992D01*
X178032287Y-90128390D01*
X177980021Y-90056451D01*
X177911971Y-89962786D01*
X177767213Y-89818028D01*
X177601613Y-89697715D01*
X177601612Y-89697714D01*
X177601610Y-89697713D01*
X177539686Y-89666161D01*
X177419223Y-89604781D01*
X177224534Y-89541522D01*
X177049995Y-89513878D01*
X177022352Y-89509500D01*
X176817648Y-89509500D01*
X176793329Y-89513351D01*
X176615465Y-89541522D01*
X176420776Y-89604781D01*
X176238386Y-89697715D01*
X176072786Y-89818028D01*
X175928032Y-89962782D01*
X175928028Y-89962787D01*
X175859978Y-90056451D01*
X175804648Y-90099117D01*
X175735035Y-90105096D01*
X175673240Y-90072490D01*
X175641954Y-90022570D01*
X175622144Y-89962787D01*
X175614814Y-89940666D01*
X175522712Y-89791344D01*
X175398656Y-89667288D01*
X175297314Y-89604780D01*
X175249336Y-89575187D01*
X175249331Y-89575185D01*
X175247862Y-89574698D01*
X175082797Y-89520001D01*
X175082795Y-89520000D01*
X174980016Y-89509500D01*
X173804500Y-89509500D01*
X173737461Y-89489815D01*
X173691706Y-89437011D01*
X173680500Y-89385500D01*
X173680500Y-84495521D01*
X173700185Y-84428482D01*
X173752989Y-84382727D01*
X173822147Y-84372783D01*
X173860798Y-84385038D01*
X173880774Y-84395217D01*
X173880777Y-84395217D01*
X173880781Y-84395220D01*
X173983151Y-84428482D01*
X174075465Y-84458477D01*
X174176557Y-84474488D01*
X174277648Y-84490500D01*
X174277649Y-84490500D01*
X174482351Y-84490500D01*
X174482352Y-84490500D01*
X174684534Y-84458477D01*
X174879219Y-84395220D01*
X175061610Y-84302287D01*
X175154590Y-84234732D01*
X175227213Y-84181971D01*
X175227215Y-84181968D01*
X175227219Y-84181966D01*
X175371966Y-84037219D01*
X175371968Y-84037215D01*
X175371971Y-84037213D01*
X175492284Y-83871614D01*
X175492286Y-83871611D01*
X175492287Y-83871610D01*
X175539516Y-83778917D01*
X175587489Y-83728123D01*
X175655310Y-83711328D01*
X175721445Y-83733865D01*
X175760485Y-83778919D01*
X175807715Y-83871614D01*
X175928028Y-84037213D01*
X176072786Y-84181971D01*
X176193226Y-84269474D01*
X176238390Y-84302287D01*
X176354607Y-84361503D01*
X176420776Y-84395218D01*
X176420778Y-84395218D01*
X176420781Y-84395220D01*
X176523151Y-84428482D01*
X176615465Y-84458477D01*
X176716557Y-84474488D01*
X176817648Y-84490500D01*
X176817649Y-84490500D01*
X177022351Y-84490500D01*
X177022352Y-84490500D01*
X177224534Y-84458477D01*
X177419219Y-84395220D01*
X177601610Y-84302287D01*
X177694590Y-84234732D01*
X177767213Y-84181971D01*
X177767215Y-84181968D01*
X177767219Y-84181966D01*
X177911966Y-84037219D01*
X177911968Y-84037215D01*
X177911971Y-84037213D01*
X178032284Y-83871614D01*
X178032286Y-83871611D01*
X178032287Y-83871610D01*
X178079516Y-83778917D01*
X178127489Y-83728123D01*
X178195310Y-83711328D01*
X178261445Y-83733865D01*
X178300485Y-83778919D01*
X178347715Y-83871614D01*
X178468028Y-84037213D01*
X178612786Y-84181971D01*
X178733226Y-84269474D01*
X178778390Y-84302287D01*
X178894607Y-84361503D01*
X178960776Y-84395218D01*
X178960778Y-84395218D01*
X178960781Y-84395220D01*
X179063151Y-84428482D01*
X179155465Y-84458477D01*
X179256557Y-84474488D01*
X179357648Y-84490500D01*
X179357649Y-84490500D01*
X179562351Y-84490500D01*
X179562352Y-84490500D01*
X179764534Y-84458477D01*
X179959219Y-84395220D01*
X180141610Y-84302287D01*
X180234590Y-84234732D01*
X180307213Y-84181971D01*
X180307215Y-84181968D01*
X180307219Y-84181966D01*
X180451966Y-84037219D01*
X180451968Y-84037215D01*
X180451971Y-84037213D01*
X180572286Y-83871611D01*
X180572415Y-83871359D01*
X180619795Y-83778369D01*
X180667769Y-83727573D01*
X180735590Y-83710778D01*
X180801725Y-83733315D01*
X180840765Y-83778369D01*
X180888141Y-83871350D01*
X180888147Y-83871359D01*
X180920523Y-83915921D01*
X180920524Y-83915922D01*
X181600000Y-83236446D01*
X181600000Y-83242661D01*
G37*
%TD.AperFunction*%
%TA.AperFunction,Conductor*%
G36*
X209162400Y-55905295D02*
G01*
X209546471Y-55922064D01*
X209557203Y-55923004D01*
X209935661Y-55972828D01*
X209946299Y-55974703D01*
X210318977Y-56057325D01*
X210329418Y-56060123D01*
X210693463Y-56174905D01*
X210703609Y-56178598D01*
X211056276Y-56324678D01*
X211066067Y-56329244D01*
X211213297Y-56405887D01*
X211404640Y-56505494D01*
X211414008Y-56510902D01*
X211735942Y-56715996D01*
X211744803Y-56722201D01*
X212047628Y-56954567D01*
X212055915Y-56961521D01*
X212337333Y-57219393D01*
X212344982Y-57227042D01*
X212602854Y-57508460D01*
X212609808Y-57516747D01*
X212842174Y-57819572D01*
X212848379Y-57828433D01*
X213053473Y-58150367D01*
X213058881Y-58159735D01*
X213235128Y-58498301D01*
X213239700Y-58508105D01*
X213385773Y-58860756D01*
X213389473Y-58870922D01*
X213504251Y-59234954D01*
X213507051Y-59245402D01*
X213589670Y-59618068D01*
X213591548Y-59628722D01*
X213641369Y-60007150D01*
X213642312Y-60017926D01*
X213659080Y-60401975D01*
X213659198Y-60407384D01*
X213659198Y-130401971D01*
X213659080Y-130407380D01*
X213642312Y-130791429D01*
X213641369Y-130802205D01*
X213591548Y-131180633D01*
X213589670Y-131191287D01*
X213507051Y-131563953D01*
X213504251Y-131574401D01*
X213389473Y-131938433D01*
X213385773Y-131948599D01*
X213239700Y-132301250D01*
X213235128Y-132311054D01*
X213058881Y-132649620D01*
X213053473Y-132658988D01*
X212848379Y-132980922D01*
X212842174Y-132989783D01*
X212609808Y-133292608D01*
X212602854Y-133300895D01*
X212344982Y-133582313D01*
X212337333Y-133589962D01*
X212055915Y-133847834D01*
X212047628Y-133854788D01*
X211744803Y-134087154D01*
X211735942Y-134093359D01*
X211414008Y-134298453D01*
X211404640Y-134303861D01*
X211066074Y-134480108D01*
X211056270Y-134484680D01*
X210703619Y-134630753D01*
X210693453Y-134634453D01*
X210329421Y-134749231D01*
X210318973Y-134752031D01*
X209946307Y-134834650D01*
X209935653Y-134836528D01*
X209557225Y-134886349D01*
X209546449Y-134887292D01*
X209162401Y-134904060D01*
X209156992Y-134904178D01*
X119162404Y-134904178D01*
X119156995Y-134904060D01*
X118772946Y-134887292D01*
X118762172Y-134886349D01*
X118699705Y-134878125D01*
X118383742Y-134836528D01*
X118373088Y-134834650D01*
X118000422Y-134752031D01*
X117989974Y-134749231D01*
X117625942Y-134634453D01*
X117615776Y-134630753D01*
X117263125Y-134484680D01*
X117253321Y-134480108D01*
X116914755Y-134303861D01*
X116905387Y-134298453D01*
X116583453Y-134093359D01*
X116574592Y-134087154D01*
X116271767Y-133854788D01*
X116263480Y-133847834D01*
X115982062Y-133589962D01*
X115974413Y-133582313D01*
X115716541Y-133300895D01*
X115709587Y-133292608D01*
X115477221Y-132989783D01*
X115471016Y-132980922D01*
X115354511Y-132798046D01*
X115265921Y-132658987D01*
X115260514Y-132649620D01*
X115133622Y-132405863D01*
X115084264Y-132311047D01*
X115079695Y-132301250D01*
X114933622Y-131948599D01*
X114929922Y-131938433D01*
X114837220Y-131644419D01*
X114815143Y-131574398D01*
X114812344Y-131563953D01*
X114729725Y-131191287D01*
X114727847Y-131180633D01*
X114678024Y-130802183D01*
X114677084Y-130791451D01*
X114660316Y-130407380D01*
X114660198Y-130401971D01*
X114660198Y-128878711D01*
X118149500Y-128878711D01*
X118149500Y-129121288D01*
X118181161Y-129361785D01*
X118243947Y-129596104D01*
X118336773Y-129820205D01*
X118336776Y-129820212D01*
X118458064Y-130030289D01*
X118458066Y-130030292D01*
X118458067Y-130030293D01*
X118605733Y-130222736D01*
X118605739Y-130222743D01*
X118777256Y-130394260D01*
X118777263Y-130394266D01*
X118794354Y-130407380D01*
X118969711Y-130541936D01*
X119179788Y-130663224D01*
X119403900Y-130756054D01*
X119638211Y-130818838D01*
X119818586Y-130842584D01*
X119878711Y-130850500D01*
X119878712Y-130850500D01*
X120121289Y-130850500D01*
X120169388Y-130844167D01*
X120361789Y-130818838D01*
X120596100Y-130756054D01*
X120820212Y-130663224D01*
X121030289Y-130541936D01*
X121222738Y-130394265D01*
X121394265Y-130222738D01*
X121541936Y-130030289D01*
X121663224Y-129820212D01*
X121756054Y-129596100D01*
X121794630Y-129452135D01*
X153999500Y-129452135D01*
X153999500Y-132547870D01*
X153999501Y-132547876D01*
X154005908Y-132607483D01*
X154056202Y-132742328D01*
X154056206Y-132742335D01*
X154142452Y-132857544D01*
X154142455Y-132857547D01*
X154257664Y-132943793D01*
X154257671Y-132943797D01*
X154392517Y-132994091D01*
X154392516Y-132994091D01*
X154399444Y-132994835D01*
X154452127Y-133000500D01*
X157547872Y-133000499D01*
X157607483Y-132994091D01*
X157742331Y-132943796D01*
X157857546Y-132857546D01*
X157943796Y-132742331D01*
X157994091Y-132607483D01*
X158000500Y-132547873D01*
X158000499Y-130041517D01*
X158020184Y-129974479D01*
X158036813Y-129953842D01*
X168354114Y-119636543D01*
X168430775Y-119521811D01*
X168483580Y-119394329D01*
X168489848Y-119362811D01*
X168496175Y-119331010D01*
X168496175Y-119331007D01*
X168510500Y-119258993D01*
X168510500Y-118161744D01*
X168530185Y-118094705D01*
X168561615Y-118061426D01*
X168657215Y-117991969D01*
X168657215Y-117991968D01*
X168657219Y-117991966D01*
X168801966Y-117847219D01*
X168801968Y-117847215D01*
X168801971Y-117847213D01*
X168878110Y-117742415D01*
X168922287Y-117681610D01*
X169015220Y-117499219D01*
X169078477Y-117304534D01*
X169110500Y-117102352D01*
X169110500Y-116897648D01*
X169110344Y-116896666D01*
X169078477Y-116695465D01*
X169041686Y-116582236D01*
X169015220Y-116500781D01*
X169015218Y-116500778D01*
X169015218Y-116500776D01*
X168963865Y-116399991D01*
X168922287Y-116318390D01*
X168906892Y-116297200D01*
X168801971Y-116152786D01*
X168657213Y-116008028D01*
X168491613Y-115887715D01*
X168491612Y-115887714D01*
X168491610Y-115887713D01*
X168431896Y-115857287D01*
X168309223Y-115794781D01*
X168114534Y-115731522D01*
X167928799Y-115702105D01*
X167912352Y-115699500D01*
X167707648Y-115699500D01*
X167691201Y-115702105D01*
X167505465Y-115731522D01*
X167310776Y-115794781D01*
X167128386Y-115887715D01*
X166962786Y-116008028D01*
X166818028Y-116152786D01*
X166697715Y-116318386D01*
X166604781Y-116500776D01*
X166541522Y-116695465D01*
X166509500Y-116897648D01*
X166509500Y-117102351D01*
X166541522Y-117304534D01*
X166604781Y-117499223D01*
X166697715Y-117681613D01*
X166818028Y-117847213D01*
X166962784Y-117991969D01*
X167058385Y-118061426D01*
X167101051Y-118116755D01*
X167109500Y-118161744D01*
X167109500Y-118848480D01*
X167089815Y-118915519D01*
X167073181Y-118936161D01*
X157046160Y-128963181D01*
X156984837Y-128996666D01*
X156958479Y-128999500D01*
X154452129Y-128999500D01*
X154452123Y-128999501D01*
X154392516Y-129005908D01*
X154257671Y-129056202D01*
X154257664Y-129056206D01*
X154142455Y-129142452D01*
X154142452Y-129142455D01*
X154056206Y-129257664D01*
X154056202Y-129257671D01*
X154005908Y-129392517D01*
X153999501Y-129452116D01*
X153999500Y-129452135D01*
X121794630Y-129452135D01*
X121818838Y-129361789D01*
X121850500Y-129121288D01*
X121850500Y-128878712D01*
X121818838Y-128638211D01*
X121756054Y-128403900D01*
X121663224Y-128179788D01*
X121541936Y-127969711D01*
X121442995Y-127840768D01*
X121394266Y-127777263D01*
X121394260Y-127777256D01*
X121222743Y-127605739D01*
X121222736Y-127605733D01*
X121030293Y-127458067D01*
X121030292Y-127458066D01*
X121030289Y-127458064D01*
X120820212Y-127336776D01*
X120820205Y-127336773D01*
X120596104Y-127243947D01*
X120449838Y-127204755D01*
X120361789Y-127181162D01*
X120361788Y-127181161D01*
X120361785Y-127181161D01*
X120121289Y-127149500D01*
X120121288Y-127149500D01*
X119878712Y-127149500D01*
X119878711Y-127149500D01*
X119638214Y-127181161D01*
X119403895Y-127243947D01*
X119179794Y-127336773D01*
X119179785Y-127336777D01*
X118969706Y-127458067D01*
X118777263Y-127605733D01*
X118777256Y-127605739D01*
X118605739Y-127777256D01*
X118605733Y-127777263D01*
X118458067Y-127969706D01*
X118336777Y-128179785D01*
X118336773Y-128179794D01*
X118243947Y-128403895D01*
X118181161Y-128638214D01*
X118149500Y-128878711D01*
X114660198Y-128878711D01*
X114660198Y-125399983D01*
X131899500Y-125399983D01*
X131899500Y-126600001D01*
X131899501Y-126600018D01*
X131910000Y-126702796D01*
X131910001Y-126702799D01*
X131923129Y-126742415D01*
X131965186Y-126869334D01*
X132057288Y-127018656D01*
X132181344Y-127142712D01*
X132330666Y-127234814D01*
X132497203Y-127289999D01*
X132599991Y-127300500D01*
X133800008Y-127300499D01*
X133902797Y-127289999D01*
X134069334Y-127234814D01*
X134218656Y-127142712D01*
X134342712Y-127018656D01*
X134434814Y-126869334D01*
X134489999Y-126702797D01*
X134500500Y-126600009D01*
X134500499Y-125897682D01*
X135700000Y-125897682D01*
X135700000Y-126102317D01*
X135732009Y-126304417D01*
X135795244Y-126499031D01*
X135888141Y-126681350D01*
X135888147Y-126681359D01*
X135920523Y-126725921D01*
X135920524Y-126725922D01*
X136600000Y-126046446D01*
X136600000Y-126052661D01*
X136627259Y-126154394D01*
X136679920Y-126245606D01*
X136754394Y-126320080D01*
X136845606Y-126372741D01*
X136947339Y-126400000D01*
X136953553Y-126400000D01*
X136274076Y-127079474D01*
X136318650Y-127111859D01*
X136500968Y-127204755D01*
X136695582Y-127267990D01*
X136897683Y-127300000D01*
X137102317Y-127300000D01*
X137304417Y-127267990D01*
X137499031Y-127204755D01*
X137681349Y-127111859D01*
X137725921Y-127079474D01*
X137046447Y-126400000D01*
X137052661Y-126400000D01*
X137154394Y-126372741D01*
X137245606Y-126320080D01*
X137320080Y-126245606D01*
X137372741Y-126154394D01*
X137400000Y-126052661D01*
X137400000Y-126046447D01*
X138079474Y-126725921D01*
X138111859Y-126681349D01*
X138153317Y-126599983D01*
X142899500Y-126599983D01*
X142899500Y-127400001D01*
X142899501Y-127400019D01*
X142910000Y-127502796D01*
X142910001Y-127502799D01*
X142965185Y-127669331D01*
X142965187Y-127669336D01*
X142999107Y-127724329D01*
X143057288Y-127818656D01*
X143181344Y-127942712D01*
X143330666Y-128034814D01*
X143497203Y-128089999D01*
X143599991Y-128100500D01*
X144400008Y-128100499D01*
X144400016Y-128100498D01*
X144400019Y-128100498D01*
X144456302Y-128094748D01*
X144502797Y-128089999D01*
X144669334Y-128034814D01*
X144818656Y-127942712D01*
X144825079Y-127936289D01*
X145417261Y-127936289D01*
X145417262Y-127936290D01*
X145423471Y-127940801D01*
X145577742Y-128019408D01*
X145742415Y-128072914D01*
X145913429Y-128100000D01*
X146086571Y-128100000D01*
X146257584Y-128072914D01*
X146422257Y-128019408D01*
X146576525Y-127940803D01*
X146582736Y-127936289D01*
X146582737Y-127936289D01*
X146000001Y-127353553D01*
X146000000Y-127353553D01*
X145417261Y-127936289D01*
X144825079Y-127936289D01*
X144942712Y-127818656D01*
X145034814Y-127669334D01*
X145054167Y-127610930D01*
X145084191Y-127562254D01*
X145646446Y-127000000D01*
X145646446Y-126999999D01*
X145606951Y-126960504D01*
X145700000Y-126960504D01*
X145700000Y-127039496D01*
X145720444Y-127115796D01*
X145759940Y-127184205D01*
X145815795Y-127240060D01*
X145884204Y-127279556D01*
X145960504Y-127300000D01*
X146039496Y-127300000D01*
X146115796Y-127279556D01*
X146184205Y-127240060D01*
X146240060Y-127184205D01*
X146279556Y-127115796D01*
X146300000Y-127039496D01*
X146300000Y-126999999D01*
X146353553Y-126999999D01*
X146353553Y-127000001D01*
X146936289Y-127582737D01*
X146936289Y-127582736D01*
X146940803Y-127576525D01*
X147019408Y-127422257D01*
X147072914Y-127257584D01*
X147100000Y-127086571D01*
X147100000Y-126913428D01*
X147072914Y-126742415D01*
X147019408Y-126577742D01*
X146940801Y-126423471D01*
X146936290Y-126417262D01*
X146936289Y-126417261D01*
X146353553Y-126999999D01*
X146300000Y-126999999D01*
X146300000Y-126960504D01*
X146279556Y-126884204D01*
X146240060Y-126815795D01*
X146184205Y-126759940D01*
X146115796Y-126720444D01*
X146039496Y-126700000D01*
X145960504Y-126700000D01*
X145884204Y-126720444D01*
X145815795Y-126759940D01*
X145759940Y-126815795D01*
X145720444Y-126884204D01*
X145700000Y-126960504D01*
X145606951Y-126960504D01*
X145084190Y-126437743D01*
X145054166Y-126389066D01*
X145034814Y-126330666D01*
X144942712Y-126181344D01*
X144825076Y-126063708D01*
X145417261Y-126063708D01*
X145417261Y-126063709D01*
X146000000Y-126646446D01*
X146000001Y-126646446D01*
X146582737Y-126063709D01*
X146576525Y-126059196D01*
X146422259Y-125980592D01*
X146257584Y-125927085D01*
X146086571Y-125900000D01*
X145913429Y-125900000D01*
X145742415Y-125927085D01*
X145577740Y-125980592D01*
X145423480Y-126059193D01*
X145423463Y-126059203D01*
X145417261Y-126063708D01*
X144825076Y-126063708D01*
X144818656Y-126057288D01*
X144669334Y-125965186D01*
X144502797Y-125910001D01*
X144502795Y-125910000D01*
X144400010Y-125899500D01*
X143599998Y-125899500D01*
X143599980Y-125899501D01*
X143497203Y-125910000D01*
X143497200Y-125910001D01*
X143330668Y-125965185D01*
X143330663Y-125965187D01*
X143181342Y-126057289D01*
X143057289Y-126181342D01*
X142965187Y-126330663D01*
X142965185Y-126330668D01*
X142957602Y-126353553D01*
X142910001Y-126497203D01*
X142910001Y-126497204D01*
X142910000Y-126497204D01*
X142899500Y-126599983D01*
X138153317Y-126599983D01*
X138183606Y-126540539D01*
X138183607Y-126540537D01*
X138204754Y-126499034D01*
X138267990Y-126304417D01*
X138300000Y-126102317D01*
X138300000Y-125897682D01*
X138267990Y-125695582D01*
X138204755Y-125500968D01*
X138111859Y-125318650D01*
X138079474Y-125274077D01*
X138079474Y-125274076D01*
X137400000Y-125953551D01*
X137400000Y-125947339D01*
X137372741Y-125845606D01*
X137320080Y-125754394D01*
X137245606Y-125679920D01*
X137154394Y-125627259D01*
X137052661Y-125600000D01*
X137046446Y-125600000D01*
X137725922Y-124920524D01*
X137725921Y-124920523D01*
X137681359Y-124888147D01*
X137681350Y-124888141D01*
X137499031Y-124795244D01*
X137304417Y-124732009D01*
X137102317Y-124700000D01*
X136897683Y-124700000D01*
X136695582Y-124732009D01*
X136500968Y-124795244D01*
X136318644Y-124888143D01*
X136274077Y-124920523D01*
X136274077Y-124920524D01*
X136953554Y-125600000D01*
X136947339Y-125600000D01*
X136845606Y-125627259D01*
X136754394Y-125679920D01*
X136679920Y-125754394D01*
X136627259Y-125845606D01*
X136600000Y-125947339D01*
X136600000Y-125953553D01*
X135920524Y-125274077D01*
X135920523Y-125274077D01*
X135888143Y-125318644D01*
X135795244Y-125500968D01*
X135732009Y-125695582D01*
X135700000Y-125897682D01*
X134500499Y-125897682D01*
X134500499Y-125399992D01*
X134489999Y-125297203D01*
X134434814Y-125130666D01*
X134342712Y-124981344D01*
X134218656Y-124857288D01*
X134069334Y-124765186D01*
X133902797Y-124710001D01*
X133902795Y-124710000D01*
X133800010Y-124699500D01*
X132599998Y-124699500D01*
X132599981Y-124699501D01*
X132497203Y-124710000D01*
X132497200Y-124710001D01*
X132330668Y-124765185D01*
X132330663Y-124765187D01*
X132181342Y-124857289D01*
X132057289Y-124981342D01*
X131965187Y-125130663D01*
X131965186Y-125130666D01*
X131910001Y-125297203D01*
X131910001Y-125297204D01*
X131910000Y-125297204D01*
X131899500Y-125399983D01*
X114660198Y-125399983D01*
X114660198Y-111978303D01*
X122000000Y-111978303D01*
X122000000Y-112792500D01*
X123500000Y-112792500D01*
X123500000Y-113292500D01*
X122000001Y-113292500D01*
X122000001Y-114106697D01*
X122010400Y-114238832D01*
X122065377Y-114457019D01*
X122158428Y-114661874D01*
X122158431Y-114661880D01*
X122286559Y-114846823D01*
X122286569Y-114846835D01*
X122445664Y-115005930D01*
X122445676Y-115005940D01*
X122630619Y-115134068D01*
X122630625Y-115134071D01*
X122835480Y-115227122D01*
X123053667Y-115282099D01*
X123185810Y-115292499D01*
X123749999Y-115292499D01*
X123750000Y-115292498D01*
X123750000Y-114475512D01*
X123807007Y-114508425D01*
X123934174Y-114542500D01*
X124065826Y-114542500D01*
X124192993Y-114508425D01*
X124250000Y-114475512D01*
X124250000Y-115292499D01*
X124814182Y-115292499D01*
X124814197Y-115292498D01*
X124946332Y-115282099D01*
X125164519Y-115227122D01*
X125369374Y-115134071D01*
X125369380Y-115134068D01*
X125554323Y-115005940D01*
X125554335Y-115005930D01*
X125713430Y-114846835D01*
X125713440Y-114846823D01*
X125841568Y-114661880D01*
X125841571Y-114661874D01*
X125934622Y-114457019D01*
X125989599Y-114238832D01*
X125999999Y-114106696D01*
X126000000Y-114106684D01*
X126000000Y-113292500D01*
X124500000Y-113292500D01*
X124500000Y-112792500D01*
X125999999Y-112792500D01*
X125999999Y-111978317D01*
X125999998Y-111978302D01*
X125989599Y-111846167D01*
X125934622Y-111627980D01*
X125841571Y-111423125D01*
X125841568Y-111423119D01*
X125713440Y-111238176D01*
X125713430Y-111238164D01*
X125554335Y-111079069D01*
X125554323Y-111079059D01*
X125369380Y-110950931D01*
X125369374Y-110950928D01*
X125164519Y-110857877D01*
X124946332Y-110802900D01*
X124814196Y-110792500D01*
X124250000Y-110792500D01*
X124250000Y-111609488D01*
X124192993Y-111576575D01*
X124065826Y-111542500D01*
X123934174Y-111542500D01*
X123807007Y-111576575D01*
X123750000Y-111609488D01*
X123750000Y-110792500D01*
X123185817Y-110792500D01*
X123185802Y-110792501D01*
X123053667Y-110802900D01*
X122835480Y-110857877D01*
X122630625Y-110950928D01*
X122630619Y-110950931D01*
X122445676Y-111079059D01*
X122445664Y-111079069D01*
X122286569Y-111238164D01*
X122286559Y-111238176D01*
X122158431Y-111423119D01*
X122158428Y-111423125D01*
X122065377Y-111627980D01*
X122010400Y-111846167D01*
X122000000Y-111978303D01*
X114660198Y-111978303D01*
X114660198Y-97731386D01*
X124749500Y-97731386D01*
X124749500Y-99668613D01*
X124749501Y-99668652D01*
X124752295Y-99721243D01*
X124752295Y-99721244D01*
X124776658Y-99847213D01*
X124796755Y-99951126D01*
X124845326Y-100079832D01*
X124879425Y-100170189D01*
X124997929Y-100372131D01*
X124997934Y-100372138D01*
X125148856Y-100551141D01*
X125148858Y-100551143D01*
X125327861Y-100702065D01*
X125327868Y-100702070D01*
X125529810Y-100820574D01*
X125748874Y-100903245D01*
X125978759Y-100947705D01*
X126031378Y-100950500D01*
X126031386Y-100950500D01*
X127968614Y-100950500D01*
X127968622Y-100950500D01*
X128021241Y-100947705D01*
X128251126Y-100903245D01*
X128470190Y-100820574D01*
X128672132Y-100702070D01*
X128672138Y-100702065D01*
X128851141Y-100551143D01*
X128851143Y-100551141D01*
X129002065Y-100372138D01*
X129002065Y-100372137D01*
X129002070Y-100372132D01*
X129120574Y-100170190D01*
X129203245Y-99951126D01*
X129247705Y-99721241D01*
X129250500Y-99668622D01*
X129250500Y-97731378D01*
X129247705Y-97678759D01*
X129203245Y-97448874D01*
X129120574Y-97229810D01*
X129002070Y-97027868D01*
X129002065Y-97027861D01*
X128851143Y-96848858D01*
X128851141Y-96848856D01*
X128672138Y-96697934D01*
X128672131Y-96697929D01*
X128470189Y-96579425D01*
X128372513Y-96542564D01*
X128251126Y-96496755D01*
X128251121Y-96496754D01*
X128251116Y-96496752D01*
X128248470Y-96496240D01*
X128247451Y-96495713D01*
X128246050Y-96495317D01*
X128246130Y-96495031D01*
X128186392Y-96464177D01*
X128151503Y-96403641D01*
X128154881Y-96333853D01*
X128195452Y-96276970D01*
X128260337Y-96251052D01*
X128272009Y-96250499D01*
X131797872Y-96250499D01*
X131857483Y-96244091D01*
X131992331Y-96193796D01*
X132107546Y-96107546D01*
X132193796Y-95992331D01*
X132244091Y-95857483D01*
X132250500Y-95797873D01*
X132250500Y-94824500D01*
X132270185Y-94757461D01*
X132322989Y-94711706D01*
X132374500Y-94700500D01*
X137068996Y-94700500D01*
X137166990Y-94681007D01*
X137204328Y-94673580D01*
X137269836Y-94646446D01*
X137331807Y-94620777D01*
X137331808Y-94620776D01*
X137331811Y-94620775D01*
X137446543Y-94544114D01*
X140087819Y-91902838D01*
X140149142Y-91869353D01*
X140218834Y-91874337D01*
X140274767Y-91916209D01*
X140299184Y-91981673D01*
X140299500Y-91990519D01*
X140299500Y-103850980D01*
X140279815Y-103918019D01*
X140263181Y-103938661D01*
X138561681Y-105640161D01*
X138500358Y-105673646D01*
X138430666Y-105668662D01*
X138374733Y-105626790D01*
X138350316Y-105561326D01*
X138350000Y-105552480D01*
X138350000Y-105330000D01*
X137433012Y-105330000D01*
X137465925Y-105272993D01*
X137500000Y-105145826D01*
X137500000Y-105014174D01*
X137465925Y-104887007D01*
X137433012Y-104830000D01*
X138350000Y-104830000D01*
X138350000Y-104182172D01*
X138349999Y-104182155D01*
X138343598Y-104122627D01*
X138343596Y-104122620D01*
X138293354Y-103987913D01*
X138293350Y-103987906D01*
X138207190Y-103872812D01*
X138207187Y-103872809D01*
X138092093Y-103786649D01*
X138092088Y-103786646D01*
X137960528Y-103737577D01*
X137904595Y-103695705D01*
X137880178Y-103630241D01*
X137895030Y-103561968D01*
X137916175Y-103533720D01*
X138030104Y-103419792D01*
X138155051Y-103247816D01*
X138251557Y-103058412D01*
X138317246Y-102856243D01*
X138350500Y-102646287D01*
X138350500Y-102433713D01*
X138317246Y-102223757D01*
X138251557Y-102021588D01*
X138155051Y-101832184D01*
X138155049Y-101832181D01*
X138155048Y-101832179D01*
X138030109Y-101660213D01*
X137879786Y-101509890D01*
X137707820Y-101384951D01*
X137707115Y-101384591D01*
X137699054Y-101380485D01*
X137648259Y-101332512D01*
X137631463Y-101264692D01*
X137653999Y-101198556D01*
X137699054Y-101159515D01*
X137707816Y-101155051D01*
X137729789Y-101139086D01*
X137879786Y-101030109D01*
X137879788Y-101030106D01*
X137879792Y-101030104D01*
X138030104Y-100879792D01*
X138030106Y-100879788D01*
X138030109Y-100879786D01*
X138155048Y-100707820D01*
X138155047Y-100707820D01*
X138155051Y-100707816D01*
X138251557Y-100518412D01*
X138317246Y-100316243D01*
X138350500Y-100106287D01*
X138350500Y-99893713D01*
X138317246Y-99683757D01*
X138251557Y-99481588D01*
X138155051Y-99292184D01*
X138155049Y-99292181D01*
X138155048Y-99292179D01*
X138030109Y-99120213D01*
X137879786Y-98969890D01*
X137707820Y-98844951D01*
X137518414Y-98748444D01*
X137518413Y-98748443D01*
X137518412Y-98748443D01*
X137316243Y-98682754D01*
X137316241Y-98682753D01*
X137316240Y-98682753D01*
X137154957Y-98657208D01*
X137106287Y-98649500D01*
X136893713Y-98649500D01*
X136845042Y-98657208D01*
X136683760Y-98682753D01*
X136481585Y-98748444D01*
X136292179Y-98844951D01*
X136120213Y-98969890D01*
X135969890Y-99120213D01*
X135844951Y-99292179D01*
X135748444Y-99481585D01*
X135682753Y-99683760D01*
X135649500Y-99893713D01*
X135649500Y-100106286D01*
X135682706Y-100315945D01*
X135682754Y-100316243D01*
X135700915Y-100372138D01*
X135748444Y-100518414D01*
X135844951Y-100707820D01*
X135969890Y-100879786D01*
X136120213Y-101030109D01*
X136292182Y-101155050D01*
X136300946Y-101159516D01*
X136351742Y-101207491D01*
X136368536Y-101275312D01*
X136345998Y-101341447D01*
X136300946Y-101380484D01*
X136292182Y-101384949D01*
X136120213Y-101509890D01*
X135969890Y-101660213D01*
X135844951Y-101832179D01*
X135748444Y-102021585D01*
X135682753Y-102223760D01*
X135656448Y-102389843D01*
X135649500Y-102433713D01*
X135649500Y-102646287D01*
X135682754Y-102856243D01*
X135733301Y-103011811D01*
X135748444Y-103058414D01*
X135844951Y-103247820D01*
X135969890Y-103419786D01*
X136083818Y-103533714D01*
X136117303Y-103595037D01*
X136112319Y-103664729D01*
X136070447Y-103720662D01*
X136039471Y-103737577D01*
X135907912Y-103786646D01*
X135907906Y-103786649D01*
X135792812Y-103872809D01*
X135792809Y-103872812D01*
X135706649Y-103987906D01*
X135706645Y-103987913D01*
X135656403Y-104122620D01*
X135656401Y-104122627D01*
X135650000Y-104182155D01*
X135650000Y-104830000D01*
X136566988Y-104830000D01*
X136534075Y-104887007D01*
X136500000Y-105014174D01*
X136500000Y-105145826D01*
X136534075Y-105272993D01*
X136566988Y-105330000D01*
X135650000Y-105330000D01*
X135650000Y-105977844D01*
X135656401Y-106037372D01*
X135656403Y-106037379D01*
X135706645Y-106172086D01*
X135706649Y-106172093D01*
X135792809Y-106287187D01*
X135792812Y-106287190D01*
X135907906Y-106373350D01*
X135907913Y-106373354D01*
X136042620Y-106423596D01*
X136042627Y-106423598D01*
X136102155Y-106429999D01*
X136102172Y-106430000D01*
X136750000Y-106430000D01*
X136750000Y-105513012D01*
X136807007Y-105545925D01*
X136934174Y-105580000D01*
X137065826Y-105580000D01*
X137192993Y-105545925D01*
X137250000Y-105513012D01*
X137250000Y-106430000D01*
X137472481Y-106430000D01*
X137539520Y-106449685D01*
X137585275Y-106502489D01*
X137595219Y-106571647D01*
X137566194Y-106635203D01*
X137560166Y-106641676D01*
X134964239Y-109237603D01*
X132462180Y-111739662D01*
X132400857Y-111773147D01*
X132331165Y-111768163D01*
X132275232Y-111726291D01*
X132250815Y-111660827D01*
X132250499Y-111651981D01*
X132250499Y-111244629D01*
X132250498Y-111244623D01*
X132250497Y-111244616D01*
X132244091Y-111185017D01*
X132204571Y-111079059D01*
X132193797Y-111050171D01*
X132193793Y-111050164D01*
X132107547Y-110934955D01*
X132107544Y-110934952D01*
X131992335Y-110848706D01*
X131992328Y-110848702D01*
X131857482Y-110798408D01*
X131857483Y-110798408D01*
X131797883Y-110792001D01*
X131797881Y-110792000D01*
X131797873Y-110792000D01*
X131797864Y-110792000D01*
X128202129Y-110792000D01*
X128202123Y-110792001D01*
X128142516Y-110798408D01*
X128007671Y-110848702D01*
X128007664Y-110848706D01*
X127892455Y-110934952D01*
X127892452Y-110934955D01*
X127806206Y-111050164D01*
X127806202Y-111050171D01*
X127755908Y-111185017D01*
X127749501Y-111244616D01*
X127749501Y-111244623D01*
X127749500Y-111244635D01*
X127749500Y-114840370D01*
X127749501Y-114840376D01*
X127755908Y-114899983D01*
X127806202Y-115034828D01*
X127806206Y-115034835D01*
X127892452Y-115150044D01*
X127892455Y-115150047D01*
X128007664Y-115236293D01*
X128007673Y-115236298D01*
X128054937Y-115253926D01*
X128110871Y-115295796D01*
X128135289Y-115361260D01*
X128120438Y-115429533D01*
X128071033Y-115478939D01*
X128005028Y-115493933D01*
X127968657Y-115492001D01*
X127968628Y-115492000D01*
X127968622Y-115492000D01*
X126031378Y-115492000D01*
X126031370Y-115492000D01*
X126031347Y-115492001D01*
X125978756Y-115494795D01*
X125978755Y-115494795D01*
X125748878Y-115539254D01*
X125748876Y-115539254D01*
X125748874Y-115539255D01*
X125674933Y-115567159D01*
X125529810Y-115621925D01*
X125327868Y-115740429D01*
X125327861Y-115740434D01*
X125148858Y-115891356D01*
X125148856Y-115891358D01*
X124997934Y-116070361D01*
X124997929Y-116070368D01*
X124879425Y-116272310D01*
X124862036Y-116318390D01*
X124796755Y-116491374D01*
X124796754Y-116491376D01*
X124796754Y-116491378D01*
X124752295Y-116721255D01*
X124752295Y-116721256D01*
X124749501Y-116773847D01*
X124749500Y-116773886D01*
X124749500Y-118711113D01*
X124749501Y-118711152D01*
X124752295Y-118763743D01*
X124752295Y-118763744D01*
X124786539Y-118940803D01*
X124796755Y-118993626D01*
X124841536Y-119112287D01*
X124879425Y-119212689D01*
X124997929Y-119414631D01*
X124997934Y-119414638D01*
X125148856Y-119593641D01*
X125148858Y-119593643D01*
X125327861Y-119744565D01*
X125327868Y-119744570D01*
X125529810Y-119863074D01*
X125748874Y-119945745D01*
X125978759Y-119990205D01*
X126031378Y-119993000D01*
X126031386Y-119993000D01*
X127968614Y-119993000D01*
X127968622Y-119993000D01*
X128021241Y-119990205D01*
X128251126Y-119945745D01*
X128470190Y-119863074D01*
X128672132Y-119744570D01*
X128800255Y-119636546D01*
X128851141Y-119593643D01*
X128851143Y-119593641D01*
X129002065Y-119414638D01*
X129002065Y-119414637D01*
X129002070Y-119414632D01*
X129120574Y-119212690D01*
X129203245Y-118993626D01*
X129247705Y-118763741D01*
X129250500Y-118711122D01*
X129250500Y-116773878D01*
X129247705Y-116721259D01*
X129203245Y-116491374D01*
X129120574Y-116272310D01*
X129002070Y-116070368D01*
X129002065Y-116070361D01*
X128851143Y-115891358D01*
X128851141Y-115891356D01*
X128672138Y-115740434D01*
X128672131Y-115740429D01*
X128470189Y-115621925D01*
X128354795Y-115578378D01*
X128251126Y-115539255D01*
X128251121Y-115539254D01*
X128251116Y-115539252D01*
X128248470Y-115538740D01*
X128247451Y-115538213D01*
X128246050Y-115537817D01*
X128246130Y-115537531D01*
X128186392Y-115506677D01*
X128151503Y-115446141D01*
X128154881Y-115376353D01*
X128195452Y-115319470D01*
X128260337Y-115293552D01*
X128272009Y-115292999D01*
X131797872Y-115292999D01*
X131857483Y-115286591D01*
X131992331Y-115236296D01*
X132107546Y-115150046D01*
X132193796Y-115034831D01*
X132244091Y-114899983D01*
X132250500Y-114840373D01*
X132250499Y-113838496D01*
X132270183Y-113771458D01*
X132322987Y-113725703D01*
X132350305Y-113716880D01*
X132354328Y-113716080D01*
X132437546Y-113681610D01*
X132481807Y-113663277D01*
X132481808Y-113663276D01*
X132481811Y-113663275D01*
X132596543Y-113586614D01*
X141544114Y-104639043D01*
X141620775Y-104524311D01*
X141673580Y-104396828D01*
X141700500Y-104261494D01*
X141700500Y-104123506D01*
X141700500Y-94421153D01*
X142699500Y-94421153D01*
X142699500Y-94578846D01*
X142730261Y-94733489D01*
X142730264Y-94733501D01*
X142790602Y-94879172D01*
X142790609Y-94879185D01*
X142878210Y-95010288D01*
X142878213Y-95010292D01*
X142989707Y-95121786D01*
X142989711Y-95121789D01*
X143120814Y-95209390D01*
X143120827Y-95209397D01*
X143187031Y-95236819D01*
X143266503Y-95269737D01*
X143408062Y-95297895D01*
X143421153Y-95300499D01*
X143421156Y-95300500D01*
X143421158Y-95300500D01*
X143578844Y-95300500D01*
X143578845Y-95300499D01*
X143733497Y-95269737D01*
X143812969Y-95236819D01*
X143877864Y-95209939D01*
X143925316Y-95200500D01*
X144658481Y-95200500D01*
X144725520Y-95220185D01*
X144746162Y-95236819D01*
X144953928Y-95444585D01*
X144980808Y-95484814D01*
X145040602Y-95629172D01*
X145040609Y-95629185D01*
X145128210Y-95760288D01*
X145128213Y-95760292D01*
X145239707Y-95871786D01*
X145239711Y-95871789D01*
X145370814Y-95959390D01*
X145370827Y-95959397D01*
X145509424Y-96016805D01*
X145516503Y-96019737D01*
X145671153Y-96050499D01*
X145671156Y-96050500D01*
X145671158Y-96050500D01*
X145828844Y-96050500D01*
X145828845Y-96050499D01*
X145983497Y-96019737D01*
X146048049Y-95992998D01*
X146117516Y-95985530D01*
X146179995Y-96016805D01*
X146215648Y-96076894D01*
X146219500Y-96107560D01*
X146219500Y-114851006D01*
X146219500Y-114988994D01*
X146219500Y-114988996D01*
X146219499Y-114988996D01*
X146246418Y-115124322D01*
X146246421Y-115124332D01*
X146299222Y-115251807D01*
X146375887Y-115366545D01*
X146375888Y-115366546D01*
X146683194Y-115673851D01*
X146716679Y-115735174D01*
X146717986Y-115780929D01*
X146699500Y-115897647D01*
X146699500Y-116102351D01*
X146731522Y-116304534D01*
X146794781Y-116499223D01*
X146837079Y-116582236D01*
X146887585Y-116681359D01*
X146887715Y-116681613D01*
X147008028Y-116847213D01*
X147152786Y-116991971D01*
X147307749Y-117104556D01*
X147318390Y-117112287D01*
X147397864Y-117152781D01*
X147500776Y-117205218D01*
X147500778Y-117205218D01*
X147500781Y-117205220D01*
X147605137Y-117239127D01*
X147695465Y-117268477D01*
X147796557Y-117284488D01*
X147897648Y-117300500D01*
X147897649Y-117300500D01*
X148102351Y-117300500D01*
X148102352Y-117300500D01*
X148304534Y-117268477D01*
X148499219Y-117205220D01*
X148681610Y-117112287D01*
X148775644Y-117043968D01*
X148847213Y-116991971D01*
X148847215Y-116991968D01*
X148847219Y-116991966D01*
X148991966Y-116847219D01*
X148991968Y-116847215D01*
X148991971Y-116847213D01*
X149080093Y-116725921D01*
X149112287Y-116681610D01*
X149139795Y-116627621D01*
X149187769Y-116576826D01*
X149255589Y-116560030D01*
X149321725Y-116582567D01*
X149360765Y-116627621D01*
X149388141Y-116681350D01*
X149388147Y-116681359D01*
X149420523Y-116725921D01*
X149420524Y-116725922D01*
X150100000Y-116046446D01*
X150100000Y-116052661D01*
X150127259Y-116154394D01*
X150179920Y-116245606D01*
X150254394Y-116320080D01*
X150345606Y-116372741D01*
X150447339Y-116400000D01*
X150453553Y-116400000D01*
X149774076Y-117079474D01*
X149818650Y-117111859D01*
X150000968Y-117204755D01*
X150195582Y-117267990D01*
X150397683Y-117300000D01*
X150602317Y-117300000D01*
X150804417Y-117267990D01*
X150999031Y-117204755D01*
X151181349Y-117111859D01*
X151225921Y-117079474D01*
X150546447Y-116400000D01*
X150552661Y-116400000D01*
X150654394Y-116372741D01*
X150745606Y-116320080D01*
X150820080Y-116245606D01*
X150872741Y-116154394D01*
X150900000Y-116052661D01*
X150900000Y-116046447D01*
X151579474Y-116725921D01*
X151611859Y-116681349D01*
X151704755Y-116499029D01*
X151736938Y-116399983D01*
X158889500Y-116399983D01*
X158889500Y-117600001D01*
X158889501Y-117600018D01*
X158900000Y-117702796D01*
X158900001Y-117702799D01*
X158913129Y-117742415D01*
X158955186Y-117869334D01*
X159047288Y-118018656D01*
X159171344Y-118142712D01*
X159320666Y-118234814D01*
X159487203Y-118289999D01*
X159589991Y-118300500D01*
X160790008Y-118300499D01*
X160892797Y-118289999D01*
X161059334Y-118234814D01*
X161208656Y-118142712D01*
X161332712Y-118018656D01*
X161424814Y-117869334D01*
X161479999Y-117702797D01*
X161490500Y-117600009D01*
X161490499Y-116399992D01*
X161479999Y-116297203D01*
X161424814Y-116130666D01*
X161332712Y-115981344D01*
X161208656Y-115857288D01*
X161208655Y-115857287D01*
X161139402Y-115814571D01*
X161092678Y-115762623D01*
X161080500Y-115709033D01*
X161080500Y-112897648D01*
X175699500Y-112897648D01*
X175699500Y-113102351D01*
X175731522Y-113304534D01*
X175794781Y-113499223D01*
X175887715Y-113681613D01*
X176008028Y-113847213D01*
X176152786Y-113991971D01*
X176307749Y-114104556D01*
X176318390Y-114112287D01*
X176434607Y-114171503D01*
X176500776Y-114205218D01*
X176500778Y-114205218D01*
X176500781Y-114205220D01*
X176593952Y-114235493D01*
X176695465Y-114268477D01*
X176796557Y-114284488D01*
X176897648Y-114300500D01*
X176897649Y-114300500D01*
X177102351Y-114300500D01*
X177102352Y-114300500D01*
X177304534Y-114268477D01*
X177499219Y-114205220D01*
X177681610Y-114112287D01*
X177774590Y-114044732D01*
X177847213Y-113991971D01*
X177847215Y-113991968D01*
X177847219Y-113991966D01*
X177991966Y-113847219D01*
X177991968Y-113847215D01*
X177991971Y-113847213D01*
X178072238Y-113736733D01*
X178112287Y-113681610D01*
X178205220Y-113499219D01*
X178268477Y-113304534D01*
X178300500Y-113102352D01*
X178300500Y-112897648D01*
X178268477Y-112695466D01*
X178205220Y-112500781D01*
X178205218Y-112500778D01*
X178205218Y-112500776D01*
X178171503Y-112434607D01*
X178112287Y-112318390D01*
X178104556Y-112307749D01*
X177991971Y-112152786D01*
X177847213Y-112008028D01*
X177681613Y-111887715D01*
X177681612Y-111887714D01*
X177681610Y-111887713D01*
X177600072Y-111846167D01*
X177499223Y-111794781D01*
X177304534Y-111731522D01*
X177129995Y-111703878D01*
X177102352Y-111699500D01*
X176897648Y-111699500D01*
X176873329Y-111703351D01*
X176695465Y-111731522D01*
X176500776Y-111794781D01*
X176318386Y-111887715D01*
X176152786Y-112008028D01*
X176008028Y-112152786D01*
X175887715Y-112318386D01*
X175794781Y-112500776D01*
X175731522Y-112695465D01*
X175699500Y-112897648D01*
X161080500Y-112897648D01*
X161080500Y-110161744D01*
X161100185Y-110094705D01*
X161131615Y-110061426D01*
X161227215Y-109991969D01*
X161227215Y-109991968D01*
X161227219Y-109991966D01*
X161371966Y-109847219D01*
X161371968Y-109847215D01*
X161371971Y-109847213D01*
X161476892Y-109702799D01*
X161492287Y-109681610D01*
X161585220Y-109499219D01*
X161648477Y-109304534D01*
X161680500Y-109102352D01*
X161680500Y-108897648D01*
X161662013Y-108780929D01*
X161670967Y-108711636D01*
X161696802Y-108673853D01*
X163013838Y-107356819D01*
X163075161Y-107323334D01*
X163101519Y-107320500D01*
X172999699Y-107320500D01*
X173066738Y-107340185D01*
X173112493Y-107392989D01*
X173117403Y-107405492D01*
X173131029Y-107446611D01*
X173145185Y-107489331D01*
X173145187Y-107489336D01*
X173153114Y-107502187D01*
X173237288Y-107638656D01*
X173361344Y-107762712D01*
X173510666Y-107854814D01*
X173677203Y-107909999D01*
X173779991Y-107920500D01*
X174638480Y-107920499D01*
X174667926Y-107929145D01*
X174697907Y-107935667D01*
X174702920Y-107939419D01*
X174705519Y-107940183D01*
X174726161Y-107956818D01*
X174877162Y-108107819D01*
X174910647Y-108169142D01*
X174905663Y-108238834D01*
X174863791Y-108294767D01*
X174798327Y-108319184D01*
X174789481Y-108319500D01*
X169386928Y-108319500D01*
X169319889Y-108299815D01*
X169274134Y-108247011D01*
X169269225Y-108234513D01*
X169234814Y-108130666D01*
X169142712Y-107981344D01*
X169018656Y-107857288D01*
X168905740Y-107787641D01*
X168869336Y-107765187D01*
X168869331Y-107765185D01*
X168861862Y-107762710D01*
X168702797Y-107710001D01*
X168702795Y-107710000D01*
X168600010Y-107699500D01*
X167399998Y-107699500D01*
X167399981Y-107699501D01*
X167297203Y-107710000D01*
X167297200Y-107710001D01*
X167130668Y-107765185D01*
X167130663Y-107765187D01*
X166981342Y-107857289D01*
X166857289Y-107981342D01*
X166765187Y-108130663D01*
X166765185Y-108130668D01*
X166752436Y-108169142D01*
X166710001Y-108297203D01*
X166710001Y-108297204D01*
X166710000Y-108297204D01*
X166699500Y-108399983D01*
X166699500Y-109600001D01*
X166699501Y-109600018D01*
X166710000Y-109702796D01*
X166710001Y-109702799D01*
X166731689Y-109768247D01*
X166765186Y-109869334D01*
X166857288Y-110018656D01*
X166981344Y-110142712D01*
X167130666Y-110234814D01*
X167297203Y-110289999D01*
X167399991Y-110300500D01*
X168600008Y-110300499D01*
X168702797Y-110289999D01*
X168869334Y-110234814D01*
X169018656Y-110142712D01*
X169142712Y-110018656D01*
X169234814Y-109869334D01*
X169255968Y-109805494D01*
X169295741Y-109748051D01*
X169360257Y-109721228D01*
X169373674Y-109720500D01*
X179738380Y-109720500D01*
X179805419Y-109740185D01*
X179826061Y-109756819D01*
X186651478Y-116582236D01*
X186684963Y-116643559D01*
X186679979Y-116713251D01*
X186638107Y-116769184D01*
X186602117Y-116787847D01*
X186580780Y-116794779D01*
X186398386Y-116887715D01*
X186232786Y-117008028D01*
X186088028Y-117152786D01*
X185967715Y-117318386D01*
X185874781Y-117500776D01*
X185811522Y-117695465D01*
X185783984Y-117869336D01*
X185779500Y-117897648D01*
X185779500Y-118102352D01*
X185788907Y-118161744D01*
X185797986Y-118219068D01*
X185789031Y-118288362D01*
X185763194Y-118326147D01*
X185426160Y-118663182D01*
X185364839Y-118696666D01*
X185338481Y-118699500D01*
X178225522Y-118699500D01*
X178158483Y-118679815D01*
X178112728Y-118627011D01*
X178102784Y-118557853D01*
X178115037Y-118519206D01*
X178125217Y-118499226D01*
X178125217Y-118499222D01*
X178125220Y-118499219D01*
X178188477Y-118304534D01*
X178220500Y-118102352D01*
X178220500Y-117897648D01*
X178192433Y-117720444D01*
X178188477Y-117695465D01*
X178125218Y-117500776D01*
X178091503Y-117434607D01*
X178032287Y-117318390D01*
X178018563Y-117299500D01*
X177911971Y-117152786D01*
X177767213Y-117008028D01*
X177601613Y-116887715D01*
X177601612Y-116887714D01*
X177601610Y-116887713D01*
X177544653Y-116858691D01*
X177419223Y-116794781D01*
X177224534Y-116731522D01*
X177049995Y-116703878D01*
X177022352Y-116699500D01*
X176817648Y-116699500D01*
X176793329Y-116703351D01*
X176615465Y-116731522D01*
X176420776Y-116794781D01*
X176238386Y-116887715D01*
X176072786Y-117008028D01*
X175928028Y-117152786D01*
X175807715Y-117318386D01*
X175714781Y-117500776D01*
X175651522Y-117695465D01*
X175619500Y-117897648D01*
X175619500Y-118102351D01*
X175651522Y-118304534D01*
X175714782Y-118499226D01*
X175724963Y-118519206D01*
X175737859Y-118587875D01*
X175711582Y-118652616D01*
X175654475Y-118692872D01*
X175614478Y-118699500D01*
X172531003Y-118699500D01*
X172429568Y-118719676D01*
X172429558Y-118719679D01*
X172422591Y-118721065D01*
X172395671Y-118726420D01*
X172355644Y-118743000D01*
X172350964Y-118744938D01*
X172350956Y-118744941D01*
X172268193Y-118779222D01*
X172268192Y-118779223D01*
X172166430Y-118847219D01*
X172166426Y-118847222D01*
X172153457Y-118855886D01*
X161889201Y-129120140D01*
X161827878Y-129153625D01*
X161758186Y-129148641D01*
X161754079Y-129147024D01*
X161700499Y-129124831D01*
X161644428Y-129101605D01*
X161644421Y-129101603D01*
X161644419Y-129101602D01*
X161391116Y-129033730D01*
X161333339Y-129026123D01*
X161131127Y-128999500D01*
X161131120Y-128999500D01*
X160868880Y-128999500D01*
X160868872Y-128999500D01*
X160637772Y-129029926D01*
X160608884Y-129033730D01*
X160355581Y-129101602D01*
X160355571Y-129101605D01*
X160113309Y-129201953D01*
X160113299Y-129201958D01*
X159886196Y-129333075D01*
X159678148Y-129492718D01*
X159492718Y-129678148D01*
X159333075Y-129886196D01*
X159201958Y-130113299D01*
X159201953Y-130113309D01*
X159101605Y-130355571D01*
X159101602Y-130355581D01*
X159037155Y-130596104D01*
X159033730Y-130608885D01*
X158999500Y-130868872D01*
X158999500Y-131131127D01*
X159026123Y-131333339D01*
X159033730Y-131391116D01*
X159082841Y-131574401D01*
X159101602Y-131644418D01*
X159101605Y-131644428D01*
X159201953Y-131886690D01*
X159201958Y-131886700D01*
X159333075Y-132113803D01*
X159492718Y-132321851D01*
X159492726Y-132321860D01*
X159678140Y-132507274D01*
X159678148Y-132507281D01*
X159886196Y-132666924D01*
X160113299Y-132798041D01*
X160113309Y-132798046D01*
X160355571Y-132898394D01*
X160355581Y-132898398D01*
X160608884Y-132966270D01*
X160857188Y-132998960D01*
X160868864Y-133000498D01*
X160868880Y-133000500D01*
X160868887Y-133000500D01*
X161131113Y-133000500D01*
X161131120Y-133000500D01*
X161391116Y-132966270D01*
X161644419Y-132898398D01*
X161886697Y-132798043D01*
X162113803Y-132666924D01*
X162321851Y-132507282D01*
X162321855Y-132507277D01*
X162321860Y-132507274D01*
X162507274Y-132321860D01*
X162507277Y-132321855D01*
X162507282Y-132321851D01*
X162666924Y-132113803D01*
X162798043Y-131886697D01*
X162898398Y-131644419D01*
X162966270Y-131391116D01*
X163000500Y-131131120D01*
X163000500Y-130868880D01*
X163000499Y-130868872D01*
X163999500Y-130868872D01*
X163999500Y-131131127D01*
X164026123Y-131333339D01*
X164033730Y-131391116D01*
X164082841Y-131574401D01*
X164101602Y-131644418D01*
X164101605Y-131644428D01*
X164201953Y-131886690D01*
X164201958Y-131886700D01*
X164333075Y-132113803D01*
X164492718Y-132321851D01*
X164492726Y-132321860D01*
X164678140Y-132507274D01*
X164678148Y-132507281D01*
X164886196Y-132666924D01*
X165113299Y-132798041D01*
X165113309Y-132798046D01*
X165355571Y-132898394D01*
X165355581Y-132898398D01*
X165608884Y-132966270D01*
X165857188Y-132998960D01*
X165868864Y-133000498D01*
X165868880Y-133000500D01*
X165868887Y-133000500D01*
X166131113Y-133000500D01*
X166131120Y-133000500D01*
X166391116Y-132966270D01*
X166644419Y-132898398D01*
X166886697Y-132798043D01*
X167113803Y-132666924D01*
X167321851Y-132507282D01*
X167321855Y-132507277D01*
X167321860Y-132507274D01*
X167507274Y-132321860D01*
X167507277Y-132321855D01*
X167507282Y-132321851D01*
X167666924Y-132113803D01*
X167798043Y-131886697D01*
X167898398Y-131644419D01*
X167966270Y-131391116D01*
X168000500Y-131131120D01*
X168000500Y-130868880D01*
X167966270Y-130608884D01*
X167898398Y-130355581D01*
X167843372Y-130222736D01*
X167798046Y-130113309D01*
X167798041Y-130113299D01*
X167666924Y-129886196D01*
X167507281Y-129678148D01*
X167507274Y-129678140D01*
X167321860Y-129492726D01*
X167321851Y-129492718D01*
X167113803Y-129333075D01*
X166886700Y-129201958D01*
X166886690Y-129201953D01*
X166644428Y-129101605D01*
X166644421Y-129101603D01*
X166644419Y-129101602D01*
X166391116Y-129033730D01*
X166333339Y-129026123D01*
X166131127Y-128999500D01*
X166131120Y-128999500D01*
X165868880Y-128999500D01*
X165868872Y-128999500D01*
X165637772Y-129029926D01*
X165608884Y-129033730D01*
X165355581Y-129101602D01*
X165355571Y-129101605D01*
X165113309Y-129201953D01*
X165113299Y-129201958D01*
X164886196Y-129333075D01*
X164678148Y-129492718D01*
X164492718Y-129678148D01*
X164333075Y-129886196D01*
X164201958Y-130113299D01*
X164201953Y-130113309D01*
X164101605Y-130355571D01*
X164101602Y-130355581D01*
X164037155Y-130596104D01*
X164033730Y-130608885D01*
X163999500Y-130868872D01*
X163000499Y-130868872D01*
X162966270Y-130608884D01*
X162898398Y-130355581D01*
X162852977Y-130245927D01*
X162845509Y-130176462D01*
X162876783Y-130113983D01*
X162879830Y-130110825D01*
X172853837Y-120136819D01*
X172915160Y-120103334D01*
X172941518Y-120100500D01*
X185748996Y-120100500D01*
X185840040Y-120082389D01*
X185884328Y-120073580D01*
X185948069Y-120047177D01*
X186011807Y-120020777D01*
X186011808Y-120020776D01*
X186011811Y-120020775D01*
X186126543Y-119944114D01*
X186753851Y-119316804D01*
X186815174Y-119283320D01*
X186860930Y-119282013D01*
X186977648Y-119300500D01*
X186977649Y-119300500D01*
X187182351Y-119300500D01*
X187182352Y-119300500D01*
X187384534Y-119268477D01*
X187579219Y-119205220D01*
X187599202Y-119195037D01*
X187667871Y-119182140D01*
X187732612Y-119208414D01*
X187772871Y-119265520D01*
X187779500Y-119305521D01*
X187779500Y-127178480D01*
X187759815Y-127245519D01*
X187743181Y-127266161D01*
X186046161Y-128963181D01*
X185984838Y-128996666D01*
X185958480Y-128999500D01*
X183452129Y-128999500D01*
X183452123Y-128999501D01*
X183392516Y-129005908D01*
X183257671Y-129056202D01*
X183257664Y-129056206D01*
X183142455Y-129142452D01*
X183142452Y-129142455D01*
X183056206Y-129257664D01*
X183056202Y-129257671D01*
X183005908Y-129392517D01*
X182999501Y-129452116D01*
X182999500Y-129452135D01*
X182999500Y-132547870D01*
X182999501Y-132547876D01*
X183005908Y-132607483D01*
X183056202Y-132742328D01*
X183056206Y-132742335D01*
X183142452Y-132857544D01*
X183142455Y-132857547D01*
X183257664Y-132943793D01*
X183257671Y-132943797D01*
X183392517Y-132994091D01*
X183392516Y-132994091D01*
X183399444Y-132994835D01*
X183452127Y-133000500D01*
X186547872Y-133000499D01*
X186607483Y-132994091D01*
X186742331Y-132943796D01*
X186857546Y-132857546D01*
X186943796Y-132742331D01*
X186994091Y-132607483D01*
X187000500Y-132547873D01*
X187000499Y-130041518D01*
X187020184Y-129974480D01*
X187036818Y-129953838D01*
X188020946Y-128969711D01*
X189024114Y-127966543D01*
X189072398Y-127894279D01*
X189126009Y-127849476D01*
X189195334Y-127840768D01*
X189258362Y-127870922D01*
X189295081Y-127930364D01*
X189299500Y-127963171D01*
X189299500Y-129041976D01*
X189279815Y-129109015D01*
X189227011Y-129154770D01*
X189222954Y-129156537D01*
X189113304Y-129201956D01*
X189113299Y-129201958D01*
X188886196Y-129333075D01*
X188678148Y-129492718D01*
X188492718Y-129678148D01*
X188333075Y-129886196D01*
X188201958Y-130113299D01*
X188201953Y-130113309D01*
X188101605Y-130355571D01*
X188101602Y-130355581D01*
X188037155Y-130596104D01*
X188033730Y-130608885D01*
X187999500Y-130868872D01*
X187999500Y-131131127D01*
X188026123Y-131333339D01*
X188033730Y-131391116D01*
X188082841Y-131574401D01*
X188101602Y-131644418D01*
X188101605Y-131644428D01*
X188201953Y-131886690D01*
X188201958Y-131886700D01*
X188333075Y-132113803D01*
X188492718Y-132321851D01*
X188492726Y-132321860D01*
X188678140Y-132507274D01*
X188678148Y-132507281D01*
X188886196Y-132666924D01*
X189113299Y-132798041D01*
X189113309Y-132798046D01*
X189355571Y-132898394D01*
X189355581Y-132898398D01*
X189608884Y-132966270D01*
X189857188Y-132998960D01*
X189868864Y-133000498D01*
X189868880Y-133000500D01*
X189868887Y-133000500D01*
X190131113Y-133000500D01*
X190131120Y-133000500D01*
X190391116Y-132966270D01*
X190644419Y-132898398D01*
X190886697Y-132798043D01*
X191113803Y-132666924D01*
X191321851Y-132507282D01*
X191321855Y-132507277D01*
X191321860Y-132507274D01*
X191507274Y-132321860D01*
X191507277Y-132321855D01*
X191507282Y-132321851D01*
X191666924Y-132113803D01*
X191798043Y-131886697D01*
X191898398Y-131644419D01*
X191966270Y-131391116D01*
X192000500Y-131131120D01*
X192000500Y-130868880D01*
X192000499Y-130868872D01*
X192999500Y-130868872D01*
X192999500Y-131131127D01*
X193026123Y-131333339D01*
X193033730Y-131391116D01*
X193082841Y-131574401D01*
X193101602Y-131644418D01*
X193101605Y-131644428D01*
X193201953Y-131886690D01*
X193201958Y-131886700D01*
X193333075Y-132113803D01*
X193492718Y-132321851D01*
X193492726Y-132321860D01*
X193678140Y-132507274D01*
X193678148Y-132507281D01*
X193886196Y-132666924D01*
X194113299Y-132798041D01*
X194113309Y-132798046D01*
X194355571Y-132898394D01*
X194355581Y-132898398D01*
X194608884Y-132966270D01*
X194857188Y-132998960D01*
X194868864Y-133000498D01*
X194868880Y-133000500D01*
X194868887Y-133000500D01*
X195131113Y-133000500D01*
X195131120Y-133000500D01*
X195391116Y-132966270D01*
X195644419Y-132898398D01*
X195886697Y-132798043D01*
X196113803Y-132666924D01*
X196321851Y-132507282D01*
X196321855Y-132507277D01*
X196321860Y-132507274D01*
X196507274Y-132321860D01*
X196507277Y-132321855D01*
X196507282Y-132321851D01*
X196666924Y-132113803D01*
X196798043Y-131886697D01*
X196898398Y-131644419D01*
X196966270Y-131391116D01*
X197000500Y-131131120D01*
X197000500Y-130868880D01*
X196966270Y-130608884D01*
X196898398Y-130355581D01*
X196843372Y-130222736D01*
X196798046Y-130113309D01*
X196798041Y-130113299D01*
X196696055Y-129936653D01*
X196666924Y-129886196D01*
X196661180Y-129878711D01*
X206149500Y-129878711D01*
X206149500Y-130121288D01*
X206181161Y-130361785D01*
X206243947Y-130596104D01*
X206271750Y-130663226D01*
X206336776Y-130820212D01*
X206458064Y-131030289D01*
X206458066Y-131030292D01*
X206458067Y-131030293D01*
X206605733Y-131222736D01*
X206605739Y-131222743D01*
X206777256Y-131394260D01*
X206777262Y-131394265D01*
X206969711Y-131541936D01*
X207179788Y-131663224D01*
X207403900Y-131756054D01*
X207638211Y-131818838D01*
X207818586Y-131842584D01*
X207878711Y-131850500D01*
X207878712Y-131850500D01*
X208121289Y-131850500D01*
X208169388Y-131844167D01*
X208361789Y-131818838D01*
X208596100Y-131756054D01*
X208820212Y-131663224D01*
X209030289Y-131541936D01*
X209222738Y-131394265D01*
X209394265Y-131222738D01*
X209541936Y-131030289D01*
X209663224Y-130820212D01*
X209756054Y-130596100D01*
X209818838Y-130361789D01*
X209850500Y-130121288D01*
X209850500Y-129878712D01*
X209818838Y-129638211D01*
X209756054Y-129403900D01*
X209663224Y-129179788D01*
X209541936Y-128969711D01*
X209394265Y-128777262D01*
X209394260Y-128777256D01*
X209222743Y-128605739D01*
X209222736Y-128605733D01*
X209030293Y-128458067D01*
X209030292Y-128458066D01*
X209030289Y-128458064D01*
X208820212Y-128336776D01*
X208820205Y-128336773D01*
X208596104Y-128243947D01*
X208361785Y-128181161D01*
X208121289Y-128149500D01*
X208121288Y-128149500D01*
X207878712Y-128149500D01*
X207878711Y-128149500D01*
X207638214Y-128181161D01*
X207403895Y-128243947D01*
X207179794Y-128336773D01*
X207179785Y-128336777D01*
X206969706Y-128458067D01*
X206777263Y-128605733D01*
X206777256Y-128605739D01*
X206605739Y-128777256D01*
X206605733Y-128777263D01*
X206458067Y-128969706D01*
X206336777Y-129179785D01*
X206336773Y-129179794D01*
X206243947Y-129403895D01*
X206181161Y-129638214D01*
X206149500Y-129878711D01*
X196661180Y-129878711D01*
X196507281Y-129678148D01*
X196507274Y-129678140D01*
X196321860Y-129492726D01*
X196321851Y-129492718D01*
X196113803Y-129333075D01*
X195886700Y-129201958D01*
X195886690Y-129201953D01*
X195644428Y-129101605D01*
X195644421Y-129101603D01*
X195644419Y-129101602D01*
X195391116Y-129033730D01*
X195333339Y-129026123D01*
X195131127Y-128999500D01*
X195131120Y-128999500D01*
X194868880Y-128999500D01*
X194868872Y-128999500D01*
X194637772Y-129029926D01*
X194608884Y-129033730D01*
X194355581Y-129101602D01*
X194355571Y-129101605D01*
X194113309Y-129201953D01*
X194113299Y-129201958D01*
X193886196Y-129333075D01*
X193678148Y-129492718D01*
X193492718Y-129678148D01*
X193333075Y-129886196D01*
X193201958Y-130113299D01*
X193201953Y-130113309D01*
X193101605Y-130355571D01*
X193101602Y-130355581D01*
X193037155Y-130596104D01*
X193033730Y-130608885D01*
X192999500Y-130868872D01*
X192000499Y-130868872D01*
X191966270Y-130608884D01*
X191898398Y-130355581D01*
X191843372Y-130222736D01*
X191798046Y-130113309D01*
X191798041Y-130113299D01*
X191666924Y-129886196D01*
X191507281Y-129678148D01*
X191507274Y-129678140D01*
X191321860Y-129492726D01*
X191321851Y-129492718D01*
X191113803Y-129333075D01*
X190886700Y-129201958D01*
X190886695Y-129201956D01*
X190777046Y-129156537D01*
X190722643Y-129112695D01*
X190700579Y-129046401D01*
X190700500Y-129041976D01*
X190700500Y-119989818D01*
X206600000Y-119989818D01*
X206600000Y-120210181D01*
X206634473Y-120427835D01*
X206702567Y-120637410D01*
X206802611Y-120833756D01*
X206848932Y-120897513D01*
X207284152Y-120462292D01*
X207291049Y-120478942D01*
X207378599Y-120609970D01*
X207490030Y-120721401D01*
X207621058Y-120808951D01*
X207637705Y-120815846D01*
X207202485Y-121251065D01*
X207202485Y-121251066D01*
X207266243Y-121297388D01*
X207462589Y-121397432D01*
X207672164Y-121465526D01*
X207889819Y-121500000D01*
X208110181Y-121500000D01*
X208327835Y-121465526D01*
X208537410Y-121397432D01*
X208733760Y-121297386D01*
X208797513Y-121251066D01*
X208797514Y-121251066D01*
X208362294Y-120815846D01*
X208378942Y-120808951D01*
X208509970Y-120721401D01*
X208621401Y-120609970D01*
X208708951Y-120478942D01*
X208715846Y-120462294D01*
X209151066Y-120897514D01*
X209151066Y-120897513D01*
X209197386Y-120833760D01*
X209297432Y-120637410D01*
X209365526Y-120427835D01*
X209400000Y-120210181D01*
X209400000Y-119989818D01*
X209365526Y-119772164D01*
X209297432Y-119562589D01*
X209197388Y-119366243D01*
X209151065Y-119302485D01*
X208715846Y-119737704D01*
X208708951Y-119721058D01*
X208621401Y-119590030D01*
X208509970Y-119478599D01*
X208378942Y-119391049D01*
X208362292Y-119384152D01*
X208797513Y-118948932D01*
X208733756Y-118902611D01*
X208537410Y-118802567D01*
X208327835Y-118734473D01*
X208110181Y-118700000D01*
X207889819Y-118700000D01*
X207672164Y-118734473D01*
X207462589Y-118802567D01*
X207266233Y-118902616D01*
X207202485Y-118948931D01*
X207202485Y-118948932D01*
X207637706Y-119384153D01*
X207621058Y-119391049D01*
X207490030Y-119478599D01*
X207378599Y-119590030D01*
X207291049Y-119721058D01*
X207284153Y-119737706D01*
X206848932Y-119302485D01*
X206848931Y-119302485D01*
X206802616Y-119366233D01*
X206702567Y-119562589D01*
X206634473Y-119772164D01*
X206600000Y-119989818D01*
X190700500Y-119989818D01*
X190700500Y-115771004D01*
X190673581Y-115635677D01*
X190673580Y-115635676D01*
X190673580Y-115635672D01*
X190633643Y-115539255D01*
X190620776Y-115508191D01*
X190620775Y-115508189D01*
X190565835Y-115425965D01*
X190544114Y-115393457D01*
X190544112Y-115393455D01*
X190544110Y-115393452D01*
X188476805Y-113326148D01*
X188443320Y-113264825D01*
X188442013Y-113219068D01*
X188460500Y-113102349D01*
X188460500Y-112897648D01*
X188428477Y-112695465D01*
X188365218Y-112500776D01*
X188331503Y-112434607D01*
X188272287Y-112318390D01*
X188264556Y-112307749D01*
X188151971Y-112152786D01*
X188007213Y-112008028D01*
X187841613Y-111887715D01*
X187841612Y-111887714D01*
X187841610Y-111887713D01*
X187760072Y-111846167D01*
X187659223Y-111794781D01*
X187464534Y-111731522D01*
X187289995Y-111703878D01*
X187262352Y-111699500D01*
X187057648Y-111699500D01*
X187033329Y-111703351D01*
X186855465Y-111731522D01*
X186660776Y-111794781D01*
X186478386Y-111887715D01*
X186312786Y-112008028D01*
X186168028Y-112152786D01*
X186047715Y-112318386D01*
X185954781Y-112500776D01*
X185891522Y-112695465D01*
X185859500Y-112897648D01*
X185859500Y-113102351D01*
X185891522Y-113304534D01*
X185954781Y-113499223D01*
X186020084Y-113627385D01*
X186032980Y-113696054D01*
X186006704Y-113760795D01*
X185949597Y-113801052D01*
X185879792Y-113804044D01*
X185821918Y-113771361D01*
X180982737Y-108932181D01*
X180949252Y-108870858D01*
X180954236Y-108801166D01*
X180996108Y-108745233D01*
X181061572Y-108720816D01*
X181070418Y-108720500D01*
X195427538Y-108720500D01*
X195494577Y-108740185D01*
X195533075Y-108779401D01*
X195557288Y-108818656D01*
X195681344Y-108942712D01*
X195830666Y-109034814D01*
X195997203Y-109089999D01*
X196099991Y-109100500D01*
X196900008Y-109100499D01*
X196900016Y-109100498D01*
X196900019Y-109100498D01*
X196956302Y-109094748D01*
X197002797Y-109089999D01*
X197169334Y-109034814D01*
X197318656Y-108942712D01*
X197442712Y-108818656D01*
X197534814Y-108669334D01*
X197554167Y-108610930D01*
X197584191Y-108562254D01*
X198146446Y-108000000D01*
X198146446Y-107999999D01*
X197584190Y-107437743D01*
X197554166Y-107389066D01*
X197534814Y-107330666D01*
X197442712Y-107181344D01*
X197318656Y-107057288D01*
X197169334Y-106965186D01*
X197002797Y-106910001D01*
X197002795Y-106910000D01*
X196900010Y-106899500D01*
X196099998Y-106899500D01*
X196099980Y-106899501D01*
X195997203Y-106910000D01*
X195997200Y-106910001D01*
X195830668Y-106965185D01*
X195830663Y-106965187D01*
X195681342Y-107057289D01*
X195557289Y-107181342D01*
X195557288Y-107181344D01*
X195516785Y-107247011D01*
X195508405Y-107260597D01*
X195456457Y-107307321D01*
X195402866Y-107319500D01*
X190924961Y-107319500D01*
X190857922Y-107299815D01*
X190812167Y-107247011D01*
X190802223Y-107177853D01*
X190814476Y-107139205D01*
X190824755Y-107119031D01*
X190887990Y-106924417D01*
X190920000Y-106722317D01*
X190920000Y-106517682D01*
X190887990Y-106315582D01*
X190824755Y-106120968D01*
X190731859Y-105938650D01*
X190699474Y-105894077D01*
X190699474Y-105894076D01*
X190020000Y-106573551D01*
X190020000Y-106567339D01*
X189992741Y-106465606D01*
X189940080Y-106374394D01*
X189865606Y-106299920D01*
X189774394Y-106247259D01*
X189672661Y-106220000D01*
X189666446Y-106220000D01*
X190345922Y-105540524D01*
X190345921Y-105540523D01*
X190301359Y-105508147D01*
X190301350Y-105508141D01*
X190119031Y-105415244D01*
X189924417Y-105352009D01*
X189722317Y-105320000D01*
X189517683Y-105320000D01*
X189315582Y-105352009D01*
X189120968Y-105415244D01*
X188938644Y-105508143D01*
X188894077Y-105540523D01*
X188894077Y-105540524D01*
X189573554Y-106220000D01*
X189567339Y-106220000D01*
X189465606Y-106247259D01*
X189374394Y-106299920D01*
X189299920Y-106374394D01*
X189247259Y-106465606D01*
X189220000Y-106567339D01*
X189220000Y-106573553D01*
X188540524Y-105894077D01*
X188540523Y-105894077D01*
X188508143Y-105938644D01*
X188460765Y-106031630D01*
X188412790Y-106082426D01*
X188344969Y-106099221D01*
X188278834Y-106076683D01*
X188239795Y-106031630D01*
X188231618Y-106015581D01*
X188192287Y-105938390D01*
X188192285Y-105938387D01*
X188192284Y-105938385D01*
X188071971Y-105772786D01*
X187927213Y-105628028D01*
X187761613Y-105507715D01*
X187761612Y-105507714D01*
X187761610Y-105507713D01*
X187701898Y-105477288D01*
X187579223Y-105414781D01*
X187384534Y-105351522D01*
X187209995Y-105323878D01*
X187182352Y-105319500D01*
X186977648Y-105319500D01*
X186953329Y-105323351D01*
X186775465Y-105351522D01*
X186623759Y-105400815D01*
X186580781Y-105414780D01*
X186580778Y-105414781D01*
X186580776Y-105414782D01*
X186452614Y-105480084D01*
X186383944Y-105492980D01*
X186319204Y-105466704D01*
X186278947Y-105409597D01*
X186275955Y-105339791D01*
X186308638Y-105281918D01*
X190217908Y-101372648D01*
X195464500Y-101372648D01*
X195464500Y-101577351D01*
X195496522Y-101779534D01*
X195559781Y-101974223D01*
X195652715Y-102156613D01*
X195773028Y-102322213D01*
X195917786Y-102466971D01*
X196072749Y-102579556D01*
X196083390Y-102587287D01*
X196199182Y-102646286D01*
X196265776Y-102680218D01*
X196265778Y-102680218D01*
X196265781Y-102680220D01*
X196370137Y-102714127D01*
X196460465Y-102743477D01*
X196561557Y-102759488D01*
X196662648Y-102775500D01*
X196662649Y-102775500D01*
X196867351Y-102775500D01*
X196867352Y-102775500D01*
X197069534Y-102743477D01*
X197264219Y-102680220D01*
X197446610Y-102587287D01*
X197539590Y-102519732D01*
X197612213Y-102466971D01*
X197612215Y-102466968D01*
X197612219Y-102466966D01*
X197756966Y-102322219D01*
X197756968Y-102322215D01*
X197756971Y-102322213D01*
X197828502Y-102223757D01*
X197877287Y-102156610D01*
X197970220Y-101974219D01*
X198033477Y-101779534D01*
X198065500Y-101577352D01*
X198065500Y-101372648D01*
X198033477Y-101170466D01*
X198029918Y-101159514D01*
X197987872Y-101030109D01*
X197970220Y-100975781D01*
X197970218Y-100975778D01*
X197970218Y-100975776D01*
X197921308Y-100879786D01*
X197877287Y-100793390D01*
X197869556Y-100782749D01*
X197756971Y-100627786D01*
X197612213Y-100483028D01*
X197446613Y-100362715D01*
X197446612Y-100362714D01*
X197446610Y-100362713D01*
X197334365Y-100305521D01*
X197264223Y-100269781D01*
X197069534Y-100206522D01*
X196894995Y-100178878D01*
X196867352Y-100174500D01*
X196662648Y-100174500D01*
X196638329Y-100178351D01*
X196460465Y-100206522D01*
X196265776Y-100269781D01*
X196083386Y-100362715D01*
X195917786Y-100483028D01*
X195773028Y-100627786D01*
X195652715Y-100793386D01*
X195559781Y-100975776D01*
X195496522Y-101170465D01*
X195464500Y-101372648D01*
X190217908Y-101372648D01*
X190310461Y-101280095D01*
X199007819Y-92582736D01*
X199069142Y-92549251D01*
X199138834Y-92554235D01*
X199194767Y-92596107D01*
X199219184Y-92661571D01*
X199219500Y-92670417D01*
X199219500Y-106929695D01*
X199199815Y-106996734D01*
X199147011Y-107042489D01*
X199077853Y-107052433D01*
X199039205Y-107040180D01*
X198922257Y-106980591D01*
X198757584Y-106927085D01*
X198586571Y-106900000D01*
X198413429Y-106900000D01*
X198242415Y-106927085D01*
X198077740Y-106980592D01*
X197923480Y-107059193D01*
X197923463Y-107059203D01*
X197917261Y-107063708D01*
X197917261Y-107063709D01*
X198558697Y-107705145D01*
X198539496Y-107700000D01*
X198460504Y-107700000D01*
X198384204Y-107720444D01*
X198315795Y-107759940D01*
X198259940Y-107815795D01*
X198220444Y-107884204D01*
X198200000Y-107960504D01*
X198200000Y-108039496D01*
X198220444Y-108115796D01*
X198259940Y-108184205D01*
X198315795Y-108240060D01*
X198384204Y-108279556D01*
X198460504Y-108300000D01*
X198539496Y-108300000D01*
X198558696Y-108294855D01*
X197917261Y-108936289D01*
X197917262Y-108936290D01*
X197923471Y-108940801D01*
X198077742Y-109019408D01*
X198242415Y-109072914D01*
X198413429Y-109100000D01*
X198586571Y-109100000D01*
X198757584Y-109072914D01*
X198922259Y-109019407D01*
X199039204Y-108959820D01*
X199107873Y-108946923D01*
X199172614Y-108973199D01*
X199212872Y-109030305D01*
X199219500Y-109070304D01*
X199219500Y-114238480D01*
X199199815Y-114305519D01*
X199183181Y-114326161D01*
X196646160Y-116863181D01*
X196584837Y-116896666D01*
X196558479Y-116899500D01*
X196099998Y-116899500D01*
X196099980Y-116899501D01*
X195997203Y-116910000D01*
X195997200Y-116910001D01*
X195830668Y-116965185D01*
X195830663Y-116965187D01*
X195681342Y-117057289D01*
X195557289Y-117181342D01*
X195465187Y-117330663D01*
X195465186Y-117330666D01*
X195410001Y-117497203D01*
X195410001Y-117497204D01*
X195410000Y-117497204D01*
X195399500Y-117599983D01*
X195399500Y-118400001D01*
X195399501Y-118400019D01*
X195410000Y-118502796D01*
X195410001Y-118502799D01*
X195465185Y-118669331D01*
X195465187Y-118669336D01*
X195471651Y-118679815D01*
X195557288Y-118818656D01*
X195681344Y-118942712D01*
X195830666Y-119034814D01*
X195997203Y-119089999D01*
X196099991Y-119100500D01*
X196900008Y-119100499D01*
X196900016Y-119100498D01*
X196900019Y-119100498D01*
X196956302Y-119094748D01*
X197002797Y-119089999D01*
X197169334Y-119034814D01*
X197318656Y-118942712D01*
X197325079Y-118936289D01*
X197917261Y-118936289D01*
X197917262Y-118936290D01*
X197923471Y-118940801D01*
X198077742Y-119019408D01*
X198242415Y-119072914D01*
X198413429Y-119100000D01*
X198586571Y-119100000D01*
X198757584Y-119072914D01*
X198922257Y-119019408D01*
X199076525Y-118940803D01*
X199082737Y-118936289D01*
X198500001Y-118353553D01*
X198500000Y-118353553D01*
X197917261Y-118936289D01*
X197325079Y-118936289D01*
X197442712Y-118818656D01*
X197534814Y-118669334D01*
X197554167Y-118610930D01*
X197584191Y-118562254D01*
X198205145Y-117941300D01*
X198200000Y-117960504D01*
X198200000Y-118039496D01*
X198220444Y-118115796D01*
X198259940Y-118184205D01*
X198315795Y-118240060D01*
X198384204Y-118279556D01*
X198460504Y-118300000D01*
X198539496Y-118300000D01*
X198615796Y-118279556D01*
X198684205Y-118240060D01*
X198740060Y-118184205D01*
X198779556Y-118115796D01*
X198800000Y-118039496D01*
X198800000Y-117999999D01*
X198853553Y-117999999D01*
X198853553Y-118000000D01*
X199436289Y-118582736D01*
X199440803Y-118576525D01*
X199519408Y-118422257D01*
X199572914Y-118257584D01*
X199600000Y-118086571D01*
X199600000Y-117913428D01*
X199572914Y-117742415D01*
X199519408Y-117577742D01*
X199440801Y-117423471D01*
X199436290Y-117417262D01*
X199436289Y-117417261D01*
X198853553Y-117999999D01*
X198800000Y-117999999D01*
X198800000Y-117960504D01*
X198779556Y-117884204D01*
X198740060Y-117815795D01*
X198684205Y-117759940D01*
X198615796Y-117720444D01*
X198539496Y-117700000D01*
X198460504Y-117700000D01*
X198441300Y-117705145D01*
X199082737Y-117063709D01*
X199076527Y-117059197D01*
X198957908Y-116998757D01*
X198799193Y-116940513D01*
X198772915Y-116921057D01*
X198745918Y-116902597D01*
X198744978Y-116900374D01*
X198743039Y-116898938D01*
X198739567Y-116889778D01*
X206599500Y-116889778D01*
X206599500Y-117110222D01*
X206610764Y-117181342D01*
X206633985Y-117327952D01*
X206702103Y-117537603D01*
X206702104Y-117537606D01*
X206770122Y-117671096D01*
X206786274Y-117702796D01*
X206802187Y-117734025D01*
X206931752Y-117912358D01*
X206931756Y-117912363D01*
X207087636Y-118068243D01*
X207087641Y-118068247D01*
X207216330Y-118161744D01*
X207265978Y-118197815D01*
X207348888Y-118240060D01*
X207462393Y-118297895D01*
X207462396Y-118297896D01*
X207549346Y-118326147D01*
X207672049Y-118366015D01*
X207889778Y-118400500D01*
X207889779Y-118400500D01*
X208110221Y-118400500D01*
X208110222Y-118400500D01*
X208327951Y-118366015D01*
X208537606Y-118297895D01*
X208734022Y-118197815D01*
X208912365Y-118068242D01*
X209068242Y-117912365D01*
X209197815Y-117734022D01*
X209297895Y-117537606D01*
X209366015Y-117327951D01*
X209400500Y-117110222D01*
X209400500Y-116889778D01*
X209366015Y-116672049D01*
X209310366Y-116500776D01*
X209297896Y-116462396D01*
X209297895Y-116462393D01*
X209242437Y-116353553D01*
X209197815Y-116265978D01*
X209181260Y-116243192D01*
X209068247Y-116087641D01*
X209068243Y-116087636D01*
X208912363Y-115931756D01*
X208912358Y-115931752D01*
X208734025Y-115802187D01*
X208734024Y-115802186D01*
X208734022Y-115802185D01*
X208640228Y-115754394D01*
X208537606Y-115702104D01*
X208537603Y-115702103D01*
X208327952Y-115633985D01*
X208219086Y-115616742D01*
X208110222Y-115599500D01*
X207889778Y-115599500D01*
X207817201Y-115610995D01*
X207672047Y-115633985D01*
X207462396Y-115702103D01*
X207462393Y-115702104D01*
X207265974Y-115802187D01*
X207087641Y-115931752D01*
X207087636Y-115931756D01*
X206931756Y-116087636D01*
X206931752Y-116087641D01*
X206802187Y-116265974D01*
X206702104Y-116462393D01*
X206702103Y-116462396D01*
X206633985Y-116672047D01*
X206615644Y-116787847D01*
X206599500Y-116889778D01*
X198739567Y-116889778D01*
X198731449Y-116868358D01*
X198718720Y-116838238D01*
X198719131Y-116835860D01*
X198718276Y-116833603D01*
X198725060Y-116801604D01*
X198730635Y-116769392D01*
X198732417Y-116766901D01*
X198732767Y-116765253D01*
X198735767Y-116762220D01*
X198754225Y-116736430D01*
X200464113Y-115026543D01*
X200476481Y-115008034D01*
X200540775Y-114911811D01*
X200593580Y-114784328D01*
X200604810Y-114727870D01*
X200620500Y-114648995D01*
X200620500Y-108589778D01*
X206599500Y-108589778D01*
X206599500Y-108810221D01*
X206633985Y-109027952D01*
X206702103Y-109237603D01*
X206702104Y-109237606D01*
X206802187Y-109434025D01*
X206931752Y-109612358D01*
X206931756Y-109612363D01*
X207087636Y-109768243D01*
X207087641Y-109768247D01*
X207196330Y-109847213D01*
X207265978Y-109897815D01*
X207394375Y-109963237D01*
X207462393Y-109997895D01*
X207462396Y-109997896D01*
X207567221Y-110031955D01*
X207672049Y-110066015D01*
X207889778Y-110100500D01*
X207889779Y-110100500D01*
X208110221Y-110100500D01*
X208110222Y-110100500D01*
X208327951Y-110066015D01*
X208537606Y-109997895D01*
X208734022Y-109897815D01*
X208912365Y-109768242D01*
X209068242Y-109612365D01*
X209197815Y-109434022D01*
X209297895Y-109237606D01*
X209366015Y-109027951D01*
X209400500Y-108810222D01*
X209400500Y-108589778D01*
X209366015Y-108372049D01*
X209323130Y-108240060D01*
X209297896Y-108162396D01*
X209297895Y-108162393D01*
X209260547Y-108089095D01*
X209197815Y-107965978D01*
X209171054Y-107929145D01*
X209068247Y-107787641D01*
X209068243Y-107787636D01*
X208912363Y-107631756D01*
X208912358Y-107631752D01*
X208734025Y-107502187D01*
X208734024Y-107502186D01*
X208734022Y-107502185D01*
X208671096Y-107470122D01*
X208537606Y-107402104D01*
X208537603Y-107402103D01*
X208327952Y-107333985D01*
X208219086Y-107316742D01*
X208110222Y-107299500D01*
X207889778Y-107299500D01*
X207817201Y-107310995D01*
X207672047Y-107333985D01*
X207462396Y-107402103D01*
X207462393Y-107402104D01*
X207265974Y-107502187D01*
X207087641Y-107631752D01*
X207087636Y-107631756D01*
X206931756Y-107787636D01*
X206931752Y-107787641D01*
X206802187Y-107965974D01*
X206702104Y-108162393D01*
X206702103Y-108162396D01*
X206633985Y-108372047D01*
X206599500Y-108589778D01*
X200620500Y-108589778D01*
X200620500Y-101372648D01*
X205624500Y-101372648D01*
X205624500Y-101577351D01*
X205656522Y-101779534D01*
X205719781Y-101974223D01*
X205812715Y-102156613D01*
X205933028Y-102322213D01*
X206077786Y-102466971D01*
X206232749Y-102579556D01*
X206243390Y-102587287D01*
X206359182Y-102646286D01*
X206425776Y-102680218D01*
X206425778Y-102680218D01*
X206425781Y-102680220D01*
X206530137Y-102714127D01*
X206620465Y-102743477D01*
X206721557Y-102759488D01*
X206822648Y-102775500D01*
X206822649Y-102775500D01*
X207027351Y-102775500D01*
X207027352Y-102775500D01*
X207229534Y-102743477D01*
X207424219Y-102680220D01*
X207606610Y-102587287D01*
X207699590Y-102519732D01*
X207772213Y-102466971D01*
X207772215Y-102466968D01*
X207772219Y-102466966D01*
X207916966Y-102322219D01*
X207916968Y-102322215D01*
X207916971Y-102322213D01*
X207988502Y-102223757D01*
X208037287Y-102156610D01*
X208130220Y-101974219D01*
X208193477Y-101779534D01*
X208225500Y-101577352D01*
X208225500Y-101372648D01*
X208193477Y-101170466D01*
X208189918Y-101159514D01*
X208147872Y-101030109D01*
X208130220Y-100975781D01*
X208130218Y-100975778D01*
X208130218Y-100975776D01*
X208081308Y-100879786D01*
X208037287Y-100793390D01*
X208029556Y-100782749D01*
X207916971Y-100627786D01*
X207772213Y-100483028D01*
X207606613Y-100362715D01*
X207606612Y-100362714D01*
X207606610Y-100362713D01*
X207494365Y-100305521D01*
X207424223Y-100269781D01*
X207229534Y-100206522D01*
X207054995Y-100178878D01*
X207027352Y-100174500D01*
X206822648Y-100174500D01*
X206798329Y-100178351D01*
X206620465Y-100206522D01*
X206425776Y-100269781D01*
X206243386Y-100362715D01*
X206077786Y-100483028D01*
X205933028Y-100627786D01*
X205812715Y-100793386D01*
X205719781Y-100975776D01*
X205656522Y-101170465D01*
X205624500Y-101372648D01*
X200620500Y-101372648D01*
X200620500Y-93889778D01*
X203599500Y-93889778D01*
X203599500Y-94110222D01*
X203614404Y-94204322D01*
X203633985Y-94327952D01*
X203702103Y-94537603D01*
X203702104Y-94537606D01*
X203744482Y-94620775D01*
X203801917Y-94733497D01*
X203802187Y-94734025D01*
X203931752Y-94912358D01*
X203931756Y-94912363D01*
X203982316Y-94962923D01*
X204015801Y-95024246D01*
X204010817Y-95093938D01*
X203968945Y-95149871D01*
X203937969Y-95166785D01*
X203857918Y-95196643D01*
X203857906Y-95196649D01*
X203742812Y-95282809D01*
X203742809Y-95282812D01*
X203656649Y-95397906D01*
X203656645Y-95397913D01*
X203606403Y-95532620D01*
X203606401Y-95532627D01*
X203600000Y-95592155D01*
X203600000Y-96290000D01*
X204624722Y-96290000D01*
X204580667Y-96366306D01*
X204550000Y-96480756D01*
X204550000Y-96599244D01*
X204580667Y-96713694D01*
X204624722Y-96790000D01*
X203600000Y-96790000D01*
X203600000Y-97487844D01*
X203606401Y-97547372D01*
X203606403Y-97547379D01*
X203656644Y-97682083D01*
X203656649Y-97682093D01*
X203742809Y-97797187D01*
X203742812Y-97797190D01*
X203857906Y-97883350D01*
X203857913Y-97883354D01*
X203992620Y-97933596D01*
X203992627Y-97933598D01*
X204052155Y-97939999D01*
X204052172Y-97940000D01*
X204750000Y-97940000D01*
X204750000Y-96915277D01*
X204826306Y-96959333D01*
X204940756Y-96990000D01*
X205059244Y-96990000D01*
X205173694Y-96959333D01*
X205250000Y-96915277D01*
X205250000Y-97940000D01*
X205947828Y-97940000D01*
X205947844Y-97939999D01*
X206007372Y-97933598D01*
X206007379Y-97933596D01*
X206142086Y-97883354D01*
X206142093Y-97883350D01*
X206257187Y-97797190D01*
X206257190Y-97797187D01*
X206343350Y-97682093D01*
X206343356Y-97682083D01*
X206393596Y-97547379D01*
X206393598Y-97547372D01*
X206399999Y-97487844D01*
X206400000Y-97487827D01*
X206400000Y-96790000D01*
X205375278Y-96790000D01*
X205419333Y-96713694D01*
X205450000Y-96599244D01*
X205450000Y-96480756D01*
X205419333Y-96366306D01*
X205375278Y-96290000D01*
X206400000Y-96290000D01*
X206400000Y-95592172D01*
X206399999Y-95592155D01*
X206393598Y-95532627D01*
X206393596Y-95532620D01*
X206343354Y-95397913D01*
X206343350Y-95397906D01*
X206257190Y-95282812D01*
X206257187Y-95282809D01*
X206142093Y-95196649D01*
X206142087Y-95196646D01*
X206062030Y-95166786D01*
X206006097Y-95124914D01*
X205981680Y-95059450D01*
X205996532Y-94991177D01*
X206017681Y-94962925D01*
X206068242Y-94912365D01*
X206197815Y-94734022D01*
X206297895Y-94537606D01*
X206366015Y-94327951D01*
X206400500Y-94110222D01*
X206400500Y-93889778D01*
X206369416Y-93693523D01*
X206378370Y-93624233D01*
X206404205Y-93586450D01*
X209624113Y-90366543D01*
X209626175Y-90363458D01*
X209700775Y-90251811D01*
X209738036Y-90161854D01*
X209753580Y-90124329D01*
X209761648Y-90083767D01*
X209780500Y-89988993D01*
X209780500Y-87161744D01*
X209800185Y-87094705D01*
X209831615Y-87061426D01*
X209927215Y-86991969D01*
X209927215Y-86991968D01*
X209927219Y-86991966D01*
X210071966Y-86847219D01*
X210071968Y-86847215D01*
X210071971Y-86847213D01*
X210124732Y-86774590D01*
X210192287Y-86681610D01*
X210285220Y-86499219D01*
X210348477Y-86304534D01*
X210380500Y-86102352D01*
X210380500Y-85897648D01*
X210348477Y-85695465D01*
X210285218Y-85500776D01*
X210240047Y-85412125D01*
X210192287Y-85318390D01*
X210154205Y-85265974D01*
X210071971Y-85152786D01*
X209927213Y-85008028D01*
X209761613Y-84887715D01*
X209761612Y-84887714D01*
X209761610Y-84887713D01*
X209702636Y-84857664D01*
X209579223Y-84794781D01*
X209384534Y-84731522D01*
X209198799Y-84702105D01*
X209182352Y-84699500D01*
X208977648Y-84699500D01*
X208961201Y-84702105D01*
X208775465Y-84731522D01*
X208580776Y-84794781D01*
X208398386Y-84887715D01*
X208232786Y-85008028D01*
X208088028Y-85152786D01*
X207967715Y-85318386D01*
X207874781Y-85500776D01*
X207811522Y-85695465D01*
X207779500Y-85897648D01*
X207779500Y-86102351D01*
X207811522Y-86304534D01*
X207874781Y-86499223D01*
X207967715Y-86681613D01*
X208088028Y-86847213D01*
X208232784Y-86991969D01*
X208328385Y-87061426D01*
X208371051Y-87116755D01*
X208379500Y-87161744D01*
X208379500Y-89578480D01*
X208359815Y-89645519D01*
X208343181Y-89666161D01*
X205413550Y-92595791D01*
X205352227Y-92629276D01*
X205306471Y-92630582D01*
X205110222Y-92599500D01*
X204889778Y-92599500D01*
X204817201Y-92610995D01*
X204672047Y-92633985D01*
X204462396Y-92702103D01*
X204462393Y-92702104D01*
X204265974Y-92802187D01*
X204087641Y-92931752D01*
X204087636Y-92931756D01*
X203931756Y-93087636D01*
X203931752Y-93087641D01*
X203802187Y-93265974D01*
X203702104Y-93462393D01*
X203702103Y-93462396D01*
X203633985Y-93672047D01*
X203621639Y-93750000D01*
X203599500Y-93889778D01*
X200620500Y-93889778D01*
X200620500Y-88501518D01*
X200640185Y-88434479D01*
X200656814Y-88413842D01*
X208753852Y-80316803D01*
X208815173Y-80283320D01*
X208860929Y-80282013D01*
X208915395Y-80290639D01*
X208977648Y-80300500D01*
X208977649Y-80300500D01*
X209182351Y-80300500D01*
X209182352Y-80300500D01*
X209384534Y-80268477D01*
X209579219Y-80205220D01*
X209761610Y-80112287D01*
X209854590Y-80044732D01*
X209927213Y-79991971D01*
X209927215Y-79991968D01*
X209927219Y-79991966D01*
X210071966Y-79847219D01*
X210071968Y-79847215D01*
X210071971Y-79847213D01*
X210141425Y-79751616D01*
X210192287Y-79681610D01*
X210285220Y-79499219D01*
X210348477Y-79304534D01*
X210380500Y-79102352D01*
X210380500Y-78897648D01*
X210348477Y-78695466D01*
X210285220Y-78500781D01*
X210285218Y-78500778D01*
X210285218Y-78500776D01*
X210241852Y-78415667D01*
X210192287Y-78318390D01*
X210152176Y-78263181D01*
X210071971Y-78152786D01*
X209927213Y-78008028D01*
X209761613Y-77887715D01*
X209761612Y-77887714D01*
X209761610Y-77887713D01*
X209704653Y-77858691D01*
X209579223Y-77794781D01*
X209384534Y-77731522D01*
X209209995Y-77703878D01*
X209182352Y-77699500D01*
X208977648Y-77699500D01*
X208953329Y-77703351D01*
X208775465Y-77731522D01*
X208580776Y-77794781D01*
X208398386Y-77887715D01*
X208232786Y-78008028D01*
X208088030Y-78152784D01*
X208018575Y-78248384D01*
X207963245Y-78291051D01*
X207918256Y-78299500D01*
X206181519Y-78299500D01*
X206114480Y-78279815D01*
X206093838Y-78263181D01*
X200156805Y-72326148D01*
X200123320Y-72264825D01*
X200122013Y-72219068D01*
X200140500Y-72102349D01*
X200140500Y-71897648D01*
X200108477Y-71695465D01*
X200045218Y-71500776D01*
X200011503Y-71434607D01*
X199952287Y-71318390D01*
X199944556Y-71307749D01*
X199831971Y-71152786D01*
X199687213Y-71008028D01*
X199521613Y-70887715D01*
X199521612Y-70887714D01*
X199521610Y-70887713D01*
X199464653Y-70858691D01*
X199339223Y-70794781D01*
X199144534Y-70731522D01*
X198969995Y-70703878D01*
X198942352Y-70699500D01*
X198737648Y-70699500D01*
X198713329Y-70703351D01*
X198535465Y-70731522D01*
X198340776Y-70794781D01*
X198158386Y-70887715D01*
X197992786Y-71008028D01*
X197848028Y-71152786D01*
X197727715Y-71318386D01*
X197634781Y-71500776D01*
X197571522Y-71695465D01*
X197539500Y-71897648D01*
X197539500Y-72102351D01*
X197571522Y-72304534D01*
X197634781Y-72499223D01*
X197727715Y-72681613D01*
X197848028Y-72847213D01*
X197992786Y-72991971D01*
X198147749Y-73104556D01*
X198158390Y-73112287D01*
X198274607Y-73171503D01*
X198340776Y-73205218D01*
X198340778Y-73205218D01*
X198340781Y-73205220D01*
X198445137Y-73239127D01*
X198535465Y-73268477D01*
X198636557Y-73284488D01*
X198737648Y-73300500D01*
X198737649Y-73300500D01*
X198942350Y-73300500D01*
X198942352Y-73300500D01*
X199059068Y-73282013D01*
X199128362Y-73290967D01*
X199166148Y-73316805D01*
X205393453Y-79544111D01*
X205393454Y-79544112D01*
X205508192Y-79620777D01*
X205635667Y-79673578D01*
X205635672Y-79673580D01*
X205635676Y-79673580D01*
X205635677Y-79673581D01*
X205771003Y-79700500D01*
X205771006Y-79700500D01*
X205771007Y-79700500D01*
X207089481Y-79700500D01*
X207156520Y-79720185D01*
X207202275Y-79772989D01*
X207212219Y-79842147D01*
X207183194Y-79905703D01*
X207177162Y-79912181D01*
X203226162Y-83863181D01*
X203164839Y-83896666D01*
X203138481Y-83899500D01*
X190920426Y-83899500D01*
X190853387Y-83879815D01*
X190807632Y-83827011D01*
X190797688Y-83757853D01*
X190809942Y-83719204D01*
X190825217Y-83689225D01*
X190825217Y-83689224D01*
X190825220Y-83689219D01*
X190888477Y-83494534D01*
X190920500Y-83292352D01*
X190920500Y-83087648D01*
X190912257Y-83035606D01*
X190888477Y-82885465D01*
X190825218Y-82690776D01*
X190779515Y-82601080D01*
X190732287Y-82508390D01*
X190700092Y-82464077D01*
X190611971Y-82342786D01*
X190467213Y-82198028D01*
X190301613Y-82077715D01*
X190301612Y-82077714D01*
X190301610Y-82077713D01*
X190244653Y-82048691D01*
X190119223Y-81984781D01*
X189924534Y-81921522D01*
X189749995Y-81893878D01*
X189722352Y-81889500D01*
X189517648Y-81889500D01*
X189493329Y-81893351D01*
X189315465Y-81921522D01*
X189120776Y-81984781D01*
X188938386Y-82077715D01*
X188772786Y-82198028D01*
X188628028Y-82342786D01*
X188507715Y-82508386D01*
X188460485Y-82601080D01*
X188412510Y-82651876D01*
X188344689Y-82668671D01*
X188278554Y-82646134D01*
X188239515Y-82601080D01*
X188238883Y-82599840D01*
X188192287Y-82508390D01*
X188160092Y-82464077D01*
X188071971Y-82342786D01*
X187927213Y-82198028D01*
X187761613Y-82077715D01*
X187761612Y-82077714D01*
X187761610Y-82077713D01*
X187704653Y-82048691D01*
X187579223Y-81984781D01*
X187384534Y-81921522D01*
X187209995Y-81893878D01*
X187182352Y-81889500D01*
X186977648Y-81889500D01*
X186953329Y-81893351D01*
X186775465Y-81921522D01*
X186580776Y-81984781D01*
X186398386Y-82077715D01*
X186232786Y-82198028D01*
X186088028Y-82342786D01*
X185967715Y-82508386D01*
X185920485Y-82601080D01*
X185872510Y-82651876D01*
X185804689Y-82668671D01*
X185738554Y-82646134D01*
X185699515Y-82601080D01*
X185698883Y-82599840D01*
X185652287Y-82508390D01*
X185620092Y-82464077D01*
X185531971Y-82342786D01*
X185387213Y-82198028D01*
X185221613Y-82077715D01*
X185221612Y-82077714D01*
X185221610Y-82077713D01*
X185164653Y-82048691D01*
X185039223Y-81984781D01*
X184844534Y-81921522D01*
X184669995Y-81893878D01*
X184642352Y-81889500D01*
X184437648Y-81889500D01*
X184413329Y-81893351D01*
X184235465Y-81921522D01*
X184040776Y-81984781D01*
X183858386Y-82077715D01*
X183692786Y-82198028D01*
X183548028Y-82342786D01*
X183427713Y-82508388D01*
X183380203Y-82601630D01*
X183332228Y-82652426D01*
X183264407Y-82669220D01*
X183198272Y-82646682D01*
X183159234Y-82601628D01*
X183111861Y-82508652D01*
X183079474Y-82464077D01*
X183079474Y-82464076D01*
X182400000Y-83143551D01*
X182400000Y-83137339D01*
X182372741Y-83035606D01*
X182320080Y-82944394D01*
X182245606Y-82869920D01*
X182154394Y-82817259D01*
X182052661Y-82790000D01*
X182046446Y-82790000D01*
X182725922Y-82110524D01*
X182725921Y-82110523D01*
X182681359Y-82078147D01*
X182681350Y-82078141D01*
X182499031Y-81985244D01*
X182304417Y-81922009D01*
X182102317Y-81890000D01*
X181897683Y-81890000D01*
X181695582Y-81922009D01*
X181500968Y-81985244D01*
X181318644Y-82078143D01*
X181274077Y-82110523D01*
X181274077Y-82110524D01*
X181953554Y-82790000D01*
X181947339Y-82790000D01*
X181845606Y-82817259D01*
X181754394Y-82869920D01*
X181679920Y-82944394D01*
X181627259Y-83035606D01*
X181600000Y-83137339D01*
X181600000Y-83143553D01*
X180920524Y-82464077D01*
X180920523Y-82464077D01*
X180888143Y-82508644D01*
X180840765Y-82601630D01*
X180792790Y-82652426D01*
X180724969Y-82669221D01*
X180658834Y-82646683D01*
X180619795Y-82601630D01*
X180619515Y-82601080D01*
X180572287Y-82508390D01*
X180572285Y-82508387D01*
X180572284Y-82508385D01*
X180451971Y-82342786D01*
X180307213Y-82198028D01*
X180141613Y-82077715D01*
X180141612Y-82077714D01*
X180141610Y-82077713D01*
X180084653Y-82048691D01*
X179959223Y-81984781D01*
X179764534Y-81921522D01*
X179589995Y-81893878D01*
X179562352Y-81889500D01*
X179357648Y-81889500D01*
X179333329Y-81893351D01*
X179155465Y-81921522D01*
X178960776Y-81984781D01*
X178778386Y-82077715D01*
X178612786Y-82198028D01*
X178468028Y-82342786D01*
X178347715Y-82508386D01*
X178300485Y-82601080D01*
X178252510Y-82651876D01*
X178184689Y-82668671D01*
X178118554Y-82646134D01*
X178079515Y-82601080D01*
X178078883Y-82599840D01*
X178032287Y-82508390D01*
X178000092Y-82464077D01*
X177911971Y-82342786D01*
X177767213Y-82198028D01*
X177601613Y-82077715D01*
X177601612Y-82077714D01*
X177601610Y-82077713D01*
X177544653Y-82048691D01*
X177419223Y-81984781D01*
X177224534Y-81921522D01*
X177049995Y-81893878D01*
X177022352Y-81889500D01*
X176817648Y-81889500D01*
X176793329Y-81893351D01*
X176615465Y-81921522D01*
X176420776Y-81984781D01*
X176238386Y-82077715D01*
X176072786Y-82198028D01*
X175928028Y-82342786D01*
X175807715Y-82508386D01*
X175760485Y-82601080D01*
X175712510Y-82651876D01*
X175644689Y-82668671D01*
X175578554Y-82646134D01*
X175539515Y-82601080D01*
X175538883Y-82599840D01*
X175492287Y-82508390D01*
X175460092Y-82464077D01*
X175371971Y-82342786D01*
X175227213Y-82198028D01*
X175061613Y-82077715D01*
X175061612Y-82077714D01*
X175061610Y-82077713D01*
X174879219Y-81984780D01*
X174857883Y-81977847D01*
X174800208Y-81938411D01*
X174773009Y-81874053D01*
X174784923Y-81805206D01*
X174808517Y-81772239D01*
X180643939Y-75936819D01*
X180705262Y-75903334D01*
X180731620Y-75900500D01*
X181819953Y-75900500D01*
X181886992Y-75920185D01*
X181907634Y-75936819D01*
X181962786Y-75991971D01*
X182083226Y-76079474D01*
X182128390Y-76112287D01*
X182244607Y-76171503D01*
X182310776Y-76205218D01*
X182310778Y-76205218D01*
X182310781Y-76205220D01*
X182401856Y-76234812D01*
X182505465Y-76268477D01*
X182606557Y-76284488D01*
X182707648Y-76300500D01*
X182707649Y-76300500D01*
X182912351Y-76300500D01*
X182912352Y-76300500D01*
X183114534Y-76268477D01*
X183309219Y-76205220D01*
X183491610Y-76112287D01*
X183620482Y-76018657D01*
X183657213Y-75991971D01*
X183657215Y-75991968D01*
X183657219Y-75991966D01*
X183712366Y-75936819D01*
X183773689Y-75903334D01*
X183800047Y-75900500D01*
X184905202Y-75900500D01*
X184972241Y-75920185D01*
X185010739Y-75959401D01*
X185047288Y-76018656D01*
X185171344Y-76142712D01*
X185320666Y-76234814D01*
X185487203Y-76289999D01*
X185589991Y-76300500D01*
X186790008Y-76300499D01*
X186892797Y-76289999D01*
X187059334Y-76234814D01*
X187208656Y-76142712D01*
X187332712Y-76018656D01*
X187424814Y-75869334D01*
X187479999Y-75702797D01*
X187490500Y-75600009D01*
X187490499Y-74399992D01*
X187479999Y-74297203D01*
X187424814Y-74130666D01*
X187332712Y-73981344D01*
X187208656Y-73857288D01*
X187059334Y-73765186D01*
X186892797Y-73710001D01*
X186892795Y-73710000D01*
X186790010Y-73699500D01*
X185589998Y-73699500D01*
X185589981Y-73699501D01*
X185487203Y-73710000D01*
X185487200Y-73710001D01*
X185320668Y-73765185D01*
X185320663Y-73765187D01*
X185171342Y-73857289D01*
X185047289Y-73981342D01*
X185010741Y-74040597D01*
X184958793Y-74087321D01*
X184905202Y-74099500D01*
X183800047Y-74099500D01*
X183733008Y-74079815D01*
X183712366Y-74063181D01*
X183657213Y-74008028D01*
X183491613Y-73887715D01*
X183491612Y-73887714D01*
X183491610Y-73887713D01*
X183431898Y-73857288D01*
X183309223Y-73794781D01*
X183114534Y-73731522D01*
X182939995Y-73703878D01*
X182912352Y-73699500D01*
X182707648Y-73699500D01*
X182683329Y-73703351D01*
X182505465Y-73731522D01*
X182310776Y-73794781D01*
X182128386Y-73887715D01*
X181962786Y-74008028D01*
X181962782Y-74008032D01*
X181907634Y-74063181D01*
X181846311Y-74096666D01*
X181819953Y-74099500D01*
X180501407Y-74099500D01*
X180327442Y-74134103D01*
X180327433Y-74134106D01*
X180163560Y-74201983D01*
X180163547Y-74201990D01*
X180016066Y-74300535D01*
X180016062Y-74300538D01*
X179890639Y-74425961D01*
X179890636Y-74425965D01*
X179792091Y-74573446D01*
X179792084Y-74573459D01*
X179724207Y-74737332D01*
X179724205Y-74737340D01*
X179697303Y-74872586D01*
X179664918Y-74934496D01*
X179663367Y-74936075D01*
X172435889Y-82163553D01*
X172435886Y-82163558D01*
X172412850Y-82198034D01*
X172385945Y-82238299D01*
X172359223Y-82278292D01*
X172306421Y-82405768D01*
X172306418Y-82405778D01*
X172279500Y-82541105D01*
X172279500Y-82541108D01*
X172279500Y-102611006D01*
X172279500Y-102748994D01*
X172279500Y-102748996D01*
X172279499Y-102748996D01*
X172306418Y-102884322D01*
X172306421Y-102884332D01*
X172359222Y-103011807D01*
X172435887Y-103126545D01*
X172435888Y-103126546D01*
X174417162Y-105107819D01*
X174450647Y-105169142D01*
X174445663Y-105238834D01*
X174403791Y-105294767D01*
X174338327Y-105319184D01*
X174329481Y-105319500D01*
X173779998Y-105319500D01*
X173779980Y-105319501D01*
X173677203Y-105330000D01*
X173677200Y-105330001D01*
X173510668Y-105385185D01*
X173510663Y-105385187D01*
X173361342Y-105477289D01*
X173237289Y-105601342D01*
X173145187Y-105750663D01*
X173145185Y-105750668D01*
X173117405Y-105834504D01*
X173077632Y-105891949D01*
X173013116Y-105918772D01*
X172999699Y-105919500D01*
X162691003Y-105919500D01*
X162582590Y-105941065D01*
X162582589Y-105941065D01*
X162555671Y-105946420D01*
X162428190Y-105999224D01*
X162313454Y-106075887D01*
X160706147Y-107683194D01*
X160644824Y-107716679D01*
X160599068Y-107717986D01*
X160548646Y-107710000D01*
X160482352Y-107699500D01*
X160277648Y-107699500D01*
X160253329Y-107703351D01*
X160075465Y-107731522D01*
X159880776Y-107794781D01*
X159698386Y-107887715D01*
X159532786Y-108008028D01*
X159388028Y-108152786D01*
X159267715Y-108318386D01*
X159174781Y-108500776D01*
X159111522Y-108695465D01*
X159079500Y-108897648D01*
X159079500Y-109102351D01*
X159111522Y-109304534D01*
X159174781Y-109499223D01*
X159267715Y-109681613D01*
X159388028Y-109847213D01*
X159532784Y-109991969D01*
X159628385Y-110061426D01*
X159671051Y-110116755D01*
X159679500Y-110161744D01*
X159679500Y-115578378D01*
X159659815Y-115645417D01*
X159607011Y-115691172D01*
X159568103Y-115701736D01*
X159487202Y-115710001D01*
X159487200Y-115710001D01*
X159320668Y-115765185D01*
X159320663Y-115765187D01*
X159171342Y-115857289D01*
X159047289Y-115981342D01*
X158955187Y-116130663D01*
X158955186Y-116130666D01*
X158900001Y-116297203D01*
X158900001Y-116297204D01*
X158900000Y-116297204D01*
X158889500Y-116399983D01*
X151736938Y-116399983D01*
X151750412Y-116358516D01*
X151750412Y-116358514D01*
X151767990Y-116304415D01*
X151800000Y-116102317D01*
X151800000Y-115897682D01*
X151767990Y-115695582D01*
X151704755Y-115500968D01*
X151611859Y-115318650D01*
X151579474Y-115274077D01*
X151579474Y-115274076D01*
X150900000Y-115953551D01*
X150900000Y-115947339D01*
X150872741Y-115845606D01*
X150820080Y-115754394D01*
X150745606Y-115679920D01*
X150654394Y-115627259D01*
X150552661Y-115600000D01*
X150546446Y-115600000D01*
X151225922Y-114920524D01*
X151225921Y-114920523D01*
X151181359Y-114888147D01*
X151181350Y-114888141D01*
X150999031Y-114795244D01*
X150804417Y-114732009D01*
X150602317Y-114700000D01*
X150397683Y-114700000D01*
X150195582Y-114732009D01*
X150000968Y-114795244D01*
X149818644Y-114888143D01*
X149774077Y-114920523D01*
X149774077Y-114920524D01*
X150453554Y-115600000D01*
X150447339Y-115600000D01*
X150345606Y-115627259D01*
X150254394Y-115679920D01*
X150179920Y-115754394D01*
X150127259Y-115845606D01*
X150100000Y-115947339D01*
X150100000Y-115953553D01*
X149420524Y-115274077D01*
X149420523Y-115274077D01*
X149388143Y-115318644D01*
X149360765Y-115372378D01*
X149312790Y-115423174D01*
X149244969Y-115439969D01*
X149178834Y-115417431D01*
X149139795Y-115372378D01*
X149112287Y-115318390D01*
X149112285Y-115318387D01*
X149112284Y-115318385D01*
X148991971Y-115152786D01*
X148847213Y-115008028D01*
X148681613Y-114887715D01*
X148681612Y-114887714D01*
X148681610Y-114887713D01*
X148588720Y-114840383D01*
X148499223Y-114794781D01*
X148304534Y-114731522D01*
X148129995Y-114703878D01*
X148102352Y-114699500D01*
X147897648Y-114699500D01*
X147780929Y-114717986D01*
X147775504Y-114717284D01*
X147770378Y-114719197D01*
X147741222Y-114712854D01*
X147711636Y-114709031D01*
X147706032Y-114705199D01*
X147702105Y-114704345D01*
X147673851Y-114683194D01*
X147656819Y-114666162D01*
X147623334Y-114604839D01*
X147620500Y-114578481D01*
X147620500Y-107914189D01*
X147640185Y-107847150D01*
X147692989Y-107801395D01*
X147762147Y-107791451D01*
X147825703Y-107820476D01*
X147842875Y-107838702D01*
X147952718Y-107981851D01*
X147952726Y-107981860D01*
X148138140Y-108167274D01*
X148138148Y-108167281D01*
X148346196Y-108326924D01*
X148573299Y-108458041D01*
X148573309Y-108458046D01*
X148815571Y-108558394D01*
X148815581Y-108558398D01*
X149068884Y-108626270D01*
X149328880Y-108660500D01*
X149328887Y-108660500D01*
X149591113Y-108660500D01*
X149591120Y-108660500D01*
X149851116Y-108626270D01*
X150104419Y-108558398D01*
X150346697Y-108458043D01*
X150573803Y-108326924D01*
X150781851Y-108167282D01*
X150781855Y-108167277D01*
X150781860Y-108167274D01*
X150967274Y-107981860D01*
X150967277Y-107981855D01*
X150967282Y-107981851D01*
X151126924Y-107773803D01*
X151258043Y-107546697D01*
X151358398Y-107304419D01*
X151426270Y-107051116D01*
X151460500Y-106791120D01*
X151460500Y-106528880D01*
X151426270Y-106268884D01*
X151358398Y-106015581D01*
X151327533Y-105941066D01*
X151258046Y-105773309D01*
X151258041Y-105773299D01*
X151126924Y-105546196D01*
X150977544Y-105351523D01*
X150967282Y-105338149D01*
X150967281Y-105338148D01*
X150967274Y-105338140D01*
X150781860Y-105152726D01*
X150781851Y-105152718D01*
X150573803Y-104993075D01*
X150346700Y-104861958D01*
X150346690Y-104861953D01*
X150104428Y-104761605D01*
X150104421Y-104761603D01*
X150104419Y-104761602D01*
X149851116Y-104693730D01*
X149793339Y-104686123D01*
X149591127Y-104659500D01*
X149591120Y-104659500D01*
X149328880Y-104659500D01*
X149328872Y-104659500D01*
X149097772Y-104689926D01*
X149068884Y-104693730D01*
X148815581Y-104761602D01*
X148815571Y-104761605D01*
X148573309Y-104861953D01*
X148573299Y-104861958D01*
X148346196Y-104993075D01*
X148138148Y-105152718D01*
X147952718Y-105338148D01*
X147842875Y-105481297D01*
X147786447Y-105522500D01*
X147716701Y-105526654D01*
X147655781Y-105492441D01*
X147623029Y-105430723D01*
X147620500Y-105405810D01*
X147620500Y-97874038D01*
X157319500Y-97874038D01*
X157319500Y-98125961D01*
X157358910Y-98374785D01*
X157436760Y-98614383D01*
X157551132Y-98838848D01*
X157699201Y-99042649D01*
X157699205Y-99042654D01*
X157877345Y-99220794D01*
X157877350Y-99220798D01*
X158055117Y-99349952D01*
X158081155Y-99368870D01*
X158224184Y-99441747D01*
X158305616Y-99483239D01*
X158305618Y-99483239D01*
X158305621Y-99483241D01*
X158545215Y-99561090D01*
X158794038Y-99600500D01*
X158794039Y-99600500D01*
X159045961Y-99600500D01*
X159045962Y-99600500D01*
X159294785Y-99561090D01*
X159534379Y-99483241D01*
X159758845Y-99368870D01*
X159962656Y-99220793D01*
X160140793Y-99042656D01*
X160288870Y-98838845D01*
X160403241Y-98614379D01*
X160481090Y-98374785D01*
X160520500Y-98125962D01*
X160520500Y-97874038D01*
X160481090Y-97625215D01*
X160403241Y-97385621D01*
X160403239Y-97385618D01*
X160403239Y-97385616D01*
X160298077Y-97179225D01*
X160288870Y-97161155D01*
X160244431Y-97099990D01*
X160244425Y-97099982D01*
X167479500Y-97099982D01*
X167479500Y-98900017D01*
X167490000Y-99002796D01*
X167545185Y-99169332D01*
X167545186Y-99169335D01*
X167637288Y-99318656D01*
X167761344Y-99442712D01*
X167910665Y-99534814D01*
X168077202Y-99589999D01*
X168179990Y-99600500D01*
X168179995Y-99600500D01*
X169980005Y-99600500D01*
X169980010Y-99600500D01*
X170082798Y-99589999D01*
X170249335Y-99534814D01*
X170398656Y-99442712D01*
X170522712Y-99318656D01*
X170614814Y-99169335D01*
X170669999Y-99002798D01*
X170680500Y-98900010D01*
X170680500Y-97099990D01*
X170669999Y-96997202D01*
X170614814Y-96830665D01*
X170522712Y-96681344D01*
X170398656Y-96557288D01*
X170249335Y-96465186D01*
X170082798Y-96410001D01*
X170082796Y-96410000D01*
X169980017Y-96399500D01*
X169980010Y-96399500D01*
X168179990Y-96399500D01*
X168179982Y-96399500D01*
X168077203Y-96410000D01*
X168077202Y-96410001D01*
X167997418Y-96436439D01*
X167910667Y-96465185D01*
X167910662Y-96465187D01*
X167761342Y-96557289D01*
X167637289Y-96681342D01*
X167545187Y-96830662D01*
X167545186Y-96830665D01*
X167490001Y-96997202D01*
X167490001Y-96997203D01*
X167490000Y-96997203D01*
X167479500Y-97099982D01*
X160244425Y-97099982D01*
X160140798Y-96957350D01*
X160140794Y-96957345D01*
X159962654Y-96779205D01*
X159962649Y-96779201D01*
X159758846Y-96631130D01*
X159688204Y-96595135D01*
X159637408Y-96547160D01*
X159620500Y-96484651D01*
X159620500Y-89281472D01*
X159640185Y-89214433D01*
X159675607Y-89178371D01*
X159760289Y-89121789D01*
X159871789Y-89010289D01*
X159959394Y-88879179D01*
X160019737Y-88733497D01*
X160050500Y-88578842D01*
X160050500Y-88421158D01*
X160050500Y-88421155D01*
X160050499Y-88421153D01*
X160019738Y-88266510D01*
X160019737Y-88266503D01*
X160019735Y-88266498D01*
X159959397Y-88120827D01*
X159959390Y-88120814D01*
X159871789Y-87989711D01*
X159871786Y-87989707D01*
X159760292Y-87878213D01*
X159760288Y-87878210D01*
X159629185Y-87790609D01*
X159629172Y-87790602D01*
X159483501Y-87730264D01*
X159483489Y-87730261D01*
X159328845Y-87699500D01*
X159328842Y-87699500D01*
X159171158Y-87699500D01*
X159171155Y-87699500D01*
X159016510Y-87730261D01*
X159016498Y-87730264D01*
X158870827Y-87790602D01*
X158870814Y-87790609D01*
X158739711Y-87878210D01*
X158739707Y-87878213D01*
X158628213Y-87989707D01*
X158628210Y-87989711D01*
X158540609Y-88120814D01*
X158540604Y-88120823D01*
X158480808Y-88265186D01*
X158453928Y-88305414D01*
X158375893Y-88383449D01*
X158375887Y-88383454D01*
X158303489Y-88491807D01*
X158303488Y-88491809D01*
X158299226Y-88498186D01*
X158246420Y-88625671D01*
X158246418Y-88625677D01*
X158219500Y-88761004D01*
X158219500Y-96484651D01*
X158199815Y-96551690D01*
X158151796Y-96595135D01*
X158081153Y-96631130D01*
X157877350Y-96779201D01*
X157877345Y-96779205D01*
X157699205Y-96957345D01*
X157699201Y-96957350D01*
X157551132Y-97161151D01*
X157436760Y-97385616D01*
X157358910Y-97625214D01*
X157319500Y-97874038D01*
X147620500Y-97874038D01*
X147620500Y-91397064D01*
X147640185Y-91330025D01*
X147677735Y-91293273D01*
X147677596Y-91293081D01*
X147678899Y-91292133D01*
X147679720Y-91291331D01*
X147681536Y-91290218D01*
X147681535Y-91290218D01*
X147681538Y-91290217D01*
X147866566Y-91155786D01*
X148028286Y-90994066D01*
X148089992Y-90909134D01*
X148145319Y-90866470D01*
X148214932Y-90860491D01*
X148276727Y-90893096D01*
X148290626Y-90909135D01*
X148352097Y-90993741D01*
X148352097Y-90993742D01*
X148513757Y-91155402D01*
X148698723Y-91289788D01*
X148902429Y-91393582D01*
X149119871Y-91464234D01*
X149210000Y-91478509D01*
X149210000Y-90490747D01*
X149247708Y-90512518D01*
X149387591Y-90550000D01*
X149532409Y-90550000D01*
X149672292Y-90512518D01*
X149710000Y-90490747D01*
X149710000Y-91478508D01*
X149800128Y-91464234D01*
X150017570Y-91393582D01*
X150221276Y-91289788D01*
X150404059Y-91156988D01*
X150469865Y-91133508D01*
X150537919Y-91149333D01*
X150586614Y-91199439D01*
X150593127Y-91213974D01*
X150603701Y-91242326D01*
X150603706Y-91242335D01*
X150689952Y-91357544D01*
X150689955Y-91357547D01*
X150805164Y-91443793D01*
X150805171Y-91443797D01*
X150850118Y-91460561D01*
X150940017Y-91494091D01*
X150999627Y-91500500D01*
X151175500Y-91500499D01*
X151242539Y-91520183D01*
X151288294Y-91572987D01*
X151299500Y-91624499D01*
X151299500Y-93931006D01*
X151299500Y-94068994D01*
X151299500Y-94068996D01*
X151299499Y-94068996D01*
X151326418Y-94204322D01*
X151326421Y-94204332D01*
X151379222Y-94331807D01*
X151455887Y-94446545D01*
X151455888Y-94446546D01*
X152008250Y-94998907D01*
X152041735Y-95060230D01*
X152036751Y-95129921D01*
X152035130Y-95134040D01*
X151980264Y-95266498D01*
X151980261Y-95266510D01*
X151949500Y-95421153D01*
X151949500Y-95578846D01*
X151980261Y-95733489D01*
X151980264Y-95733501D01*
X152040602Y-95879172D01*
X152040609Y-95879185D01*
X152128210Y-96010288D01*
X152128213Y-96010292D01*
X152239707Y-96121786D01*
X152239711Y-96121789D01*
X152370814Y-96209390D01*
X152370827Y-96209397D01*
X152501914Y-96263694D01*
X152516503Y-96269737D01*
X152668644Y-96300000D01*
X152671153Y-96300499D01*
X152671156Y-96300500D01*
X152671158Y-96300500D01*
X152828844Y-96300500D01*
X152828845Y-96300499D01*
X152983497Y-96269737D01*
X153129179Y-96209394D01*
X153260289Y-96121789D01*
X153371789Y-96010289D01*
X153459394Y-95879179D01*
X153519737Y-95733497D01*
X153550500Y-95578842D01*
X153550500Y-95421158D01*
X153550500Y-95421155D01*
X153550499Y-95421153D01*
X153527302Y-95304534D01*
X153519737Y-95266503D01*
X153490800Y-95196643D01*
X153459939Y-95122136D01*
X153450500Y-95074684D01*
X153450500Y-94681004D01*
X153423581Y-94545677D01*
X153423580Y-94545676D01*
X153423580Y-94545672D01*
X153396487Y-94480263D01*
X153370778Y-94418195D01*
X153370771Y-94418182D01*
X153309457Y-94326420D01*
X153309455Y-94326417D01*
X153294116Y-94303459D01*
X152736819Y-93746162D01*
X152703334Y-93684839D01*
X152700500Y-93658481D01*
X152700500Y-91624499D01*
X152720185Y-91557460D01*
X152772989Y-91511705D01*
X152824500Y-91500499D01*
X153000371Y-91500499D01*
X153000372Y-91500499D01*
X153059983Y-91494091D01*
X153194831Y-91443796D01*
X153310046Y-91357546D01*
X153396296Y-91242331D01*
X153446591Y-91107483D01*
X153453000Y-91047873D01*
X153452999Y-88952128D01*
X153446591Y-88892517D01*
X153441618Y-88879185D01*
X153396297Y-88757671D01*
X153396293Y-88757664D01*
X153310047Y-88642455D01*
X153310044Y-88642452D01*
X153194835Y-88556206D01*
X153194828Y-88556202D01*
X153059982Y-88505908D01*
X153059983Y-88505908D01*
X153000383Y-88499501D01*
X153000381Y-88499500D01*
X153000373Y-88499500D01*
X153000364Y-88499500D01*
X150999629Y-88499500D01*
X150999623Y-88499501D01*
X150940016Y-88505908D01*
X150805171Y-88556202D01*
X150805164Y-88556206D01*
X150689955Y-88642452D01*
X150689952Y-88642455D01*
X150603706Y-88757664D01*
X150603702Y-88757671D01*
X150593127Y-88786026D01*
X150551256Y-88841960D01*
X150485791Y-88866377D01*
X150417518Y-88851525D01*
X150404060Y-88843011D01*
X150221279Y-88710213D01*
X150017568Y-88606417D01*
X149800124Y-88535765D01*
X149710000Y-88521490D01*
X149710000Y-89509252D01*
X149672292Y-89487482D01*
X149532409Y-89450000D01*
X149387591Y-89450000D01*
X149247708Y-89487482D01*
X149210000Y-89509252D01*
X149210000Y-88521490D01*
X149209999Y-88521490D01*
X149119875Y-88535765D01*
X148902431Y-88606417D01*
X148698723Y-88710211D01*
X148513757Y-88844597D01*
X148352097Y-89006257D01*
X148290627Y-89090864D01*
X148235297Y-89133529D01*
X148165684Y-89139508D01*
X148103889Y-89106902D01*
X148089991Y-89090864D01*
X148028286Y-89005934D01*
X147866566Y-88844214D01*
X147681538Y-88709783D01*
X147477755Y-88605950D01*
X147260248Y-88535278D01*
X147074812Y-88505908D01*
X147034354Y-88499500D01*
X146805646Y-88499500D01*
X146765188Y-88505908D01*
X146579753Y-88535278D01*
X146579750Y-88535278D01*
X146362244Y-88605950D01*
X146158461Y-88709783D01*
X146092550Y-88757671D01*
X145973434Y-88844214D01*
X145973432Y-88844216D01*
X145973431Y-88844216D01*
X145811716Y-89005931D01*
X145811716Y-89005932D01*
X145811714Y-89005934D01*
X145808551Y-89010288D01*
X145677283Y-89190961D01*
X145573450Y-89394744D01*
X145502778Y-89612250D01*
X145502778Y-89612253D01*
X145467000Y-89838146D01*
X145467000Y-90161853D01*
X145502778Y-90387746D01*
X145502778Y-90387749D01*
X145573450Y-90605255D01*
X145573452Y-90605258D01*
X145677283Y-90809038D01*
X145811714Y-90994066D01*
X145973434Y-91155786D01*
X146053523Y-91213974D01*
X146158463Y-91290218D01*
X146160280Y-91291331D01*
X146160826Y-91291934D01*
X146162404Y-91293081D01*
X146162163Y-91293412D01*
X146207160Y-91343138D01*
X146219500Y-91397064D01*
X146219500Y-94392439D01*
X146210258Y-94423912D01*
X146202142Y-94455712D01*
X146200461Y-94457276D01*
X146199815Y-94459478D01*
X146175033Y-94480951D01*
X146151005Y-94503323D01*
X146148744Y-94503730D01*
X146147011Y-94505233D01*
X146114550Y-94509900D01*
X146082246Y-94515729D01*
X146079279Y-94514971D01*
X146077853Y-94515177D01*
X146048048Y-94507000D01*
X145984814Y-94480808D01*
X145944585Y-94453928D01*
X145446546Y-93955888D01*
X145446545Y-93955887D01*
X145331807Y-93879222D01*
X145204332Y-93826421D01*
X145204322Y-93826418D01*
X145068996Y-93799500D01*
X145068994Y-93799500D01*
X145068993Y-93799500D01*
X143925316Y-93799500D01*
X143877864Y-93790061D01*
X143733501Y-93730264D01*
X143733489Y-93730261D01*
X143578845Y-93699500D01*
X143578842Y-93699500D01*
X143421158Y-93699500D01*
X143421155Y-93699500D01*
X143266510Y-93730261D01*
X143266498Y-93730264D01*
X143120827Y-93790602D01*
X143120814Y-93790609D01*
X142989711Y-93878210D01*
X142989707Y-93878213D01*
X142878213Y-93989707D01*
X142878210Y-93989711D01*
X142790609Y-94120814D01*
X142790602Y-94120827D01*
X142730264Y-94266498D01*
X142730261Y-94266510D01*
X142699500Y-94421153D01*
X141700500Y-94421153D01*
X141700500Y-91372351D01*
X141720185Y-91305312D01*
X141772989Y-91259557D01*
X141811247Y-91249061D01*
X141857483Y-91244091D01*
X141992331Y-91193796D01*
X142107546Y-91107546D01*
X142193796Y-90992331D01*
X142244091Y-90857483D01*
X142250500Y-90797873D01*
X142250499Y-89202128D01*
X142244091Y-89142517D01*
X142236359Y-89121787D01*
X142193797Y-89007671D01*
X142193793Y-89007664D01*
X142107547Y-88892455D01*
X142107544Y-88892452D01*
X141992335Y-88806206D01*
X141992328Y-88806202D01*
X141857482Y-88755908D01*
X141857483Y-88755908D01*
X141797883Y-88749501D01*
X141797881Y-88749500D01*
X141797873Y-88749500D01*
X141797864Y-88749500D01*
X140202129Y-88749500D01*
X140202123Y-88749501D01*
X140142516Y-88755908D01*
X140007671Y-88806202D01*
X140007664Y-88806206D01*
X139892455Y-88892452D01*
X139892452Y-88892455D01*
X139829266Y-88976861D01*
X139773332Y-89018732D01*
X139703641Y-89023716D01*
X139642318Y-88990230D01*
X139630734Y-88976861D01*
X139567547Y-88892455D01*
X139567544Y-88892452D01*
X139452335Y-88806206D01*
X139452328Y-88806202D01*
X139317482Y-88755908D01*
X139317483Y-88755908D01*
X139257883Y-88749501D01*
X139257881Y-88749500D01*
X139257873Y-88749500D01*
X139257864Y-88749500D01*
X137662129Y-88749500D01*
X137662123Y-88749501D01*
X137602516Y-88755908D01*
X137467671Y-88806202D01*
X137467664Y-88806206D01*
X137352455Y-88892452D01*
X137352452Y-88892455D01*
X137289266Y-88976861D01*
X137233332Y-89018732D01*
X137163641Y-89023716D01*
X137102318Y-88990230D01*
X137090734Y-88976861D01*
X137027547Y-88892455D01*
X137027544Y-88892452D01*
X136912335Y-88806206D01*
X136912328Y-88806202D01*
X136777482Y-88755908D01*
X136777483Y-88755908D01*
X136717883Y-88749501D01*
X136717881Y-88749500D01*
X136717873Y-88749500D01*
X136717864Y-88749500D01*
X135122129Y-88749500D01*
X135122123Y-88749501D01*
X135062516Y-88755908D01*
X134927671Y-88806202D01*
X134927664Y-88806206D01*
X134812455Y-88892452D01*
X134812452Y-88892455D01*
X134726206Y-89007664D01*
X134726202Y-89007671D01*
X134675908Y-89142517D01*
X134670700Y-89190962D01*
X134669501Y-89202123D01*
X134669500Y-89202135D01*
X134669500Y-90797870D01*
X134669501Y-90797876D01*
X134675908Y-90857483D01*
X134726202Y-90992328D01*
X134726206Y-90992335D01*
X134812452Y-91107544D01*
X134812455Y-91107547D01*
X134927664Y-91193793D01*
X134927671Y-91193797D01*
X135062517Y-91244091D01*
X135062516Y-91244091D01*
X135069444Y-91244835D01*
X135122127Y-91250500D01*
X136717872Y-91250499D01*
X136777483Y-91244091D01*
X136912331Y-91193796D01*
X137027546Y-91107546D01*
X137090734Y-91023136D01*
X137146667Y-90981267D01*
X137216359Y-90976283D01*
X137277682Y-91009768D01*
X137289260Y-91023130D01*
X137352454Y-91107546D01*
X137361789Y-91114534D01*
X137467664Y-91193793D01*
X137467671Y-91193797D01*
X137602517Y-91244091D01*
X137602516Y-91244091D01*
X137609444Y-91244835D01*
X137662127Y-91250500D01*
X138459480Y-91250499D01*
X138526519Y-91270183D01*
X138572274Y-91322987D01*
X138582218Y-91392146D01*
X138553193Y-91455702D01*
X138547161Y-91462180D01*
X136746162Y-93263181D01*
X136684839Y-93296666D01*
X136658481Y-93299500D01*
X132374499Y-93299500D01*
X132307460Y-93279815D01*
X132261705Y-93227011D01*
X132250499Y-93175500D01*
X132250499Y-92202129D01*
X132250498Y-92202123D01*
X132250497Y-92202116D01*
X132244091Y-92142517D01*
X132232149Y-92110500D01*
X132193797Y-92007671D01*
X132193793Y-92007664D01*
X132107547Y-91892455D01*
X132107544Y-91892452D01*
X131992335Y-91806206D01*
X131992328Y-91806202D01*
X131857482Y-91755908D01*
X131857483Y-91755908D01*
X131797883Y-91749501D01*
X131797881Y-91749500D01*
X131797873Y-91749500D01*
X131797864Y-91749500D01*
X128202129Y-91749500D01*
X128202123Y-91749501D01*
X128142516Y-91755908D01*
X128007671Y-91806202D01*
X128007664Y-91806206D01*
X127892455Y-91892452D01*
X127892452Y-91892455D01*
X127806206Y-92007664D01*
X127806202Y-92007671D01*
X127755908Y-92142517D01*
X127750100Y-92196543D01*
X127749501Y-92202123D01*
X127749500Y-92202135D01*
X127749500Y-95797870D01*
X127749501Y-95797876D01*
X127755908Y-95857483D01*
X127806202Y-95992328D01*
X127806206Y-95992335D01*
X127892452Y-96107544D01*
X127892455Y-96107547D01*
X128007664Y-96193793D01*
X128007673Y-96193798D01*
X128054937Y-96211426D01*
X128110871Y-96253296D01*
X128135289Y-96318760D01*
X128120438Y-96387033D01*
X128071033Y-96436439D01*
X128005028Y-96451433D01*
X127968657Y-96449501D01*
X127968628Y-96449500D01*
X127968622Y-96449500D01*
X126031378Y-96449500D01*
X126031370Y-96449500D01*
X126031347Y-96449501D01*
X125978756Y-96452295D01*
X125978755Y-96452295D01*
X125748878Y-96496754D01*
X125748876Y-96496754D01*
X125748874Y-96496755D01*
X125709323Y-96511681D01*
X125529810Y-96579425D01*
X125327868Y-96697929D01*
X125327861Y-96697934D01*
X125148858Y-96848856D01*
X125148856Y-96848858D01*
X124997934Y-97027861D01*
X124997929Y-97027868D01*
X124879425Y-97229810D01*
X124824659Y-97374933D01*
X124796755Y-97448874D01*
X124796754Y-97448876D01*
X124796754Y-97448878D01*
X124752295Y-97678755D01*
X124752295Y-97678756D01*
X124749501Y-97731347D01*
X124749500Y-97731386D01*
X114660198Y-97731386D01*
X114660198Y-92935803D01*
X122000000Y-92935803D01*
X122000000Y-93750000D01*
X123500000Y-93750000D01*
X123500000Y-94250000D01*
X122000001Y-94250000D01*
X122000001Y-95064197D01*
X122010400Y-95196332D01*
X122065377Y-95414519D01*
X122158428Y-95619374D01*
X122158431Y-95619380D01*
X122286559Y-95804323D01*
X122286569Y-95804335D01*
X122445664Y-95963430D01*
X122445676Y-95963440D01*
X122630619Y-96091568D01*
X122630625Y-96091571D01*
X122835480Y-96184622D01*
X123053667Y-96239599D01*
X123185810Y-96249999D01*
X123749999Y-96249999D01*
X123750000Y-96249998D01*
X123750000Y-95433012D01*
X123807007Y-95465925D01*
X123934174Y-95500000D01*
X124065826Y-95500000D01*
X124192993Y-95465925D01*
X124250000Y-95433012D01*
X124250000Y-96249999D01*
X124814182Y-96249999D01*
X124814197Y-96249998D01*
X124946332Y-96239599D01*
X125164519Y-96184622D01*
X125369374Y-96091571D01*
X125369380Y-96091568D01*
X125554323Y-95963440D01*
X125554335Y-95963430D01*
X125713430Y-95804335D01*
X125713440Y-95804323D01*
X125841568Y-95619380D01*
X125841571Y-95619374D01*
X125934622Y-95414519D01*
X125989599Y-95196332D01*
X125999999Y-95064196D01*
X126000000Y-95064184D01*
X126000000Y-94250000D01*
X124500000Y-94250000D01*
X124500000Y-93750000D01*
X125999999Y-93750000D01*
X125999999Y-92935817D01*
X125999998Y-92935802D01*
X125989599Y-92803667D01*
X125934622Y-92585480D01*
X125841571Y-92380625D01*
X125841568Y-92380619D01*
X125713440Y-92195676D01*
X125713430Y-92195664D01*
X125554335Y-92036569D01*
X125554323Y-92036559D01*
X125369380Y-91908431D01*
X125369374Y-91908428D01*
X125164519Y-91815377D01*
X124946332Y-91760400D01*
X124814196Y-91750000D01*
X124250000Y-91750000D01*
X124250000Y-92566988D01*
X124192993Y-92534075D01*
X124065826Y-92500000D01*
X123934174Y-92500000D01*
X123807007Y-92534075D01*
X123750000Y-92566988D01*
X123750000Y-91750000D01*
X123185817Y-91750000D01*
X123185802Y-91750001D01*
X123053667Y-91760400D01*
X122835480Y-91815377D01*
X122630625Y-91908428D01*
X122630619Y-91908431D01*
X122445676Y-92036559D01*
X122445664Y-92036569D01*
X122286569Y-92195664D01*
X122286559Y-92195676D01*
X122158431Y-92380619D01*
X122158428Y-92380625D01*
X122065377Y-92585480D01*
X122010400Y-92803667D01*
X122000000Y-92935803D01*
X114660198Y-92935803D01*
X114660198Y-74897648D01*
X157539500Y-74897648D01*
X157539500Y-75102351D01*
X157571522Y-75304534D01*
X157634781Y-75499223D01*
X157686135Y-75600009D01*
X157727585Y-75681359D01*
X157727715Y-75681613D01*
X157848028Y-75847213D01*
X157992786Y-75991971D01*
X158113226Y-76079474D01*
X158158390Y-76112287D01*
X158274607Y-76171503D01*
X158340776Y-76205218D01*
X158340778Y-76205218D01*
X158340781Y-76205220D01*
X158431856Y-76234812D01*
X158535465Y-76268477D01*
X158636557Y-76284488D01*
X158737648Y-76300500D01*
X158737649Y-76300500D01*
X158942350Y-76300500D01*
X158942352Y-76300500D01*
X159059068Y-76282013D01*
X159128362Y-76290967D01*
X159166148Y-76316805D01*
X161723181Y-78873838D01*
X161756666Y-78935161D01*
X161759500Y-78961519D01*
X161759500Y-84475500D01*
X161739815Y-84542539D01*
X161687011Y-84588294D01*
X161635501Y-84599500D01*
X161512130Y-84599500D01*
X161512123Y-84599501D01*
X161452516Y-84605908D01*
X161317671Y-84656202D01*
X161317664Y-84656206D01*
X161202455Y-84742452D01*
X161202452Y-84742455D01*
X161116206Y-84857664D01*
X161116202Y-84857671D01*
X161065908Y-84992517D01*
X161059501Y-85052116D01*
X161059500Y-85052135D01*
X161059500Y-86947870D01*
X161059501Y-86947876D01*
X161065908Y-87007483D01*
X161116202Y-87142328D01*
X161116206Y-87142335D01*
X161202452Y-87257544D01*
X161202455Y-87257547D01*
X161317664Y-87343793D01*
X161317671Y-87343797D01*
X161452517Y-87394091D01*
X161452516Y-87394091D01*
X161459444Y-87394835D01*
X161512127Y-87400500D01*
X163407872Y-87400499D01*
X163467483Y-87394091D01*
X163602331Y-87343796D01*
X163717546Y-87257546D01*
X163803796Y-87142331D01*
X163821559Y-87094705D01*
X163833601Y-87062420D01*
X163875471Y-87006486D01*
X163940936Y-86982068D01*
X164009209Y-86996919D01*
X164037464Y-87018071D01*
X164087635Y-87068242D01*
X164248386Y-87185034D01*
X164291051Y-87240362D01*
X164299500Y-87285351D01*
X164299500Y-91271981D01*
X164279815Y-91339020D01*
X164244395Y-91375080D01*
X164239715Y-91378207D01*
X164239707Y-91378213D01*
X164128213Y-91489707D01*
X164128210Y-91489711D01*
X164040609Y-91620814D01*
X164040602Y-91620827D01*
X163980264Y-91766498D01*
X163980261Y-91766510D01*
X163949500Y-91921153D01*
X163949500Y-92078846D01*
X163980261Y-92233489D01*
X163980264Y-92233501D01*
X164040602Y-92379172D01*
X164040609Y-92379185D01*
X164128210Y-92510288D01*
X164128213Y-92510292D01*
X164239707Y-92621786D01*
X164239711Y-92621789D01*
X164370814Y-92709390D01*
X164370827Y-92709397D01*
X164516498Y-92769735D01*
X164516503Y-92769737D01*
X164671153Y-92800499D01*
X164671156Y-92800500D01*
X164671158Y-92800500D01*
X164828844Y-92800500D01*
X164828845Y-92800499D01*
X164983497Y-92769737D01*
X165129179Y-92709394D01*
X165260289Y-92621789D01*
X165371789Y-92510289D01*
X165459394Y-92379179D01*
X165519192Y-92234813D01*
X165541133Y-92201981D01*
X165540247Y-92201254D01*
X165544112Y-92196544D01*
X165580213Y-92142517D01*
X165601606Y-92110500D01*
X165620775Y-92081811D01*
X165673580Y-91954328D01*
X165673902Y-91952712D01*
X165680178Y-91921158D01*
X165700500Y-91818993D01*
X165700500Y-87285351D01*
X165720185Y-87218312D01*
X165751611Y-87185035D01*
X165912365Y-87068242D01*
X166068242Y-86912365D01*
X166197815Y-86734022D01*
X166297895Y-86537606D01*
X166366015Y-86327951D01*
X166400500Y-86110222D01*
X166400500Y-85889778D01*
X166366015Y-85672049D01*
X166310365Y-85500773D01*
X166297896Y-85462396D01*
X166297895Y-85462393D01*
X166239294Y-85347384D01*
X166197815Y-85265978D01*
X166115573Y-85152781D01*
X166068247Y-85087641D01*
X166068243Y-85087636D01*
X165912363Y-84931756D01*
X165912358Y-84931752D01*
X165734025Y-84802187D01*
X165734024Y-84802186D01*
X165734022Y-84802185D01*
X165616791Y-84742452D01*
X165537606Y-84702104D01*
X165537603Y-84702103D01*
X165327952Y-84633985D01*
X165219086Y-84616742D01*
X165110222Y-84599500D01*
X164889778Y-84599500D01*
X164817201Y-84610995D01*
X164672047Y-84633985D01*
X164462396Y-84702103D01*
X164462393Y-84702104D01*
X164265974Y-84802187D01*
X164087641Y-84931752D01*
X164087636Y-84931756D01*
X164037463Y-84981929D01*
X163976140Y-85015413D01*
X163906448Y-85010428D01*
X163850515Y-84968557D01*
X163833601Y-84937580D01*
X163803797Y-84857671D01*
X163803793Y-84857664D01*
X163717547Y-84742455D01*
X163717544Y-84742452D01*
X163602335Y-84656206D01*
X163602328Y-84656202D01*
X163467482Y-84605908D01*
X163467483Y-84605908D01*
X163407883Y-84599501D01*
X163407881Y-84599500D01*
X163407873Y-84599500D01*
X163407865Y-84599500D01*
X163284500Y-84599500D01*
X163217461Y-84579815D01*
X163171706Y-84527011D01*
X163160500Y-84475500D01*
X163160500Y-78551004D01*
X163133581Y-78415677D01*
X163133580Y-78415676D01*
X163133580Y-78415672D01*
X163085460Y-78299500D01*
X163080776Y-78288191D01*
X163080775Y-78288189D01*
X163023177Y-78201987D01*
X163004114Y-78173457D01*
X163004113Y-78173455D01*
X163004111Y-78173453D01*
X160950553Y-76119896D01*
X160156805Y-75326148D01*
X160123320Y-75264825D01*
X160122013Y-75219068D01*
X160140500Y-75102349D01*
X160140500Y-74897682D01*
X167700000Y-74897682D01*
X167700000Y-75102317D01*
X167732009Y-75304417D01*
X167795244Y-75499031D01*
X167888141Y-75681350D01*
X167888147Y-75681359D01*
X167920523Y-75725921D01*
X167920524Y-75725922D01*
X168600000Y-75046446D01*
X168600000Y-75052661D01*
X168627259Y-75154394D01*
X168679920Y-75245606D01*
X168754394Y-75320080D01*
X168845606Y-75372741D01*
X168947339Y-75400000D01*
X168953553Y-75400000D01*
X168274076Y-76079474D01*
X168318650Y-76111859D01*
X168500968Y-76204755D01*
X168695582Y-76267990D01*
X168897683Y-76300000D01*
X169102317Y-76300000D01*
X169304417Y-76267990D01*
X169499031Y-76204755D01*
X169681349Y-76111859D01*
X169725921Y-76079474D01*
X169046447Y-75400000D01*
X169052661Y-75400000D01*
X169154394Y-75372741D01*
X169245606Y-75320080D01*
X169320080Y-75245606D01*
X169372741Y-75154394D01*
X169400000Y-75052661D01*
X169400000Y-75046447D01*
X170079474Y-75725921D01*
X170111859Y-75681349D01*
X170204755Y-75499031D01*
X170267990Y-75304417D01*
X170300000Y-75102317D01*
X170300000Y-74897682D01*
X170267990Y-74695582D01*
X170204755Y-74500968D01*
X170111859Y-74318650D01*
X170079474Y-74274077D01*
X170079474Y-74274076D01*
X169400000Y-74953551D01*
X169400000Y-74947339D01*
X169372741Y-74845606D01*
X169320080Y-74754394D01*
X169245606Y-74679920D01*
X169154394Y-74627259D01*
X169052661Y-74600000D01*
X169046446Y-74600000D01*
X169725922Y-73920524D01*
X169725921Y-73920523D01*
X169681359Y-73888147D01*
X169681350Y-73888141D01*
X169499031Y-73795244D01*
X169304417Y-73732009D01*
X169102317Y-73700000D01*
X168897683Y-73700000D01*
X168695582Y-73732009D01*
X168500968Y-73795244D01*
X168318644Y-73888143D01*
X168274077Y-73920523D01*
X168274077Y-73920524D01*
X168953554Y-74600000D01*
X168947339Y-74600000D01*
X168845606Y-74627259D01*
X168754394Y-74679920D01*
X168679920Y-74754394D01*
X168627259Y-74845606D01*
X168600000Y-74947339D01*
X168600000Y-74953553D01*
X167920524Y-74274077D01*
X167920523Y-74274077D01*
X167888143Y-74318644D01*
X167795244Y-74500968D01*
X167732009Y-74695582D01*
X167700000Y-74897682D01*
X160140500Y-74897682D01*
X160140500Y-74897648D01*
X160108477Y-74695465D01*
X160070892Y-74579792D01*
X160045220Y-74500781D01*
X160045218Y-74500778D01*
X160045218Y-74500776D01*
X159993865Y-74399991D01*
X159952287Y-74318390D01*
X159920092Y-74274077D01*
X159831971Y-74152786D01*
X159687213Y-74008028D01*
X159521613Y-73887715D01*
X159521612Y-73887714D01*
X159521610Y-73887713D01*
X159461898Y-73857288D01*
X159339223Y-73794781D01*
X159144534Y-73731522D01*
X158969995Y-73703878D01*
X158942352Y-73699500D01*
X158737648Y-73699500D01*
X158713329Y-73703351D01*
X158535465Y-73731522D01*
X158340776Y-73794781D01*
X158158386Y-73887715D01*
X157992786Y-74008028D01*
X157848028Y-74152786D01*
X157727715Y-74318386D01*
X157634781Y-74500776D01*
X157571522Y-74695465D01*
X157539500Y-74897648D01*
X114660198Y-74897648D01*
X114660198Y-60878711D01*
X118149500Y-60878711D01*
X118149500Y-61121288D01*
X118181161Y-61361785D01*
X118243947Y-61596104D01*
X118336773Y-61820205D01*
X118336776Y-61820212D01*
X118458064Y-62030289D01*
X118458066Y-62030292D01*
X118458067Y-62030293D01*
X118605733Y-62222736D01*
X118605739Y-62222743D01*
X118777256Y-62394260D01*
X118777262Y-62394265D01*
X118969711Y-62541936D01*
X119179788Y-62663224D01*
X119403900Y-62756054D01*
X119638211Y-62818838D01*
X119818586Y-62842584D01*
X119878711Y-62850500D01*
X119878712Y-62850500D01*
X120121289Y-62850500D01*
X120169388Y-62844167D01*
X120361789Y-62818838D01*
X120596100Y-62756054D01*
X120820212Y-62663224D01*
X121030289Y-62541936D01*
X121222738Y-62394265D01*
X121394265Y-62222738D01*
X121541936Y-62030289D01*
X121663224Y-61820212D01*
X121756054Y-61596100D01*
X121818838Y-61361789D01*
X121850500Y-61121288D01*
X121850500Y-60878712D01*
X121818838Y-60638211D01*
X121756054Y-60403900D01*
X121663224Y-60179788D01*
X121541936Y-59969711D01*
X121394265Y-59777262D01*
X121394260Y-59777256D01*
X121222743Y-59605739D01*
X121222736Y-59605733D01*
X121030293Y-59458067D01*
X121030292Y-59458066D01*
X121030289Y-59458064D01*
X120820212Y-59336776D01*
X120820205Y-59336773D01*
X120596104Y-59243947D01*
X120361785Y-59181161D01*
X120121289Y-59149500D01*
X120121288Y-59149500D01*
X119878712Y-59149500D01*
X119878711Y-59149500D01*
X119638214Y-59181161D01*
X119403895Y-59243947D01*
X119179794Y-59336773D01*
X119179785Y-59336777D01*
X118969706Y-59458067D01*
X118777263Y-59605733D01*
X118777256Y-59605739D01*
X118605739Y-59777256D01*
X118605733Y-59777263D01*
X118458067Y-59969706D01*
X118336777Y-60179785D01*
X118336773Y-60179794D01*
X118243947Y-60403895D01*
X118181161Y-60638214D01*
X118149500Y-60878711D01*
X114660198Y-60878711D01*
X114660198Y-60407384D01*
X114660316Y-60401975D01*
X114663515Y-60328696D01*
X114677085Y-60017902D01*
X114678023Y-60007174D01*
X114727849Y-59628710D01*
X114729722Y-59618080D01*
X114812346Y-59245392D01*
X114815144Y-59234954D01*
X114914803Y-58918872D01*
X153999500Y-58918872D01*
X153999500Y-59181127D01*
X154019993Y-59336776D01*
X154033730Y-59441116D01*
X154081144Y-59618068D01*
X154101602Y-59694418D01*
X154101605Y-59694428D01*
X154201953Y-59936690D01*
X154201958Y-59936700D01*
X154333075Y-60163803D01*
X154492718Y-60371851D01*
X154492726Y-60371860D01*
X154678140Y-60557274D01*
X154678148Y-60557281D01*
X154886196Y-60716924D01*
X155113299Y-60848041D01*
X155113309Y-60848046D01*
X155355571Y-60948394D01*
X155355581Y-60948398D01*
X155608884Y-61016270D01*
X155857188Y-61048960D01*
X155868864Y-61050498D01*
X155868880Y-61050500D01*
X155868887Y-61050500D01*
X156131113Y-61050500D01*
X156131120Y-61050500D01*
X156391116Y-61016270D01*
X156644419Y-60948398D01*
X156849320Y-60863525D01*
X156886690Y-60848046D01*
X156886691Y-60848045D01*
X156886697Y-60848043D01*
X157113803Y-60716924D01*
X157321851Y-60557282D01*
X157321855Y-60557277D01*
X157321860Y-60557274D01*
X157507274Y-60371860D01*
X157507277Y-60371855D01*
X157507282Y-60371851D01*
X157666924Y-60163803D01*
X157798043Y-59936697D01*
X157898398Y-59694419D01*
X157966270Y-59441116D01*
X158000500Y-59181120D01*
X158000500Y-58918880D01*
X158000499Y-58918872D01*
X158999500Y-58918872D01*
X158999500Y-59181127D01*
X159019993Y-59336776D01*
X159033730Y-59441116D01*
X159081144Y-59618068D01*
X159101602Y-59694418D01*
X159101605Y-59694428D01*
X159201953Y-59936690D01*
X159201958Y-59936700D01*
X159333075Y-60163803D01*
X159492718Y-60371851D01*
X159492726Y-60371860D01*
X159678140Y-60557274D01*
X159678148Y-60557281D01*
X159886196Y-60716924D01*
X160113299Y-60848041D01*
X160113309Y-60848046D01*
X160355571Y-60948394D01*
X160355581Y-60948398D01*
X160608884Y-61016270D01*
X160857188Y-61048960D01*
X160868864Y-61050498D01*
X160868880Y-61050500D01*
X160868887Y-61050500D01*
X161131113Y-61050500D01*
X161131120Y-61050500D01*
X161391116Y-61016270D01*
X161644419Y-60948398D01*
X161849320Y-60863525D01*
X161886690Y-60848046D01*
X161886691Y-60848045D01*
X161886697Y-60848043D01*
X162113803Y-60716924D01*
X162321851Y-60557282D01*
X162321855Y-60557277D01*
X162321860Y-60557274D01*
X162507274Y-60371860D01*
X162507277Y-60371855D01*
X162507282Y-60371851D01*
X162666924Y-60163803D01*
X162798043Y-59936697D01*
X162898398Y-59694419D01*
X162966270Y-59441116D01*
X163000500Y-59181120D01*
X163000500Y-58918880D01*
X162966270Y-58658884D01*
X162898398Y-58405581D01*
X162852977Y-58295927D01*
X162845509Y-58226461D01*
X162876784Y-58163981D01*
X162879827Y-58160827D01*
X163353837Y-57686819D01*
X163415160Y-57653334D01*
X163441518Y-57650500D01*
X163875500Y-57650500D01*
X163942539Y-57670185D01*
X163988294Y-57722989D01*
X163999500Y-57774500D01*
X163999500Y-60597870D01*
X163999501Y-60597876D01*
X164005908Y-60657483D01*
X164056202Y-60792328D01*
X164056206Y-60792335D01*
X164142452Y-60907544D01*
X164142455Y-60907547D01*
X164257664Y-60993793D01*
X164257671Y-60993797D01*
X164392517Y-61044091D01*
X164392516Y-61044091D01*
X164399444Y-61044835D01*
X164452127Y-61050500D01*
X165175500Y-61050499D01*
X165242539Y-61070183D01*
X165288294Y-61122987D01*
X165299500Y-61174499D01*
X165299500Y-64931006D01*
X165299500Y-65068994D01*
X165299500Y-65068996D01*
X165299499Y-65068996D01*
X165326418Y-65204322D01*
X165326421Y-65204332D01*
X165379222Y-65331807D01*
X165455887Y-65446545D01*
X165455888Y-65446546D01*
X173956366Y-73947023D01*
X173989851Y-74008346D01*
X173984867Y-74078038D01*
X173974224Y-74099800D01*
X173955189Y-74130659D01*
X173955185Y-74130668D01*
X173927349Y-74214670D01*
X173900001Y-74297203D01*
X173900001Y-74297204D01*
X173900000Y-74297204D01*
X173889500Y-74399983D01*
X173889500Y-75600001D01*
X173889501Y-75600018D01*
X173900000Y-75702796D01*
X173900001Y-75702799D01*
X173947856Y-75847213D01*
X173955186Y-75869334D01*
X174047288Y-76018656D01*
X174171344Y-76142712D01*
X174320666Y-76234814D01*
X174487203Y-76289999D01*
X174589991Y-76300500D01*
X175790008Y-76300499D01*
X175892797Y-76289999D01*
X176059334Y-76234814D01*
X176208656Y-76142712D01*
X176332712Y-76018656D01*
X176424814Y-75869334D01*
X176479999Y-75702797D01*
X176490500Y-75600009D01*
X176490499Y-74399992D01*
X176479999Y-74297203D01*
X176424814Y-74130666D01*
X176332712Y-73981344D01*
X176208656Y-73857288D01*
X176059334Y-73765186D01*
X176059333Y-73765185D01*
X176059325Y-73765182D01*
X176009649Y-73748721D01*
X175952204Y-73708948D01*
X175945551Y-73699906D01*
X175945280Y-73699501D01*
X175889464Y-73615965D01*
X175889462Y-73615962D01*
X175764038Y-73490538D01*
X175764034Y-73490535D01*
X175616553Y-73391990D01*
X175616540Y-73391983D01*
X175452667Y-73324106D01*
X175452658Y-73324103D01*
X175317413Y-73297202D01*
X175255502Y-73264817D01*
X175253923Y-73263266D01*
X166736819Y-64746162D01*
X166703334Y-64684839D01*
X166700500Y-64658481D01*
X166700500Y-61174499D01*
X166720185Y-61107460D01*
X166772989Y-61061705D01*
X166824500Y-61050499D01*
X167547871Y-61050499D01*
X167547872Y-61050499D01*
X167607483Y-61044091D01*
X167742331Y-60993796D01*
X167857546Y-60907546D01*
X167943796Y-60792331D01*
X167994091Y-60657483D01*
X168000500Y-60597873D01*
X168000499Y-57774499D01*
X168020184Y-57707461D01*
X168072987Y-57661706D01*
X168124499Y-57650500D01*
X173438582Y-57650500D01*
X173505621Y-57670185D01*
X173526263Y-57686819D01*
X195383554Y-79544111D01*
X195383555Y-79544112D01*
X195498293Y-79620777D01*
X195625768Y-79673578D01*
X195625773Y-79673580D01*
X195625777Y-79673580D01*
X195625778Y-79673581D01*
X195761104Y-79700500D01*
X195761107Y-79700500D01*
X195761108Y-79700500D01*
X197758256Y-79700500D01*
X197825295Y-79720185D01*
X197858575Y-79751616D01*
X197928030Y-79847215D01*
X198072786Y-79991971D01*
X198227749Y-80104556D01*
X198238390Y-80112287D01*
X198354607Y-80171503D01*
X198420776Y-80205218D01*
X198420778Y-80205218D01*
X198420781Y-80205220D01*
X198525137Y-80239127D01*
X198615465Y-80268477D01*
X198716557Y-80284488D01*
X198817648Y-80300500D01*
X198817649Y-80300500D01*
X199022351Y-80300500D01*
X199022352Y-80300500D01*
X199224534Y-80268477D01*
X199419219Y-80205220D01*
X199601610Y-80112287D01*
X199694590Y-80044732D01*
X199767213Y-79991971D01*
X199767215Y-79991968D01*
X199767219Y-79991966D01*
X199911966Y-79847219D01*
X199911968Y-79847215D01*
X199911971Y-79847213D01*
X199981425Y-79751616D01*
X200032287Y-79681610D01*
X200125220Y-79499219D01*
X200188477Y-79304534D01*
X200220500Y-79102352D01*
X200220500Y-78897648D01*
X200188477Y-78695466D01*
X200125220Y-78500781D01*
X200125218Y-78500778D01*
X200125218Y-78500776D01*
X200081852Y-78415667D01*
X200032287Y-78318390D01*
X199992176Y-78263181D01*
X199911971Y-78152786D01*
X199767213Y-78008028D01*
X199601613Y-77887715D01*
X199601612Y-77887714D01*
X199601610Y-77887713D01*
X199544653Y-77858691D01*
X199419223Y-77794781D01*
X199224534Y-77731522D01*
X199049995Y-77703878D01*
X199022352Y-77699500D01*
X198817648Y-77699500D01*
X198793329Y-77703351D01*
X198615465Y-77731522D01*
X198420776Y-77794781D01*
X198238386Y-77887715D01*
X198072786Y-78008028D01*
X197928030Y-78152784D01*
X197858575Y-78248384D01*
X197803245Y-78291051D01*
X197758256Y-78299500D01*
X196171620Y-78299500D01*
X196104581Y-78279815D01*
X196083939Y-78263181D01*
X194238521Y-76417763D01*
X194205036Y-76356440D01*
X194210020Y-76286748D01*
X194251892Y-76230815D01*
X194287880Y-76212153D01*
X194309219Y-76205220D01*
X194491610Y-76112287D01*
X194620482Y-76018657D01*
X194657213Y-75991971D01*
X194657215Y-75991968D01*
X194657219Y-75991966D01*
X194801966Y-75847219D01*
X194801968Y-75847215D01*
X194801971Y-75847213D01*
X194854732Y-75774590D01*
X194922287Y-75681610D01*
X195015220Y-75499219D01*
X195078477Y-75304534D01*
X195110500Y-75102352D01*
X195110500Y-74897648D01*
X195102257Y-74845606D01*
X195078477Y-74695465D01*
X195040892Y-74579792D01*
X195015220Y-74500781D01*
X195015218Y-74500778D01*
X195015218Y-74500776D01*
X194963865Y-74399991D01*
X194922287Y-74318390D01*
X194890092Y-74274077D01*
X194801971Y-74152786D01*
X194657217Y-74008032D01*
X194657212Y-74008028D01*
X194561615Y-73938573D01*
X194518949Y-73883243D01*
X194510500Y-73838255D01*
X194510500Y-61174499D01*
X194530185Y-61107460D01*
X194582989Y-61061705D01*
X194634500Y-61050499D01*
X196547871Y-61050499D01*
X196547872Y-61050499D01*
X196607483Y-61044091D01*
X196742331Y-60993796D01*
X196857546Y-60907546D01*
X196943796Y-60792331D01*
X196994091Y-60657483D01*
X197000500Y-60597873D01*
X197000499Y-58140517D01*
X197020184Y-58073479D01*
X197072987Y-58027724D01*
X197142146Y-58017780D01*
X197205702Y-58046805D01*
X197212180Y-58052837D01*
X208263181Y-69103837D01*
X208296666Y-69165160D01*
X208299500Y-69191518D01*
X208299500Y-70838255D01*
X208279815Y-70905294D01*
X208248385Y-70938573D01*
X208152787Y-71008028D01*
X208152782Y-71008032D01*
X208008028Y-71152786D01*
X207887715Y-71318386D01*
X207794781Y-71500776D01*
X207731522Y-71695465D01*
X207699500Y-71897648D01*
X207699500Y-72102351D01*
X207731522Y-72304534D01*
X207794781Y-72499223D01*
X207887715Y-72681613D01*
X208008028Y-72847213D01*
X208152786Y-72991971D01*
X208307749Y-73104556D01*
X208318390Y-73112287D01*
X208434607Y-73171503D01*
X208500776Y-73205218D01*
X208500778Y-73205218D01*
X208500781Y-73205220D01*
X208605137Y-73239127D01*
X208695465Y-73268477D01*
X208796557Y-73284488D01*
X208897648Y-73300500D01*
X208897649Y-73300500D01*
X209102351Y-73300500D01*
X209102352Y-73300500D01*
X209304534Y-73268477D01*
X209499219Y-73205220D01*
X209681610Y-73112287D01*
X209774590Y-73044732D01*
X209847213Y-72991971D01*
X209847215Y-72991968D01*
X209847219Y-72991966D01*
X209991966Y-72847219D01*
X209991968Y-72847215D01*
X209991971Y-72847213D01*
X210044732Y-72774590D01*
X210112287Y-72681610D01*
X210205220Y-72499219D01*
X210268477Y-72304534D01*
X210300500Y-72102352D01*
X210300500Y-71897648D01*
X210268477Y-71695466D01*
X210205220Y-71500781D01*
X210205218Y-71500778D01*
X210205218Y-71500776D01*
X210171503Y-71434607D01*
X210112287Y-71318390D01*
X210104556Y-71307749D01*
X209991971Y-71152786D01*
X209847217Y-71008032D01*
X209847212Y-71008028D01*
X209751615Y-70938573D01*
X209708949Y-70883243D01*
X209700500Y-70838255D01*
X209700500Y-68781004D01*
X209673581Y-68645677D01*
X209673580Y-68645676D01*
X209673580Y-68645672D01*
X209673578Y-68645667D01*
X209620778Y-68518195D01*
X209620771Y-68518182D01*
X209544115Y-68403459D01*
X209544114Y-68403458D01*
X209446542Y-68305886D01*
X205799137Y-64658481D01*
X202102991Y-60962334D01*
X202019368Y-60878711D01*
X206149500Y-60878711D01*
X206149500Y-61121288D01*
X206181161Y-61361785D01*
X206243947Y-61596104D01*
X206336773Y-61820205D01*
X206336776Y-61820212D01*
X206458064Y-62030289D01*
X206458066Y-62030292D01*
X206458067Y-62030293D01*
X206605733Y-62222736D01*
X206605739Y-62222743D01*
X206777256Y-62394260D01*
X206777262Y-62394265D01*
X206969711Y-62541936D01*
X207179788Y-62663224D01*
X207403900Y-62756054D01*
X207638211Y-62818838D01*
X207818586Y-62842584D01*
X207878711Y-62850500D01*
X207878712Y-62850500D01*
X208121289Y-62850500D01*
X208169388Y-62844167D01*
X208361789Y-62818838D01*
X208596100Y-62756054D01*
X208820212Y-62663224D01*
X209030289Y-62541936D01*
X209222738Y-62394265D01*
X209394265Y-62222738D01*
X209541936Y-62030289D01*
X209663224Y-61820212D01*
X209756054Y-61596100D01*
X209818838Y-61361789D01*
X209850500Y-61121288D01*
X209850500Y-60878712D01*
X209818838Y-60638211D01*
X209756054Y-60403900D01*
X209663224Y-60179788D01*
X209541936Y-59969711D01*
X209394265Y-59777262D01*
X209394260Y-59777256D01*
X209222743Y-59605739D01*
X209222736Y-59605733D01*
X209030293Y-59458067D01*
X209030292Y-59458066D01*
X209030289Y-59458064D01*
X208820212Y-59336776D01*
X208820205Y-59336773D01*
X208596104Y-59243947D01*
X208361785Y-59181161D01*
X208121289Y-59149500D01*
X208121288Y-59149500D01*
X207878712Y-59149500D01*
X207878711Y-59149500D01*
X207638214Y-59181161D01*
X207403895Y-59243947D01*
X207179794Y-59336773D01*
X207179785Y-59336777D01*
X206969706Y-59458067D01*
X206777263Y-59605733D01*
X206777256Y-59605739D01*
X206605739Y-59777256D01*
X206605733Y-59777263D01*
X206458067Y-59969706D01*
X206336777Y-60179785D01*
X206336773Y-60179794D01*
X206243947Y-60403895D01*
X206181161Y-60638214D01*
X206149500Y-60878711D01*
X202019368Y-60878711D01*
X197546546Y-56405888D01*
X197546545Y-56405887D01*
X197431807Y-56329222D01*
X197304332Y-56276421D01*
X197304322Y-56276418D01*
X197168996Y-56249500D01*
X197168994Y-56249500D01*
X197168993Y-56249500D01*
X192031007Y-56249500D01*
X192031003Y-56249500D01*
X191933760Y-56268843D01*
X191933758Y-56268843D01*
X191922591Y-56271065D01*
X191895671Y-56276420D01*
X191842866Y-56298292D01*
X191768189Y-56329225D01*
X191768188Y-56329226D01*
X191747199Y-56343249D01*
X191747192Y-56343253D01*
X191653457Y-56405886D01*
X191653453Y-56405889D01*
X190889202Y-57170140D01*
X190827879Y-57203625D01*
X190758187Y-57198641D01*
X190754068Y-57197020D01*
X190644428Y-57151605D01*
X190644421Y-57151603D01*
X190644419Y-57151602D01*
X190391116Y-57083730D01*
X190333339Y-57076123D01*
X190131127Y-57049500D01*
X190131120Y-57049500D01*
X189868880Y-57049500D01*
X189868872Y-57049500D01*
X189637772Y-57079926D01*
X189608884Y-57083730D01*
X189355581Y-57151602D01*
X189355571Y-57151605D01*
X189113309Y-57251953D01*
X189113299Y-57251958D01*
X188886196Y-57383075D01*
X188678148Y-57542718D01*
X188492718Y-57728148D01*
X188333075Y-57936196D01*
X188201958Y-58163299D01*
X188201953Y-58163309D01*
X188101605Y-58405571D01*
X188101602Y-58405581D01*
X188033730Y-58658885D01*
X187999500Y-58918872D01*
X187999500Y-59181127D01*
X188019993Y-59336776D01*
X188033730Y-59441116D01*
X188081144Y-59618068D01*
X188101602Y-59694418D01*
X188101605Y-59694428D01*
X188201953Y-59936690D01*
X188201958Y-59936700D01*
X188333075Y-60163803D01*
X188492718Y-60371851D01*
X188492726Y-60371860D01*
X188678140Y-60557274D01*
X188678148Y-60557281D01*
X188886196Y-60716924D01*
X189113299Y-60848041D01*
X189113309Y-60848046D01*
X189355571Y-60948394D01*
X189355581Y-60948398D01*
X189608884Y-61016270D01*
X189857188Y-61048960D01*
X189868864Y-61050498D01*
X189868880Y-61050500D01*
X189868887Y-61050500D01*
X190131113Y-61050500D01*
X190131120Y-61050500D01*
X190391116Y-61016270D01*
X190644419Y-60948398D01*
X190849320Y-60863525D01*
X190886690Y-60848046D01*
X190886691Y-60848045D01*
X190886697Y-60848043D01*
X191113803Y-60716924D01*
X191321851Y-60557282D01*
X191321855Y-60557277D01*
X191321860Y-60557274D01*
X191507274Y-60371860D01*
X191507277Y-60371855D01*
X191507282Y-60371851D01*
X191666924Y-60163803D01*
X191798043Y-59936697D01*
X191898398Y-59694419D01*
X191966270Y-59441116D01*
X192000500Y-59181120D01*
X192000500Y-58918880D01*
X191966270Y-58658884D01*
X191898398Y-58405581D01*
X191852977Y-58295927D01*
X191845509Y-58226461D01*
X191876784Y-58163981D01*
X191879827Y-58160827D01*
X192353837Y-57686819D01*
X192415160Y-57653334D01*
X192441518Y-57650500D01*
X192875500Y-57650500D01*
X192942539Y-57670185D01*
X192988294Y-57722989D01*
X192999500Y-57774500D01*
X192999500Y-59818933D01*
X192990061Y-59866385D01*
X192944106Y-59977329D01*
X192944103Y-59977341D01*
X192909500Y-60151303D01*
X192909500Y-60328696D01*
X192944103Y-60502658D01*
X192944105Y-60502666D01*
X193005094Y-60649904D01*
X193005909Y-60657483D01*
X193056204Y-60792331D01*
X193092812Y-60841233D01*
X193098370Y-60853450D01*
X193101476Y-60875286D01*
X193109184Y-60895950D01*
X193109500Y-60904797D01*
X193109500Y-73838255D01*
X193089815Y-73905294D01*
X193058385Y-73938573D01*
X192962787Y-74008028D01*
X192962782Y-74008032D01*
X192818028Y-74152786D01*
X192697715Y-74318386D01*
X192604779Y-74500780D01*
X192597847Y-74522117D01*
X192558409Y-74579792D01*
X192494050Y-74606989D01*
X192425204Y-74595073D01*
X192392236Y-74571478D01*
X176823261Y-59002502D01*
X176739631Y-58918872D01*
X182999500Y-58918872D01*
X182999500Y-59181127D01*
X183019993Y-59336776D01*
X183033730Y-59441116D01*
X183081144Y-59618068D01*
X183101602Y-59694418D01*
X183101605Y-59694428D01*
X183201953Y-59936690D01*
X183201958Y-59936700D01*
X183333075Y-60163803D01*
X183492718Y-60371851D01*
X183492726Y-60371860D01*
X183678140Y-60557274D01*
X183678148Y-60557281D01*
X183886196Y-60716924D01*
X184113299Y-60848041D01*
X184113309Y-60848046D01*
X184355571Y-60948394D01*
X184355581Y-60948398D01*
X184608884Y-61016270D01*
X184857188Y-61048960D01*
X184868864Y-61050498D01*
X184868880Y-61050500D01*
X184868887Y-61050500D01*
X185131113Y-61050500D01*
X185131120Y-61050500D01*
X185391116Y-61016270D01*
X185644419Y-60948398D01*
X185849320Y-60863525D01*
X185886690Y-60848046D01*
X185886691Y-60848045D01*
X185886697Y-60848043D01*
X186113803Y-60716924D01*
X186321851Y-60557282D01*
X186321855Y-60557277D01*
X186321860Y-60557274D01*
X186507274Y-60371860D01*
X186507277Y-60371855D01*
X186507282Y-60371851D01*
X186666924Y-60163803D01*
X186798043Y-59936697D01*
X186898398Y-59694419D01*
X186966270Y-59441116D01*
X187000500Y-59181120D01*
X187000500Y-58918880D01*
X186966270Y-58658884D01*
X186898398Y-58405581D01*
X186824204Y-58226461D01*
X186798046Y-58163309D01*
X186798041Y-58163299D01*
X186666924Y-57936196D01*
X186507281Y-57728148D01*
X186507274Y-57728140D01*
X186321860Y-57542726D01*
X186321851Y-57542718D01*
X186113803Y-57383075D01*
X185886700Y-57251958D01*
X185886690Y-57251953D01*
X185644428Y-57151605D01*
X185644421Y-57151603D01*
X185644419Y-57151602D01*
X185391116Y-57083730D01*
X185333339Y-57076123D01*
X185131127Y-57049500D01*
X185131120Y-57049500D01*
X184868880Y-57049500D01*
X184868872Y-57049500D01*
X184637772Y-57079926D01*
X184608884Y-57083730D01*
X184355581Y-57151602D01*
X184355571Y-57151605D01*
X184113309Y-57251953D01*
X184113299Y-57251958D01*
X183886196Y-57383075D01*
X183678148Y-57542718D01*
X183492718Y-57728148D01*
X183333075Y-57936196D01*
X183201958Y-58163299D01*
X183201953Y-58163309D01*
X183101605Y-58405571D01*
X183101602Y-58405581D01*
X183033730Y-58658885D01*
X182999500Y-58918872D01*
X176739631Y-58918872D01*
X174226646Y-56405887D01*
X174111908Y-56329222D01*
X173984433Y-56276421D01*
X173984423Y-56276418D01*
X173849097Y-56249500D01*
X173849095Y-56249500D01*
X173849094Y-56249500D01*
X163031007Y-56249500D01*
X163031003Y-56249500D01*
X162933760Y-56268843D01*
X162933758Y-56268843D01*
X162922591Y-56271065D01*
X162895671Y-56276420D01*
X162842866Y-56298292D01*
X162768189Y-56329225D01*
X162768188Y-56329226D01*
X162747199Y-56343249D01*
X162747192Y-56343253D01*
X162653457Y-56405886D01*
X162653453Y-56405889D01*
X161889202Y-57170140D01*
X161827879Y-57203625D01*
X161758187Y-57198641D01*
X161754068Y-57197020D01*
X161644428Y-57151605D01*
X161644421Y-57151603D01*
X161644419Y-57151602D01*
X161391116Y-57083730D01*
X161333339Y-57076123D01*
X161131127Y-57049500D01*
X161131120Y-57049500D01*
X160868880Y-57049500D01*
X160868872Y-57049500D01*
X160637772Y-57079926D01*
X160608884Y-57083730D01*
X160355581Y-57151602D01*
X160355571Y-57151605D01*
X160113309Y-57251953D01*
X160113299Y-57251958D01*
X159886196Y-57383075D01*
X159678148Y-57542718D01*
X159492718Y-57728148D01*
X159333075Y-57936196D01*
X159201958Y-58163299D01*
X159201953Y-58163309D01*
X159101605Y-58405571D01*
X159101602Y-58405581D01*
X159033730Y-58658885D01*
X158999500Y-58918872D01*
X158000499Y-58918872D01*
X157966270Y-58658884D01*
X157898398Y-58405581D01*
X157824204Y-58226461D01*
X157798046Y-58163309D01*
X157798041Y-58163299D01*
X157666924Y-57936196D01*
X157507281Y-57728148D01*
X157507274Y-57728140D01*
X157321860Y-57542726D01*
X157321851Y-57542718D01*
X157113803Y-57383075D01*
X156886700Y-57251958D01*
X156886690Y-57251953D01*
X156644428Y-57151605D01*
X156644421Y-57151603D01*
X156644419Y-57151602D01*
X156391116Y-57083730D01*
X156333339Y-57076123D01*
X156131127Y-57049500D01*
X156131120Y-57049500D01*
X155868880Y-57049500D01*
X155868872Y-57049500D01*
X155637772Y-57079926D01*
X155608884Y-57083730D01*
X155355581Y-57151602D01*
X155355571Y-57151605D01*
X155113309Y-57251953D01*
X155113299Y-57251958D01*
X154886196Y-57383075D01*
X154678148Y-57542718D01*
X154492718Y-57728148D01*
X154333075Y-57936196D01*
X154201958Y-58163299D01*
X154201953Y-58163309D01*
X154101605Y-58405571D01*
X154101602Y-58405581D01*
X154033730Y-58658885D01*
X153999500Y-58918872D01*
X114914803Y-58918872D01*
X114929930Y-58870896D01*
X114933615Y-58860773D01*
X115079701Y-58508090D01*
X115084259Y-58498316D01*
X115260520Y-58159723D01*
X115265915Y-58150378D01*
X115471023Y-57828422D01*
X115477213Y-57819583D01*
X115709594Y-57516738D01*
X115716532Y-57508469D01*
X115974424Y-57227030D01*
X115982050Y-57219404D01*
X116263489Y-56961512D01*
X116271758Y-56954574D01*
X116574603Y-56722193D01*
X116583442Y-56716003D01*
X116905398Y-56510895D01*
X116914743Y-56505500D01*
X117253336Y-56329239D01*
X117263110Y-56324681D01*
X117615793Y-56178595D01*
X117625925Y-56174908D01*
X117989983Y-56060121D01*
X118000412Y-56057326D01*
X118373100Y-55974702D01*
X118383730Y-55972829D01*
X118762194Y-55923003D01*
X118772922Y-55922065D01*
X119156995Y-55905295D01*
X119162404Y-55905178D01*
X119225590Y-55905178D01*
X209093806Y-55905178D01*
X209156992Y-55905178D01*
X209162400Y-55905295D01*
G37*
%TD.AperFunction*%
%TD*%
M02*
